<mxfile host="app.diagrams.net" modified="2024-03-31T14:18:14.811Z" agent="Mozilla/5.0 (X11; Ubuntu; Linux x86_64; rv:124.0) Gecko/20100101 Firefox/124.0" etag="iDpBI8N4nN9pPSMfJdjb" version="24.2.1" type="github">
  <diagram name="Page-1" id="197159a0-c6a4-9194-75a8-e4174976684c">
    <mxGraphModel dx="1549" dy="887" grid="1" gridSize="10" guides="1" tooltips="1" connect="1" arrows="1" fold="1" page="1" pageScale="1.5" pageWidth="1169" pageHeight="827" background="#FFFFFF" math="0" shadow="0">
      <root>
        <mxCell id="0" style=";html=1;" />
        <mxCell id="1" style=";html=1;" parent="0" />
        <mxCell id="j0sixRuL5LnDlVz1Tf_z-2" value="" style="image;html=1;image=img/lib/clip_art/networking/Router_Icon_128x128.png" vertex="1" parent="1">
          <mxGeometry x="680" y="400" width="80" height="80" as="geometry" />
        </mxCell>
        <mxCell id="j0sixRuL5LnDlVz1Tf_z-3" value="" style="image;html=1;image=img/lib/clip_art/networking/Router_Icon_128x128.png" vertex="1" parent="1">
          <mxGeometry x="480" y="560" width="80" height="80" as="geometry" />
        </mxCell>
        <mxCell id="j0sixRuL5LnDlVz1Tf_z-4" value="" style="image;html=1;image=img/lib/clip_art/networking/Router_Icon_128x128.png" vertex="1" parent="1">
          <mxGeometry x="280" y="720" width="80" height="80" as="geometry" />
        </mxCell>
        <mxCell id="j0sixRuL5LnDlVz1Tf_z-5" value="" style="image;html=1;image=img/lib/clip_art/networking/Router_Icon_128x128.png" vertex="1" parent="1">
          <mxGeometry x="705" y="690" width="80" height="80" as="geometry" />
        </mxCell>
        <mxCell id="j0sixRuL5LnDlVz1Tf_z-6" value="" style="image;html=1;image=img/lib/clip_art/networking/Router_Icon_128x128.png" vertex="1" parent="1">
          <mxGeometry x="480" y="240" width="80" height="80" as="geometry" />
        </mxCell>
        <mxCell id="j0sixRuL5LnDlVz1Tf_z-10" value="" style="endArrow=none;html=1;rounded=0;entryX=0.5;entryY=1;entryDx=0;entryDy=0;exitX=0.5;exitY=0;exitDx=0;exitDy=0;" edge="1" parent="1" source="j0sixRuL5LnDlVz1Tf_z-58">
          <mxGeometry width="50" height="50" relative="1" as="geometry">
            <mxPoint x="290" y="680" as="sourcePoint" />
            <mxPoint x="284.9999999999998" y="505" as="targetPoint" />
          </mxGeometry>
        </mxCell>
        <mxCell id="j0sixRuL5LnDlVz1Tf_z-11" value="" style="endArrow=none;html=1;rounded=0;exitX=0.847;exitY=0.046;exitDx=0;exitDy=0;exitPerimeter=0;" edge="1" parent="1">
          <mxGeometry width="50" height="50" relative="1" as="geometry">
            <mxPoint x="386.2299999999998" y="379.1099999999999" as="sourcePoint" />
            <mxPoint x="440" y="320" as="targetPoint" />
          </mxGeometry>
        </mxCell>
        <mxCell id="j0sixRuL5LnDlVz1Tf_z-12" value="" style="endArrow=none;html=1;rounded=0;exitX=0.25;exitY=0;exitDx=0;exitDy=0;" edge="1" parent="1" source="j0sixRuL5LnDlVz1Tf_z-83">
          <mxGeometry width="50" height="50" relative="1" as="geometry">
            <mxPoint x="370" y="410" as="sourcePoint" />
            <mxPoint x="620" y="330" as="targetPoint" />
          </mxGeometry>
        </mxCell>
        <mxCell id="j0sixRuL5LnDlVz1Tf_z-13" value="" style="endArrow=none;html=1;rounded=0;exitX=0.678;exitY=0.046;exitDx=0;exitDy=0;entryX=0.25;entryY=1;entryDx=0;entryDy=0;exitPerimeter=0;" edge="1" parent="1" source="j0sixRuL5LnDlVz1Tf_z-77" target="j0sixRuL5LnDlVz1Tf_z-82">
          <mxGeometry width="50" height="50" relative="1" as="geometry">
            <mxPoint x="560" y="560" as="sourcePoint" />
            <mxPoint x="680" y="510" as="targetPoint" />
          </mxGeometry>
        </mxCell>
        <mxCell id="j0sixRuL5LnDlVz1Tf_z-14" value="" style="endArrow=none;html=1;rounded=0;exitX=0.814;exitY=1.071;exitDx=0;exitDy=0;exitPerimeter=0;entryX=0.25;entryY=0;entryDx=0;entryDy=0;" edge="1" parent="1" target="j0sixRuL5LnDlVz1Tf_z-75">
          <mxGeometry width="50" height="50" relative="1" as="geometry">
            <mxPoint x="383.25999999999976" y="507.4849999999999" as="sourcePoint" />
            <mxPoint x="460" y="560" as="targetPoint" />
          </mxGeometry>
        </mxCell>
        <mxCell id="j0sixRuL5LnDlVz1Tf_z-15" value="" style="endArrow=none;html=1;rounded=0;exitX=0.75;exitY=0;exitDx=0;exitDy=0;entryX=0.452;entryY=1.067;entryDx=0;entryDy=0;entryPerimeter=0;" edge="1" parent="1" source="j0sixRuL5LnDlVz1Tf_z-60" target="j0sixRuL5LnDlVz1Tf_z-78">
          <mxGeometry width="50" height="50" relative="1" as="geometry">
            <mxPoint x="330" y="730" as="sourcePoint" />
            <mxPoint x="330" y="490" as="targetPoint" />
          </mxGeometry>
        </mxCell>
        <mxCell id="j0sixRuL5LnDlVz1Tf_z-16" value="" style="endArrow=none;html=1;rounded=0;entryX=0.49;entryY=1.093;entryDx=0;entryDy=0;entryPerimeter=0;exitX=0.5;exitY=0;exitDx=0;exitDy=0;" edge="1" parent="1" source="j0sixRuL5LnDlVz1Tf_z-89" target="j0sixRuL5LnDlVz1Tf_z-86">
          <mxGeometry width="50" height="50" relative="1" as="geometry">
            <mxPoint x="780" y="690" as="sourcePoint" />
            <mxPoint x="719.5" y="480" as="targetPoint" />
          </mxGeometry>
        </mxCell>
        <mxCell id="j0sixRuL5LnDlVz1Tf_z-18" value="" style="verticalLabelPosition=bottom;html=1;verticalAlign=top;align=center;strokeColor=none;fillColor=#00BEF2;shape=mxgraph.azure.computer;pointerEvents=1;" vertex="1" parent="1">
          <mxGeometry x="90" y="730" width="50" height="45" as="geometry" />
        </mxCell>
        <mxCell id="j0sixRuL5LnDlVz1Tf_z-19" value="" style="verticalLabelPosition=bottom;html=1;verticalAlign=top;align=center;strokeColor=none;fillColor=#00BEF2;shape=mxgraph.azure.computer;pointerEvents=1;" vertex="1" parent="1">
          <mxGeometry x="295" y="870" width="50" height="45" as="geometry" />
        </mxCell>
        <mxCell id="j0sixRuL5LnDlVz1Tf_z-20" value="" style="verticalLabelPosition=bottom;html=1;verticalAlign=top;align=center;strokeColor=none;fillColor=#00BEF2;shape=mxgraph.azure.computer;pointerEvents=1;" vertex="1" parent="1">
          <mxGeometry x="720" y="835" width="50" height="45" as="geometry" />
        </mxCell>
        <mxCell id="j0sixRuL5LnDlVz1Tf_z-21" value="" style="verticalLabelPosition=bottom;html=1;verticalAlign=top;align=center;strokeColor=none;fillColor=#00BEF2;shape=mxgraph.azure.computer;pointerEvents=1;" vertex="1" parent="1">
          <mxGeometry x="870" y="815" width="50" height="45" as="geometry" />
        </mxCell>
        <mxCell id="j0sixRuL5LnDlVz1Tf_z-24" value="" style="verticalLabelPosition=bottom;html=1;verticalAlign=top;align=center;strokeColor=none;fillColor=#00BEF2;shape=mxgraph.azure.computer;pointerEvents=1;" vertex="1" parent="1">
          <mxGeometry x="830" y="290" width="50" height="45" as="geometry" />
        </mxCell>
        <mxCell id="j0sixRuL5LnDlVz1Tf_z-25" value="" style="verticalLabelPosition=bottom;html=1;verticalAlign=top;align=center;strokeColor=none;fillColor=#00BEF2;shape=mxgraph.azure.computer;pointerEvents=1;" vertex="1" parent="1">
          <mxGeometry x="900" y="415" width="50" height="45" as="geometry" />
        </mxCell>
        <mxCell id="j0sixRuL5LnDlVz1Tf_z-28" value="" style="verticalLabelPosition=bottom;html=1;verticalAlign=top;align=center;strokeColor=none;fillColor=#00BEF2;shape=mxgraph.azure.computer;pointerEvents=1;" vertex="1" parent="1">
          <mxGeometry x="495" y="720" width="50" height="45" as="geometry" />
        </mxCell>
        <mxCell id="j0sixRuL5LnDlVz1Tf_z-29" value="" style="verticalLabelPosition=bottom;html=1;verticalAlign=top;align=center;strokeColor=none;fillColor=#00BEF2;shape=mxgraph.azure.computer;pointerEvents=1;" vertex="1" parent="1">
          <mxGeometry x="600" y="690" width="50" height="45" as="geometry" />
        </mxCell>
        <mxCell id="j0sixRuL5LnDlVz1Tf_z-31" value="" style="endArrow=none;html=1;rounded=0;exitX=0;exitY=0;exitDx=0;exitDy=0;entryX=1;entryY=0.25;entryDx=0;entryDy=0;" edge="1" parent="1">
          <mxGeometry width="50" height="50" relative="1" as="geometry">
            <mxPoint x="240" y="391.23000000000013" as="sourcePoint" />
            <mxPoint x="159.99999999999977" y="373.75" as="targetPoint" />
          </mxGeometry>
        </mxCell>
        <mxCell id="j0sixRuL5LnDlVz1Tf_z-32" value="" style="endArrow=none;html=1;rounded=0;exitX=0;exitY=0.5;exitDx=0;exitDy=0;" edge="1" parent="1" source="j0sixRuL5LnDlVz1Tf_z-72">
          <mxGeometry width="50" height="50" relative="1" as="geometry">
            <mxPoint x="407.15999999999997" y="275" as="sourcePoint" />
            <mxPoint x="382.85" y="235" as="targetPoint" />
          </mxGeometry>
        </mxCell>
        <mxCell id="j0sixRuL5LnDlVz1Tf_z-33" value="" style="endArrow=none;html=1;rounded=0;exitX=1;exitY=0.5;exitDx=0;exitDy=0;" edge="1" parent="1" source="j0sixRuL5LnDlVz1Tf_z-74">
          <mxGeometry width="50" height="50" relative="1" as="geometry">
            <mxPoint x="600" y="220" as="sourcePoint" />
            <mxPoint x="660" y="240" as="targetPoint" />
          </mxGeometry>
        </mxCell>
        <mxCell id="j0sixRuL5LnDlVz1Tf_z-34" value="" style="endArrow=none;html=1;rounded=0;" edge="1" parent="1">
          <mxGeometry width="50" height="50" relative="1" as="geometry">
            <mxPoint x="520" y="720" as="sourcePoint" />
            <mxPoint x="520" y="680" as="targetPoint" />
          </mxGeometry>
        </mxCell>
        <mxCell id="j0sixRuL5LnDlVz1Tf_z-35" value="" style="endArrow=none;html=1;rounded=0;entryX=0.5;entryY=1;entryDx=0;entryDy=0;" edge="1" parent="1">
          <mxGeometry width="50" height="50" relative="1" as="geometry">
            <mxPoint x="620" y="685" as="sourcePoint" />
            <mxPoint x="600" y="647.5" as="targetPoint" />
          </mxGeometry>
        </mxCell>
        <mxCell id="j0sixRuL5LnDlVz1Tf_z-37" value="Router 3" style="text;html=1;align=center;verticalAlign=middle;resizable=0;points=[];autosize=1;strokeColor=none;fillColor=none;" vertex="1" parent="1">
          <mxGeometry x="485" y="600" width="70" height="30" as="geometry" />
        </mxCell>
        <mxCell id="j0sixRuL5LnDlVz1Tf_z-38" value="Router 1" style="text;html=1;align=center;verticalAlign=middle;resizable=0;points=[];autosize=1;strokeColor=none;fillColor=none;" vertex="1" parent="1">
          <mxGeometry x="285" y="760" width="70" height="30" as="geometry" />
        </mxCell>
        <mxCell id="j0sixRuL5LnDlVz1Tf_z-39" value="Router 6" style="text;html=1;align=center;verticalAlign=middle;resizable=0;points=[];autosize=1;strokeColor=none;fillColor=none;" vertex="1" parent="1">
          <mxGeometry x="710" y="730" width="70" height="30" as="geometry" />
        </mxCell>
        <mxCell id="j0sixRuL5LnDlVz1Tf_z-40" value="Router 4" style="text;html=1;align=center;verticalAlign=middle;resizable=0;points=[];autosize=1;strokeColor=none;fillColor=none;" vertex="1" parent="1">
          <mxGeometry x="485" y="280" width="70" height="30" as="geometry" />
        </mxCell>
        <mxCell id="j0sixRuL5LnDlVz1Tf_z-41" value="Router 5" style="text;html=1;align=center;verticalAlign=middle;resizable=0;points=[];autosize=1;strokeColor=none;fillColor=none;" vertex="1" parent="1">
          <mxGeometry x="685" y="435" width="70" height="30" as="geometry" />
        </mxCell>
        <mxCell id="j0sixRuL5LnDlVz1Tf_z-54" value="" style="endArrow=none;html=1;rounded=0;entryX=-0.048;entryY=0.603;entryDx=0;entryDy=0;entryPerimeter=0;" edge="1" parent="1" target="j0sixRuL5LnDlVz1Tf_z-56">
          <mxGeometry width="50" height="50" relative="1" as="geometry">
            <mxPoint x="150" y="766" as="sourcePoint" />
            <mxPoint x="190" y="765" as="targetPoint" />
          </mxGeometry>
        </mxCell>
        <mxCell id="j0sixRuL5LnDlVz1Tf_z-55" value="" style="endArrow=none;html=1;rounded=0;entryX=0;entryY=1;entryDx=0;entryDy=0;exitX=0.5;exitY=0;exitDx=0;exitDy=0;exitPerimeter=0;" edge="1" parent="1" source="j0sixRuL5LnDlVz1Tf_z-19">
          <mxGeometry width="50" height="50" relative="1" as="geometry">
            <mxPoint x="350" y="870" as="sourcePoint" />
            <mxPoint x="320" y="825" as="targetPoint" />
          </mxGeometry>
        </mxCell>
        <mxCell id="j0sixRuL5LnDlVz1Tf_z-56" value="      R1-eth1&#xa;11.0.1.254/24" style="text;whiteSpace=wrap;rotation=0;" vertex="1" parent="1">
          <mxGeometry x="200" y="745" width="90" height="35" as="geometry" />
        </mxCell>
        <mxCell id="j0sixRuL5LnDlVz1Tf_z-57" value="      R1-eth2&#xa;  11.0.2.254/24" style="text;whiteSpace=wrap;rotation=0;" vertex="1" parent="1">
          <mxGeometry x="275" y="790" width="90" height="35" as="geometry" />
        </mxCell>
        <mxCell id="j0sixRuL5LnDlVz1Tf_z-58" value="      R1-eth3&#xa;     9.0.0.1/24" style="text;whiteSpace=wrap;rotation=0;" vertex="1" parent="1">
          <mxGeometry x="250" y="695" width="90" height="35" as="geometry" />
        </mxCell>
        <mxCell id="j0sixRuL5LnDlVz1Tf_z-60" value="      R1-eth4&#xa;     9.0.2.1/24" style="text;whiteSpace=wrap;rotation=0;" vertex="1" parent="1">
          <mxGeometry x="330" y="700" width="90" height="35" as="geometry" />
        </mxCell>
        <mxCell id="j0sixRuL5LnDlVz1Tf_z-67" value="" style="endArrow=none;html=1;rounded=0;exitX=0.778;exitY=0.475;exitDx=0;exitDy=0;exitPerimeter=0;" edge="1" parent="1">
          <mxGeometry width="50" height="50" relative="1" as="geometry">
            <mxPoint x="405" y="439.135" as="sourcePoint" />
            <mxPoint x="609.98" y="440.87" as="targetPoint" />
          </mxGeometry>
        </mxCell>
        <mxCell id="j0sixRuL5LnDlVz1Tf_z-68" value="" style="endArrow=none;html=1;rounded=0;" edge="1" parent="1" source="j0sixRuL5LnDlVz1Tf_z-76">
          <mxGeometry width="50" height="50" relative="1" as="geometry">
            <mxPoint x="520" y="520" as="sourcePoint" />
            <mxPoint x="520" y="360" as="targetPoint" />
          </mxGeometry>
        </mxCell>
        <mxCell id="j0sixRuL5LnDlVz1Tf_z-69" value="      R4-eth4&#xa;     9.0.5.2/24" style="text;whiteSpace=wrap;rotation=0;" vertex="1" parent="1">
          <mxGeometry x="410" y="285" width="90" height="35" as="geometry" />
        </mxCell>
        <mxCell id="j0sixRuL5LnDlVz1Tf_z-70" value="      R4-eth3&#xa;     9.0.3.2/24" style="text;whiteSpace=wrap;rotation=0;" vertex="1" parent="1">
          <mxGeometry x="470" y="317.5" width="90" height="35" as="geometry" />
        </mxCell>
        <mxCell id="j0sixRuL5LnDlVz1Tf_z-71" value="      R4-eth5&#xa;     9.0.6.1/24" style="text;whiteSpace=wrap;rotation=0;" vertex="1" parent="1">
          <mxGeometry x="545" y="290" width="90" height="35" as="geometry" />
        </mxCell>
        <mxCell id="j0sixRuL5LnDlVz1Tf_z-72" value="       R4-eth1&#xa;   14.0.1.254/24" style="text;whiteSpace=wrap;rotation=0;" vertex="1" parent="1">
          <mxGeometry x="440" y="217.5" width="90" height="35" as="geometry" />
        </mxCell>
        <mxCell id="j0sixRuL5LnDlVz1Tf_z-74" value="    R4-eth2      14.0.2.254/24" style="text;whiteSpace=wrap;rotation=0;" vertex="1" parent="1">
          <mxGeometry x="540" y="220" width="80" height="40" as="geometry" />
        </mxCell>
        <mxCell id="j0sixRuL5LnDlVz1Tf_z-75" value="      R3-eth3&#xa;     9.01.2/24" style="text;whiteSpace=wrap;rotation=0;" vertex="1" parent="1">
          <mxGeometry x="400" y="550" width="90" height="35" as="geometry" />
        </mxCell>
        <mxCell id="j0sixRuL5LnDlVz1Tf_z-76" value="      R3-eth5&#xa;     9.0.3.1/24" style="text;whiteSpace=wrap;rotation=0;" vertex="1" parent="1">
          <mxGeometry x="475" y="525" width="90" height="35" as="geometry" />
        </mxCell>
        <mxCell id="j0sixRuL5LnDlVz1Tf_z-77" value="      R3-eth6&#xa;     9.0.4.1/24" style="text;whiteSpace=wrap;rotation=0;" vertex="1" parent="1">
          <mxGeometry x="545" y="550" width="90" height="35" as="geometry" />
        </mxCell>
        <mxCell id="j0sixRuL5LnDlVz1Tf_z-78" value="      R3-eth4&#xa;     9.0.2.2/24" style="text;whiteSpace=wrap;rotation=0;" vertex="1" parent="1">
          <mxGeometry x="405" y="610" width="90" height="35" as="geometry" />
        </mxCell>
        <mxCell id="j0sixRuL5LnDlVz1Tf_z-79" value="      R3-eth1&#xa;  13.0.1.254/24" style="text;whiteSpace=wrap;rotation=0;" vertex="1" parent="1">
          <mxGeometry x="475" y="640" width="95" height="35" as="geometry" />
        </mxCell>
        <mxCell id="j0sixRuL5LnDlVz1Tf_z-80" value="       R3-eth2&#xa;   13.0.2.254/24" style="text;whiteSpace=wrap;rotation=0;" vertex="1" parent="1">
          <mxGeometry x="540" y="610" width="90" height="35" as="geometry" />
        </mxCell>
        <mxCell id="j0sixRuL5LnDlVz1Tf_z-81" value="      R5-eth5&#xa;     9.0.7.2/24" style="text;whiteSpace=wrap;rotation=0;" vertex="1" parent="1">
          <mxGeometry x="595" y="425" width="90" height="35" as="geometry" />
        </mxCell>
        <mxCell id="j0sixRuL5LnDlVz1Tf_z-82" value="      R5-eth3&#xa;     9.0.4.2/24" style="text;whiteSpace=wrap;rotation=0;" vertex="1" parent="1">
          <mxGeometry x="620" y="465" width="90" height="35" as="geometry" />
        </mxCell>
        <mxCell id="j0sixRuL5LnDlVz1Tf_z-83" value="      R5-eth4&#xa;     9.0.6.2/24" style="text;whiteSpace=wrap;rotation=0;" vertex="1" parent="1">
          <mxGeometry x="635" y="380" width="90" height="35" as="geometry" />
        </mxCell>
        <mxCell id="j0sixRuL5LnDlVz1Tf_z-84" value="      R5-eth1&#xa;   15.0.1.254/24" style="text;whiteSpace=wrap;rotation=0;" vertex="1" parent="1">
          <mxGeometry x="720" y="380" width="90" height="35" as="geometry" />
        </mxCell>
        <mxCell id="j0sixRuL5LnDlVz1Tf_z-85" value="      R5-eth2&#xa;  15.0.2.254/24" style="text;whiteSpace=wrap;rotation=0;" vertex="1" parent="1">
          <mxGeometry x="755" y="422.5" width="95" height="37.5" as="geometry" />
        </mxCell>
        <mxCell id="j0sixRuL5LnDlVz1Tf_z-86" value="      R5-eth6&#xa;     9.0.8.1/24" style="text;whiteSpace=wrap;rotation=0;" vertex="1" parent="1">
          <mxGeometry x="700" y="465" width="90" height="35" as="geometry" />
        </mxCell>
        <mxCell id="j0sixRuL5LnDlVz1Tf_z-87" value="" style="endArrow=none;html=1;rounded=0;entryX=0.49;entryY=1.093;entryDx=0;entryDy=0;entryPerimeter=0;" edge="1" parent="1">
          <mxGeometry width="50" height="50" relative="1" as="geometry">
            <mxPoint x="894.25" y="439.66" as="sourcePoint" />
            <mxPoint x="835" y="439.66" as="targetPoint" />
          </mxGeometry>
        </mxCell>
        <mxCell id="j0sixRuL5LnDlVz1Tf_z-88" value="" style="endArrow=none;html=1;rounded=0;entryX=0.49;entryY=1.093;entryDx=0;entryDy=0;entryPerimeter=0;" edge="1" parent="1">
          <mxGeometry width="50" height="50" relative="1" as="geometry">
            <mxPoint x="820" y="350" as="sourcePoint" />
            <mxPoint x="790" y="380" as="targetPoint" />
          </mxGeometry>
        </mxCell>
        <mxCell id="j0sixRuL5LnDlVz1Tf_z-89" value="      R6-eth3&#xa;     9.0.8.2/24" style="text;whiteSpace=wrap;rotation=0;" vertex="1" parent="1">
          <mxGeometry x="700" y="665" width="90" height="35" as="geometry" />
        </mxCell>
        <mxCell id="j0sixRuL5LnDlVz1Tf_z-91" value="      R6-eth1&#xa;   11.0.1.254/24" style="text;whiteSpace=wrap;rotation=0;" vertex="1" parent="1">
          <mxGeometry x="700" y="755" width="90" height="35" as="geometry" />
        </mxCell>
        <mxCell id="j0sixRuL5LnDlVz1Tf_z-92" value="" style="endArrow=none;html=1;rounded=0;entryX=0.49;entryY=1.093;entryDx=0;entryDy=0;entryPerimeter=0;" edge="1" parent="1">
          <mxGeometry width="50" height="50" relative="1" as="geometry">
            <mxPoint x="744.76" y="827.5" as="sourcePoint" />
            <mxPoint x="744.76" y="790" as="targetPoint" />
          </mxGeometry>
        </mxCell>
        <mxCell id="j0sixRuL5LnDlVz1Tf_z-93" value="" style="endArrow=none;html=1;rounded=0;" edge="1" parent="1">
          <mxGeometry width="50" height="50" relative="1" as="geometry">
            <mxPoint x="880" y="810" as="sourcePoint" />
            <mxPoint x="830" y="760" as="targetPoint" />
          </mxGeometry>
        </mxCell>
        <mxCell id="j0sixRuL5LnDlVz1Tf_z-95" value="      h6-1-eth0&#xa;     11.0.1.1/24" style="text;whiteSpace=wrap;rotation=0;" vertex="1" parent="1">
          <mxGeometry x="700" y="880" width="90" height="35" as="geometry" />
        </mxCell>
        <mxCell id="j0sixRuL5LnDlVz1Tf_z-96" value="      h6-2-eth0&#xa;     11.0.2.1/24" style="text;whiteSpace=wrap;rotation=0;" vertex="1" parent="1">
          <mxGeometry x="850" y="855" width="90" height="35" as="geometry" />
        </mxCell>
        <mxCell id="j0sixRuL5LnDlVz1Tf_z-97" value="      h5-2-eth0&#xa;     15.0.2.1/24" style="text;whiteSpace=wrap;rotation=0;" vertex="1" parent="1">
          <mxGeometry x="880" y="460" width="90" height="35" as="geometry" />
        </mxCell>
        <mxCell id="j0sixRuL5LnDlVz1Tf_z-99" value="      h5-1-eth0&#xa;     15.0.1.1/24" style="text;whiteSpace=wrap;rotation=0;" vertex="1" parent="1">
          <mxGeometry x="810" y="335" width="90" height="35" as="geometry" />
        </mxCell>
        <mxCell id="j0sixRuL5LnDlVz1Tf_z-101" value="" style="verticalLabelPosition=bottom;html=1;verticalAlign=top;align=center;strokeColor=none;fillColor=#00BEF2;shape=mxgraph.azure.computer;pointerEvents=1;" vertex="1" parent="1">
          <mxGeometry x="670" y="205" width="50" height="45" as="geometry" />
        </mxCell>
        <mxCell id="j0sixRuL5LnDlVz1Tf_z-102" value="      h4-2-eth0&#xa;     14.0.2.1/24" style="text;whiteSpace=wrap;rotation=0;" vertex="1" parent="1">
          <mxGeometry x="650" y="250" width="90" height="35" as="geometry" />
        </mxCell>
        <mxCell id="j0sixRuL5LnDlVz1Tf_z-103" value="" style="verticalLabelPosition=bottom;html=1;verticalAlign=top;align=center;strokeColor=none;fillColor=#00BEF2;shape=mxgraph.azure.computer;pointerEvents=1;" vertex="1" parent="1">
          <mxGeometry x="310" y="195" width="50" height="45" as="geometry" />
        </mxCell>
        <mxCell id="j0sixRuL5LnDlVz1Tf_z-104" value="      h4-1-eth0&#xa;    14.0.1.1/24" style="text;whiteSpace=wrap;rotation=0;" vertex="1" parent="1">
          <mxGeometry x="290" y="240" width="90" height="35" as="geometry" />
        </mxCell>
        <mxCell id="j0sixRuL5LnDlVz1Tf_z-105" value="      h3-1-eth0&#xa;    13.0.1.1/24" style="text;whiteSpace=wrap;rotation=0;" vertex="1" parent="1">
          <mxGeometry x="475" y="760" width="90" height="35" as="geometry" />
        </mxCell>
        <mxCell id="j0sixRuL5LnDlVz1Tf_z-106" value="      h3-2-eth0&#xa;     13.0.2.1/24" style="text;whiteSpace=wrap;rotation=0;" vertex="1" parent="1">
          <mxGeometry x="580" y="730" width="90" height="35" as="geometry" />
        </mxCell>
        <mxCell id="j0sixRuL5LnDlVz1Tf_z-107" value="      h1-1-eth0&#xa;     11.0.1.1/24" style="text;whiteSpace=wrap;rotation=0;" vertex="1" parent="1">
          <mxGeometry x="70" y="770" width="90" height="35" as="geometry" />
        </mxCell>
        <mxCell id="j0sixRuL5LnDlVz1Tf_z-108" value="      h1-2-eth0&#xa;     11.0.2.1/24" style="text;whiteSpace=wrap;rotation=0;" vertex="1" parent="1">
          <mxGeometry x="275" y="910" width="90" height="35" as="geometry" />
        </mxCell>
        <mxCell id="j0sixRuL5LnDlVz1Tf_z-112" value="      R6-eth2&#xa;   11.0.2.254/24" style="text;whiteSpace=wrap;rotation=0;" vertex="1" parent="1">
          <mxGeometry x="780" y="725" width="90" height="35" as="geometry" />
        </mxCell>
        <mxCell id="j0sixRuL5LnDlVz1Tf_z-138" value="" style="verticalLabelPosition=bottom;html=1;verticalAlign=top;align=center;strokeColor=none;fillColor=#00BEF2;shape=mxgraph.azure.computer;pointerEvents=1;" vertex="1" parent="1">
          <mxGeometry x="90" y="320" width="50" height="45" as="geometry" />
        </mxCell>
        <mxCell id="j0sixRuL5LnDlVz1Tf_z-139" value="      h2-2-eth0&#xa;    12.0.2.1/24" style="text;whiteSpace=wrap;rotation=0;" vertex="1" parent="1">
          <mxGeometry x="70" y="362.5" width="90" height="35" as="geometry" />
        </mxCell>
        <mxCell id="j0sixRuL5LnDlVz1Tf_z-140" value="" style="verticalLabelPosition=bottom;html=1;verticalAlign=top;align=center;strokeColor=none;fillColor=#00BEF2;shape=mxgraph.azure.computer;pointerEvents=1;" vertex="1" parent="1">
          <mxGeometry x="80" y="477.5" width="50" height="45" as="geometry" />
        </mxCell>
        <mxCell id="j0sixRuL5LnDlVz1Tf_z-141" value="      h2-1-eth0&#xa;    12.0.1.1/24" style="text;whiteSpace=wrap;rotation=0;" vertex="1" parent="1">
          <mxGeometry x="60" y="522.5" width="90" height="35" as="geometry" />
        </mxCell>
        <mxCell id="j0sixRuL5LnDlVz1Tf_z-142" value="      R2-eth5&#xa;     9.0.5.1/24" style="text;whiteSpace=wrap;rotation=0;" vertex="1" parent="1">
          <mxGeometry x="310" y="375" width="90" height="35" as="geometry" />
        </mxCell>
        <mxCell id="j0sixRuL5LnDlVz1Tf_z-143" value="         R2-eth1&#xa;     12.0.1.254/24" style="text;whiteSpace=wrap;rotation=0;" vertex="1" parent="1">
          <mxGeometry x="170" y="427.5" width="95" height="35" as="geometry" />
        </mxCell>
        <mxCell id="j0sixRuL5LnDlVz1Tf_z-144" value="" style="image;html=1;image=img/lib/clip_art/networking/Router_Icon_128x128.png" vertex="1" parent="1">
          <mxGeometry x="265" y="397.5" width="80" height="80" as="geometry" />
        </mxCell>
        <mxCell id="j0sixRuL5LnDlVz1Tf_z-145" value="      R2-eth6&#xa;     9.0.7.1/24" style="text;whiteSpace=wrap;rotation=0;" vertex="1" parent="1">
          <mxGeometry x="330" y="420" width="90" height="35" as="geometry" />
        </mxCell>
        <mxCell id="j0sixRuL5LnDlVz1Tf_z-146" value="      R2-eth4&#xa;     9.0.1.1/24" style="text;whiteSpace=wrap;rotation=0;" vertex="1" parent="1">
          <mxGeometry x="310" y="467.5" width="90" height="35" as="geometry" />
        </mxCell>
        <mxCell id="j0sixRuL5LnDlVz1Tf_z-147" value="      R2-eth3&#xa;     9.0.0.2/24" style="text;whiteSpace=wrap;rotation=0;" vertex="1" parent="1">
          <mxGeometry x="240" y="467.5" width="90" height="35" as="geometry" />
        </mxCell>
        <mxCell id="j0sixRuL5LnDlVz1Tf_z-148" value="         R2-eth2&#xa;     12.0.2.254/24" style="text;whiteSpace=wrap;rotation=0;" vertex="1" parent="1">
          <mxGeometry x="220" y="377.5" width="100" height="35" as="geometry" />
        </mxCell>
        <mxCell id="j0sixRuL5LnDlVz1Tf_z-149" value="" style="endArrow=none;html=1;rounded=0;exitX=0.25;exitY=1;exitDx=0;exitDy=0;" edge="1" parent="1" source="j0sixRuL5LnDlVz1Tf_z-143">
          <mxGeometry width="50" height="50" relative="1" as="geometry">
            <mxPoint x="180" y="470" as="sourcePoint" />
            <mxPoint x="140" y="490" as="targetPoint" />
          </mxGeometry>
        </mxCell>
        <mxCell id="j0sixRuL5LnDlVz1Tf_z-150" value="" style="shape=stencil(rZ3bjh43koSfRrc/eD5cz+68hwHLY2O8liFr9vD2S67xnyKqP1rA3kndjK4qFovMjMyM/JT/9sfPP/z++VMKf3z7+uWfn//rlx+//fwp/9unlH757efPX3/5tv71Kf/7p/y3n758/fyPr1/+9duPf/7/9x/2yP2v//jyn/sv/PefuHYLZYNS+J8/fzDHbYz/+8nf/xz/6y+/vY2vUcf39vH4fktBx7dI40fX8bV/PH79tun4AuPnLU0dnwuNn3Y/CeYnhvvlXwEZAPEWkwJCRUCr74B+mzClMdkV+q3TM6T7K3oBNLqlfEt2hZoQMAyQJwDKrQQFJFh3sV48dKJbqrdpV8g0rc2WXr8VetP9YpYKTev6GOw9FLqlcb/j14emK4z7QngBRHoP85Zt8UX43hZgTAPAi0vrAzJAgGlN8RbkPbT7NT8C1KqAHgCQLq5Q6ZaSPUO7ZXrodJt2hUS3lG/VrhBgH0vlPusPQL1vtR8BeldApytUe+jK09rsezgCdJbqrdF7WNuW3VKh9+AfUL0lmqVh51W9BVp8874QHoDC72F9QFkB9B5yuG8qLwCapbw+oKiACtvMArSgANq9c7pvKi8AmtYF0BdXcF/K+X4avAACPUO+dXnojIZPLved9AXQYW9dAF2tj2teAx7f1ysAjqzcbCPLvDS6Le8DYNjSODz0uJ/7f/Wh593YeQFUuqVpiy/fbYNLQAm3OBRAe+sCtKyAAKu1LBNOZindzcaPAHUooBPAP6CEZvQCqJGY0C4u2ZZGQvNnAdQyXjcJS6OsXUiWd8QvrtRbTgqodIV1otkVaJsp7X4aPADhNukK/b65vwAaHCgLoNtMwK2yLPclKSDC7r0Ass2M5bPAB1SmLo0FaPAealCfaQFoLS1AtytkukLU3XsDYOdbAPEfFoDcsprUf9gAmKUFmPbQtGvUrN/0AtD3UMv9vb4C4E3XovvSBtAsVV1LC0AbWW13S/sBGPg9VKMDFmDArlG7mtKD+YAFqHZLuPjWkTUUgEtj3Ff/KwC+6TrV0F0AMk5a0DNuA+AK7bGpvAJgabR4y8EAsDQWYBYDwPfQ0sV7QEDWrXIDYC0tQLO1hID1AflD0y2Vq4emaV3uRTIArNbW1EgcA83QBZgyrZ35t27bTL87CNeAcf/kXwBE5rRh76Hf95FrwLwfsi+ADFvlAoygAKIp+uPMfAHQm+7RHrqhRbYAQrUswKArpLuV+gIgQ7dn+0Tb3Yf/CNCbAegZivrT40FRXQOqfaLtvrV9BJg2rZleXLszYi8Assh6V0N3AfBNP7jPF0CAxdd9u19mIz3Dw3Z5ATSipH27r0gMLkBPCiBbYyx7KSqAtpkFGLKWCp7TIynPtwDk+C2A2N4LQMT6yGrdr590WHzDPPb1E5zWoo7fuknypxdAt/uE5/Rz1h+AyM9Q7XuIaM0swEwKoBNof8Hy0AGt+72TZgVkuiUj1cbDw74GPAIgd0BnD2UBhNdYAIqhbCv1ffHtr5yeYepm3NkiG3ZkrY2nwy0try0ZgGiK7UgWBdDOt31bmdaGcaAFkBe3AA2+h2le1joAyFifyR664Pfw5BheAGSRTWPW1zFJL27zJDKtCa2ZzcS8f0DLNqC1tLkeeYZwn7drQNbQ1AKQsb4A+f1NLwuKSIRNob1v942jqJv7fJ+lxiHCJ7v6AsDVWvRgX6YvhQg3pfxua2xrnB66aOR1AQItDfOnlwsy6QpVrcr2iNt8BBDWYQEo4rcDIO9LYztqdEvNZine/d+PALJVLmcz0Tfd9Qrb/6Ur9HsQ5wEYaEpP81AqO687xP+++J4swUcAMR0qW/fPJIgXAJ1AF4D17r/vCgWDX9MiTTUjN3MJwDc91EjcrBkt76G7Ro1oYO3cj6kAiu3uNy1XCEgMLkB8f+gy7w7zR6tVdu8nofoRQJ5hATI9Q1eSuXTejLs9Q7u/mb/4TS8AcfcLIIdiqcgJPMPXD0DhM67dqZsHIKMDvnY+4VufEYmPAGKR7ZgHb8Zi3Zd43L2jAnBvrXrGlYBh/3UCzfdZyvN0KEqIMA/MddiHYlMA5QnswOz7tGbOzNmWwPu05oae4rY13o/dXPmMy7paF4DoomcE8QEo96DhhwaWzBIHg2dWB3wHoPmW5IzL6VbplpJ+0zliot0CCIO1AESfbstYXlxA3nvb3u9HVuI40Lbu39dSGsiRLYCspTQwu2hGtZeeKR8fAcQiWwBiTmbUjSxxKs+OIMoV6slTlPeQOIVkBvUfEpsOy3kVd2ABiKDdcaX3xZfyyWOXoPxOUKIrDM07TfwBbQ5aFl/CXWMB9AoJ38OTjn0BULh5E41dAYmIkKq8xs4sIzKnarQsRXTLRrnP+guAcn+GOX47O44BEuFYAMpJfHJuLwCyl4blOpwAlhB7BkSbJeQqLan3MEub4LKHJjN0AXRfimjN9HFfzC8Assg2UW7TegBUvwIx6912b16tvSmZswFExS9DYRiA3kO9eHHkofSi1v0ZEBxAt5QvppVysHq6emiaJct1SGw6ePDrDEi2L2EMJVzsS2R7L0BwAFgCbWomwgkwLqaVbmkBim0z5IA3cy1TxFO0dQ1zbgDFdi16fAZEf2i6JUvqPT10UaolMYPVLK9yH4r0DFl9oA2gkHlWonwBMOyfNESYOLWtJY2hnABRY+xnQPw+gCUxngGSIJ44+FWn8nxnQErfBRhXV6B0pGF2a0JWevOGDqAcrGYHe+IcrKYRjg2ghCfLAj4D0vddoWh63ukZsm0zh2nNZsIdrpA0bfiwCdSozMneZugKliG1zziapXA/0V5NOFp8QUPmB8u4zIutkgja4kdWwCNrASQzZwHIONnMZFMAkf3FqMcFwLRhYxIXgFz8ndSbFUBO004bfr+lXYNECbFFqfgFwOTqopxA5ETMYvG4yPG4Ytmnsd/f/UcA2QQi52CVqNtMbJw2HJWVXgDMKA96xi1AoFkK6u3GirOUp1r3C0CWQB7KzcSCEfAFkCSVyPHp3NXbjRnTL7IlPO1iSnropo5fTGjzLYA+A9cO5KpESIyYWLAAYqwvACVX56JpMDFwWUnW0NQCUEb5AoiLP9HZzV4vgYt7VzRJ9QOaMtlyLwZmbWbPiOd3ZgwF57Ps6ZAsB5yfXbbWZTwFKpLFEjtSY8lCup3L6LoehRwiW+PFj+HUyNQ1E77hil6/ls2uojmSmvokFfmhzSFLuJjns+rJz7kQqaghXJABSNmib/g9JqsQL1jkvsy/JvESTCTyEt2MEZ9ty0m0hAtDg4VjeP7NGMxok2+LQ+wotOzitLAEEjDRCXq0fre5IZYjGr+xGyOEicGxmcHPZeS2/iPaQ17+z4mZ61gXaj6y4kHRHN+IdvI61IveD1HUzzP9OR7lDh6Rh5e/D+vfRSQiix0EtcKZMd/Hc9HxFFDVMETE1F4roo5YsGy5NhEz74eyORFzpbvFjbDIqvmXRfH1Zi4cbsxVv/PM3pVva1QAYF9JRsOwqM9dcJPNWslYkWXIlmfGJp5+gQ0DLFZQzmogWddMx/3bqwsxxzSZNgl+fUmlG2JgNQk9fOIjQvbBeAlhROZ4k/Lae3sj60jXTcxo/brzW/C0Mrp2HReU3ZeUfI0H7Qx1PmJD2iVpDCl2PJ19/GDhDC2JXOYDBeaSJvceWKB4EYbA09woHQ5FGleR0uF+lL/P+K1HNTb3zkWn4cV44k58fMPvy8d31pCy8QM5BJ+fiRUc5rwud5N4eB8fWXtJ72e512hd2N/PWLLi4wtbXzaeVWCinkT5+H6LjicKJyp9mLn4JFr+22ChKRs/D/evZsBE+QobXwKmT0R1Dko83L/QSSUd/r6QGYUVQaIas4XtnqiCCaWwt3XnFh7j62F/0+Taxt6BOselIxMblc8rHZMgzDkuA5PfgwbRCusSXI2n8y5o4L0GrL3y8ZzoezWe1r+P58R6e96aka0Kev5WNrTtfVW2f0wgqnLGrkkaVlZkM7KzdrSvotV/cIVJ1OyTHbvG70Vq7FtAds7O38bebtTAX0usumdVQYnZD7WXWj7Mp+T/bKUE3B9E0681jNZGI2s7smFJyZXGacAmcNkmSwaqv/BUJPhovNSjBmYXzXdk9iapj985mO33kw72vwQrthgB+mvi7zylBf7i+IpRsqvxPP86viHf4+P7wf/18cSm2nrrA89rHz/xe/f3NbEcwdbbCIf5EftkZ8Ti+hS6bXDectKqrcGp11ZYMFgDzseXw/tVwR6uXvLxrPiQTJiJdTQsuHGQM0mmdnWI1mlyzNZMQq7Llagwuqr8zAyouWHU2xpP+5VJae2yDbx/lSpN6N9lE+3MnFJiweRHSdJHvKeJUTIL62qXxB5aWcBBONVUJ2ZDf8p19LhIxjIMds0jUuAq4TjQH2kabDyIdjdlV3cdKeVkqz+1RcdJB8fERgen0pu24kT/otv3NVlmR4PJc6J90m09s/1jacaTBTw8RSXwBtGUgJiTk7ftA5t4YDc1+PYE4d9X8fCJC6iZLCSng/jf5zJOV0oerOFl88OieT7/A4vcminVcg20L6CBBqgv0MH1NvYBDK6psA9soEN79QGTQe8bBNf1+gY08f59g5tISPkGOjkp3zbo/9/xlmE2DzqTlm3FhGZRQvbQ8aAowTfZIMvq0O4CeZKntoYKlfMO7futSJBlDfA8xVA+MihNdJlC3BYg3AYTGqC6n3B6hwUIZ8TyUXOADwalOXi7hhYJX1XdYvHXaIK3vL9Z+ccy6DE9xcQ3O56n0Rywdgh4CCF+cHh8fMF0Rh+f7xHtj8bLfJ4IL3WAE6brRVMZjOiwWe7zluzD8apBG9DgM4L1QBD4eCYgfDwTHFfjef3reCZoolaKHgigq/GUcO/jy+H9Sq14z4eAtBJG+XA/Yr/1BwXzF8dz+bBLwQVOX1N7uHNNRVSCoJ32Qydw6XsMas+0jgHXcEFAUwA7qP3T+DwNRtBn3H+CBrAbixNcjacAjOlBN14P4SKAQQEPK8+tEwMGwWSZJqZrB7W3Kys1B91va8eEA6scqe00Xu6HA2DBAmCnAJtkjx8DeLL/VNaJ8/GnAKSP5wCnjueuBTa+cEsBU8jdAWDYP4Oep2WgDFjQ/ar0w/ciZdGF9eGC2htrPAW0gvqPu0iNvxeZT27hE0yeK2M5xNV43g9FUaBw0mowyTNOd7aeX4cEERt/SECx/e2Q4BKsOmBgKWewBBouj7Hi7MwJguE7E4zs/DokMPl4TpDy8ZyA5eM5wcvHcwKZj+cENRPcPiTABRNb4QQ7H88JfD7++H4lIbJgAtnVeLI/fTwn4FrDl0P5ysN7ehlP6k9BAzYHOZ1g1eFcKG3+y94hOSHGSowPCTQyfpzsZyHQO1aG+/hjQpjcD59H5u/EggEw80diPiQsyvm4xh/4jffvd9e/wP5gCY7xUO6iAdrImujR2mhi/lvUdP6B1pKle3ckD40cY1nwpGd1Q1Mg6adekdmzLjCHxn+a2ZWRh8q6j2esKrQemAlZCmsHwIvMdDhYKad6hReZDE1vhlM2ui6CgA5d15sJh67LEnAPGJ+cmt8acBFMbXzCChExaPrUgdwNfvckiRotPZeDmWsvEu/yOF6szcDZuSYIFrC2N1qv2MCbpSkyBc6+tvSFgM7KLrbR94vtqK0zc+Bqi6bWNTu70WS3IldDDCvvYTJvmNQGZ4dOOw05mGOtJiKfD2ZNsa5finpCsFDaU/DruW9iNmDyAko6nJO1quTa5OTyRdwfuph3ybX/1SSTWRvB1nPmaizrUllYG8EqTAtn03XdfwqSncl07Q5aBEPZDJZ18dOlYnBpHy/C1nIr7KneVkMyKRt72VBjOJtyVEerJFu6ecdgRbZyvs7iKUnLbwbfj3fuO2mtaCs0bltc9LyebBMWr34lZ2Lr15i6DLENuZl7E/FEzU35hhg5odESWiLrm2UT4ooJS1iyNdFYANrVs4nrxYw+Y54mMXBoTz1NtKegzVqMNjzIMxWL820BKHIA7FOLlUWskroMu/SXhbgktHNwxYt1A4rclamYZPM2YAhg2S0LQAfgFkQTcQhOByvV/GtuA1uaEi6RE7CKSQVHzrDbFW5W84zCdN2sNO5zU4aJWHHQo0xbS5y1WKbRXuwZ1GCqKoEVNi1RIQW0ZasxKc9Y4DXAauETh6arKXElzrWorkgekPC4kLMMmG16IZgZOL3NJTmPACVcI/qMF7Kihyu4cOkB4NKoh1ly8VUmXS/kXbn7+oWA7BHwfVe4EME9AlRm9wBw7fkjQKWC2f1tVm10BvgXR+VnLV/MEjYtzpq/kLhFXrPWnYkFAhfAn4GM9Ath64AaERfS2YFzyF2cmztxXsh/HwEqMH64JZcwPzz0leIsEf/NeqOngNaMt3be1CNrz6vyGZ9AF+r2zFZe6OcfAT5LZC9d9ADg+MJFlwHWv7zoY8AZHBedEo6Ai4emZ/BuD4dZ8n4SHJXrJgq5rRmapWFxyIBUz0WbDuZeh2WuHMjgYd2AItd+ejOTg7iPt0s5Aayr6waQfprrT3F90bOR8wuATqBhUmEHy3i3dnZTmp7BWnceghbj6nsgGnCYZGgK6A4Mc2m2kcgtkNT8ifhNj3HRHoKM9d33KSmADvZnHv0DwGL1C+B9DLCFajADK3Gvz2BdmVgzbwZbfJk7olo6/qakYZYu2poVvoKFnE49xKxkfJOs3PxNleEbd7G0tsjp0CHYaf2Oduv0U5SJx5kvdK+IaX1WxTyYeg5FTisMymwZ78Lg9zedOXiz+zOKFlQ69ZjMckucW7EAqjaVufOgVVttfW++gneAxK7fJjC+ANj2sqqRmBtW9M6qZmjmjK1dwJUVcGhwKrRdPvTkbrrdZ64Cnk3bhBdmf2bTN10CT6vVfRbu8DXNByoJEymnVUKWjJUw00ozy6F1pymBl8LNo40YLJUbaxoVX1iZdA79REvjfqV27Baul3jWpz8Ag9tezouMa9yXTCC+sIbErsCWRCLO2XyWeL8AyAx91pA/ABEDoS9V6g8EC3VdIQ5NtqcGx09tvB1waBQ+9QzarcgPV5CJbUgCT1Nrrtw7ZJq6+ZNd/HA1yTMcWsLPix7yRIXMoSZW5Sjk/ki7AihMPruqrDVuvrN3pvdbatxlcu2u8lW3Q1PhppH+Q53StDhNy+jJzWqx9cK3ZOdoq+iCT4s1tYPlWrWYtDXuQmza8a0j6bXtGSlHG2xXFv0eGtd77nLuqgDyFWdRiaceuFdz0RKqTbSx9S27a+e2lN73uydk+txc37JlfAUJf/XC02rCRP3Q1j5rDHzzZgQwoe/O6bXuNnXONplJsyV7Rx5ut/HuCqDc0BntTQ+k1aaVq/fD92CClP3gyVlBT5/Iw02rOOucor15h6kAKrEYU6Ps48D/TDUdxoHOsR4eI/IzDCtbZ+dydNMliJh69dQtewGQF7RJL7mlxK3Im0Z3R+JnqMrpDvZ3h7XK2XQkkV6WjzRYDnh35X7fZgaXjw7bW3cncHpoU0zb/CVfQV8cJ9kNk/RYb4aokL1ymgISPYMVjWwVPZpWi70Odpu6GboLgG2LLbNwc7AU4xh6oIyOhU1r63UpwEMURZ+BswW7JbcNtma6WWSjs5iSqfNseUJqmGI9ggefQN14uNFxM14AKYhaeyHl23VrOTG4gVqPmrS8AOQ0LftLd42DKF3QbIfBqnS7BbbdEsaPrR3i4GN3AYRsWQDsme0HykSrsnU9p8dBSc2kzgb7ca0qdzK4mUqzHjkbQLNkcpGDU892eoTfEsnleYbu4QrWseUEsP66G0AKb1HJxzFZQs5qXheAtvtmRf0LQK7l8s9rNwClPE3bKifnqg1ljQcL029dc1satFVWU6obbIbWpk7TQepqK2U0BVBtarXMmRlwtVbzdifH8avV6U1OwKj56gqw8y2AKqgGtJeqSQ7PgAxWjerHTa6KqqaRNQNuxtW6CiwAriWrE5qRZW+ncmSTK6OKRXcXABOHh724iJzApq2bAlDZr2vsdSb0FItrJXIrw2fvjRcAmaGlqvkzuSCpFA04T+4+6Q2qN5dCfb+zfdMsgFVMYnpmbkVuSSSz8FqKeijuSCbn9gsFPDloXizVZvNy9OJM1meHPqkyZmo58+RGUdk6FU7u25rNIpscnMrmcJwA1uH9DNDFdygRN4J2A6gAypJ5FiDBas3F9EMrHlnZvweuE8nJJLMrmg7ZNPU3dU7PEE3kvGJeSzbRwgUgbib799CQkMqWajNZhi1ZMs/k4phkbW4PyuVpqM23AOTt7hwTewaa1l3MJy+OOYEL8ebOs1SVLpqd20WYhzI5eSFZTshk1uHZffkFgP2zs9X4dVZoTab5z9k/rtE6B09rVN77IHKdjJWehzYfJtu1A/XcxVktAW7kuIue7BkoOhCHbZVHgF8BpTD9QBncHK2bGPtgMVirtty3RIIQV/LqB4UBKTyczJxEy2CaHG6OXvM6MFq2O56aRDY+dDbzZx5lJ0x0H3uUp4sroOqR9S2cTLVEK0fbuvs0S8G2+4laAJZMscdjX2rJAj50Vhia1DInxpq72XucWt1tGfH4dnE/tIqsyOXYiMFfGBaJmXD6PInkeKcKFJaXjIh54Fc0eDoPBI55xLx+3NXjBX3194mnq1qZODmRoF40AiBtlGqdcgYmvVRzCweXkqkQ2RxcSXYcv/7x+w/ffv7zPz/98uuvf3z7+uWfn19//9OXr5//8fXLv3778fGjP37+4ffP63//Cw==);lineShape=1;strokeColor=#00FF00;" vertex="1" parent="1">
          <mxGeometry x="51.28012040849603" y="300.15320164371906" width="379.11874834109045" height="277.204126816582" as="geometry" />
        </mxCell>
        <mxCell id="j0sixRuL5LnDlVz1Tf_z-151" value="" style="shape=stencil(lZ3b0hw3joSfRrcdPB+uZ3fewxGWx47xWg5Zs4e3X3K9/Xd3ZvVH6876DXSxiiQIJIDkp/y3P37+4ffPn1L449vXL//8/F+//Pjt50/53z6l9MtvP3/++su39V+f8r9/yn/76cvXz//4+uVfv/34579//2FL7v/6jy//uX/hv//Ui7fetlIK//PnH3K6tfF/f/n7n/K//vLbq3xV+dhQPr/Kx1sOKB9f5cOtRJQPL/Jp3iqP5/V907i1QvKjvMr3W58oL7/fbhO/55gqH/D7zP4qX28BxpNuQcZTbhm+55rN1/lN+VYzyafX+Vp/GRXlk8r//1/+4u/HW+Xfl/UQ7ivqnXxX+YDjKa/fM05cz2s3vf5+XOsN5efr+8Z+mzCefJ/9J/kE85Vv+XV+Y7s1+D751mX89Tbh98stFZWv8L5F7cmSTzCeesvjVb7cJuz3pus/fjzxjXzLKt/gfbu9b8H57bcRvkf+Y7U8y8N6mPfd+iwP7xuXea2m0EEhXsxAI4u4TJZ9ok4md+2xqQqDbOLaBPYOg94hX8zypCGV+yH3rEBPKHqOrXVNdmUv+2EK9FmrnkzrL5FmutnW5622LYkNKdFLj1uwIWVWaE0VCuy2bWztHQpN3Lxbh2cFsr/h/nvPL00HbLjb5+eJA4u0DzDbQJ0U/MwpfCanu8vxpIAvvc74rgoJvJZ0tR8izEMqF3YPz9lqL51xiy7LHbMqDHqHduvDFGhI/VaSKnRY3st4B3tCpycM9U63paInTFutGY+H5U1Hewfyl5eCHtD5VmBI27+3J2R6grnMS4HMTHafah0ApJDVyYsfbtY7hZFUocMGymv1yxPWqQdWI3+cyk8K+FmrOsLr5J5g7peC2taApjI3WxrsCi+F9npOL+eD5LtOw7yf2+/kZYMOXttDP9G4RTAAS14MccdQYcnPKvJkJPPH57jLt3sw/E5ezPY6scnVDvfI9S5f0RUudvBUdA1L0gVRcX6XvKy4iqF7ybpp2L1Y8rJnKp45ZUW6r+tzHUL0PYvO7zpm6ferngflHnxeyzd1j9i4l2bYCXoipd8juY9YltfDuC+vhzyuh6HrM90yfZ95d/Mf8mSma9D5iniAL3n17XD/Vne80I2qyZwc3I/V1n/kUDYrFhLwVFrygnUFjKNqURcqILRXLbYOeOgt+WnjAftQ2923f5Kn79nuSMNffN+up/ZhPEPtScDzpU4fP0Ebbfla+n0yfP9m9jygPWzxbg6e5OF7LvkRv0f+Awl+yBPU29Z61vUW6fezRrABI95m9jygPWnmMgX0N5Z8t/HQ+C2gXvKwf5f86CpP66f7+gyw/ttQfyMgINCmnkfhPoHv5Kuuf7L/PWj4E+4H5jv5puMvsB561IgvYCiz5H2/E7Rn9j8g0NWT/z5BjX1FXrqeKbXQi2LzAf2ZJd/1ew76fYOgOMJY8l3Pa1r/ven7Rtxfvd+iydP66Wqv1gKh8Yx7JuSvndd9WhiJ/u2SV4AB/Y0RfDx0/o5oAds9kn4nL/5kRERlJMP/MJW15DVXdjcA1/JZwYuE9mqUe6blIU/2alQ9HxOiYEt+qP9MIflour/SfYFfy3d/X5zfcT8eHvKETy35pv48YRBj3s33I76IID+DjiejPV/y4m9zvDPNnmeE/Zd81/FT6nFaXqEgUDuzvm/h75P1fQui37Po/i2Y2lzyTX+f1sOsmgut6I8tecMTKuzf2fT7fCBI7+RLFHk6T5e8xDsd7fPs6s90zNEseYl/B+7HJS/7a57GI3jCvBvIa/lhICI7TEuhGOqIIxqWlYqYzV0Kmo5O6GPNeYdkntFfmgTP6HDqYSl4NoQy5EuhSuqhYsnH/Kgg+VBot0QbcxqY2zHSWAqysneWnybOXYmBsfNSGDKkic6uKxy84znttI+8nafCBfv845dWvIkTNDHYCZUOWdcLjYb1KHtQVrBDXvXFW3Q289NKfMZxSKaAhsaHNO+uz1sFqRILCBXuxSFHf0TseCu8noU5IbiyFcQZyaf1KtFKLuwu2J7LXMpyodDYYZhaXLMU5uEJ8g4dXc6LzzqwXGkrNFUgp38vDSnYm6elIaheCViRthWKKuChNQ3HZ+DZN1DJiLRcPCGfhiTQTyn3xfIXZ7p85PPenkGi0Njbnoq27PzB9ykMdk+m+kvl4DDZOVomRqj+hBpOn7WKixsxKbq9jdflvbMCB3/GFCgqXwoSZVfOyE+DIWo52SWpUasVgaat8DrTtXEkMBWpqf2O1b5VkCeM+yDfKQSZ6Ykn+/ZcTQGjyXEH0z6ik3CvinnrTL++9AbkDwqvE9fS6R2kHGQpUEbjQoFrLy4V0NwPPeMae1gXX6myuz4UhWkN01b7Ca9Wo3XM2y4FwSHbuMcUb+MsecJH1PJOQZCqHjiCGArtLoXDPITXr9QjBwRd3fUNV9MWNTS1Z4Szl4KWUxzwj34rolA5bLKAfSmgbe32WRsWhs6m3n0fiGlPKyLrkw1Z0yT94KzgRk1ehzQi+0vt/tU/FBiHXQqStxtcTzWbng+DS+22wuviG1xkvBUEmuE6z6UguZrRGEZoeqCMzl+paoA8+gl+E7BlDMwXLAWxS4MLpJaClNrNcHoHQVjnIY4remTNiOXqS0FqCDbqSl8pq2c8M6L663/rE8o9z/4O9pX4YXId0B6xKNT7AfAOiNZ3aIwsR6uEaxzHBfWMt6WiJwTFQieDp8OKGx7m+V22QeqelwKdQGOo1dgAKT3B6m3XqYcJH0sw7pObnlA12t2+AaWgqqKVW4FyREVzFHOgKz0syftwV64VsoLAkzuMhrUYnRWKK9A7RMVmHl7gO4VkL01AyAhqWyeHA8NqcbYCTNw6xmtVBap+6UPhzUco+E4hdFWgxbfz4UMVsGCgaSz6AF+uFar6Gg+o8FqhqPvzwEffKWh+IHAVzPI6Fe8/aSTtmZoMb27XOdlM0HcKGlzuuabV9FFJ/aSAtVdrADZ1WHw1FKLdC5yqzYZWU01G+lZUpScE7+rWNCDYdoMKpKqixgf73aqdowPnoRVtHZgDN+lSCPaVCEBd8XM124dPSHaOHhV0V4+7H3itEDXkOCmEi0MLK/mCRqM73ISl4aWUWwFsXx12UncM/aqF4FuBqo+7GQFuB1gK0V6alvcG0ewdCLirFqPsCBgmblfwTlWgEqtaLjxXrJm1muIdbtJMF+3NXM40ZeVrtnfgBryaFMNa/j35ZBvBlSdkTAhXIw2YnLms1iM7uZRrKejRHrEWqgZN4U0uftzAuKAC7AssBTlFH/VC7xS0nGIg+FitF215/PSViuVpdsxOHQ6Wo14hAlnv3bIgQ6ro6i4F6ZwcXJRTLKGwFCjXVKYasuXxY1uQgfGDUeOtEFUBhzQUJduliNxpovPApb3FSvMfxZTvFBRLZOxkKSRR4G6xYs2cyx8n1Lh0TSh07v/a+bekClRQVSxAXg48Lg2LIJY/ji1dTelJljtOx24xtHIp4DtUNWSdCUFKVXizc+fkUpASj6VAoV8puqd3ZTo1shUlmegBIaliMfvy9/EdkiWnBvaM7949UWCwpURdS0sBu+uCutKtITqz2xvlCRWzKHkqpru8cQoHsoU0jWtCcrd3SOi35mYtmgnh/qWQ5R0iN7FaUf1SoLW0G4MlOcV5y2wx+3bfaeKK1glXriXL+SL3iksj6wlUB7fiJkv8DySOyNbLUQ/NwVGXRu3cbx2122hHFKQQ7tXoTwpIbWTlEbUjtr7LwJIqIPlT1yirdqxgStbSXTmLskt+7R0IzNk9zVJa0DB/nAyiXQpUDbcpiOwJyANR7KUb4ksp65G1FKiT8VEY+aRAEUqKF1/poCA5v9owE7R7w4oqkJmJ8+IdyF+KZu4rO+vOHlPZX4pdSwt2CytR5nSFaJcCpY5i09TRLrWhIZm5Xwp0PmxymawKBCLscuqqCsixk61GqiLqsMk07AlILJS0nmIp0Bm3q9RlpgsGrzHaPDDHzibTMAVKu8RghWEFYQorrKyZM3i2G7gsbCjksOTpVDe4a7evE0huzSQJJ9nA3xpxJzTNe20QhRAQzfXVgFa7Kg615Cs59Tb+gAUF1sxTOUthFGRlsmOooVthnypZPejAep+kjuqOkJH4USDf0g/EodJctINRJOoU2KNwt1BQX+dBt/FGXkDxwsRgQXH9QwVvMHKQghh60P27g0SUlwN8hXw8HnFPS0L74PLc7eryXIpr8o/48C/LE7Tt8gOrM12evXEDL3dsiOtN9stuDsDxaLNlRTTV5Qva86CJ2E169T3r8xG0vVv/0szJddBByQV2jMf7d6o8gQNBkawlT4mLqIm/LY/2Lfl4yLfUREpOWIVh5DX7e6K8BFqZexqu5JmoWceTseo2qs+35JEFVPHZzDWGUeHZjULg/pXMV+YWjqDlsMf9ImQcmbuf7bxY8rR+rvYjsU8Z2pDTwV4VW88EyRh5zW7gwu/jDV9M9B1MHrlFtYI0cyFiVH9+jx/Xp9QH7e9DIYn6e5nZua72Y8Lxf6+8wCSZicGtZHHJM7G5+Ccb2UR7mO18xLjW7Ek/2CuVH+g/WASZB5J9ujyDpCa//CU6v2z8JTI/8IU8IhGakiin/aL+c+ag33q7uNPEcu6FWaM9HmGYIykmVyqWHCataXykut7Fa1nlqe4hGzkFd7FkLUffCUqYr6LnaRno/xRtUS/ccW6lWCs+pfiiaj3CTnTD+JuNf2K82fS8rpzlMCL3GrBQ18jmasTfHwYaR9xfQ/3VJY/typo8rgnxihgsq5OY+N08psr8MjFqDeOu7WHidzmzlwL6xMk+Ejtlm7s4qAKewkXDql3QRJ/VSLeWAiWa9v0I1s6JLOvtov+TkIvYtDK5Mn947BdDwqVhidfKLRZxWkbkgABbA/XGmMm8hwtgneK3fUC171JIGvFV5rtNySDgiln/ZKXPOzlAZ5QZ+Vr59pNiVqyilU/GebsVCIZsVykUGlLT4tPKTX6p2+LjDtNkvDy70JKGNGweGlaQLGOcTYGCs03Lbvm7A2m6hEM7f0dPiOpf7BwkpaeTWT6+ySgbvVbtXBuRLGnZmUDcfKTa0cw8IIAPhYFlldkoRpcCmcps9xrUgQfKLtewYgqK8zePe1cFfIK1QjbOdGTjmW4Rz7jcNVZrzLych67WxmBa9p7ujOh5Nm7S3chOFVVBeyfboXAzagdRO5SGWlfgboigjFPSkKp1TPEUqytoXKOyC9WsjIyc3GL9Em1yVVjVJr/GYXCp1mbOrL4rjJJ56Ida0qaRbWee7V30KOV8nPoo1hnTE8YyxepsesZgvlj0sBTI9y5D4ale+KWH4un9cHHX1D3dG3+lqYUIvXOl51QIozNksyPCoAqUM9zl3lZmfKC0lwNlcKVnDQoDLAWCGXaW+fWzjsjdDMYaOxK2yldDggdXClRLfS4FhAKCutKDy4x36l6eUE+9BlIQMrj49BGcPymQN1OtnG90NJU7nLf2B9oP1boOxzwpaIsfE4Kv+Fy7lRkzXArasRfRem8EQDqUEhZ5bQTg9aUnpy0eAf2TApXz7WBYFAo6WLVYK03FcOBRP/WkQFBOtRhok0lw45fSLjTsZqh2VduDEOOdgn7Whs56NbLs2RBfvejYazwP0xrZG4bH1dqBJjtYzQjmHxSz1wqWlJhM9tiiraWGHlmzQuaTQla7dGCCaNma8RmI3kX2/gTuwvVGSLyowC5a2EQ9NCSrop9cyNy6Uuke2CyaXV04uZypDQ04drso356gjZAdDdl2nL+rqbabr7EJNviCBl18gzvro5aG7sZgekKyvveBRFjdGl12Czi9tGFkky90dgaCs4JyHBwU7OrCk0Kz1cqMHN3aUB4UZdcKVvm8J44+q3Gk7bVElAhTvcrZMd84gnpks2MB5Ob88PZpur/AbiKc3C+xFJSwm3PKI110dNNnHdlajzvfeZCvTOXhkgR7B/IERjEXjo3xcs0vXproYJqW5pyeYBDw5D7f7Zr7Oc1XKyjhDLsOw3gPJzcnDKMpn3yx+3BvhoHyaVHW5HTCbim3JyDNbTSWncJPsBsD54FOMmmV1OTm5n0ngyjwJR1LoVhIgxyadvfn5GtqpjM28b1L0yKUNfcHhWahJYXH01qadmc9K2g83ZlUzXy+0Zigr14w+iH7ezVco+IGmtX4Bw78k8aWMbiEcVYDQvge2X2jhjXKI1l8VfdnRLSts9rEhRP/pNS1rpMbZ7pp40dnN3Rafrof7/nQju7KVO6O6B4Y/doFGkp+62bpFEQ3M3+984DyZUOPMO8ZZGa2VNlxna8jm4YJNGb8mEYn0LiExxlfV1REvsbserCvQA3JT81vPZEBG66x6Yb5khapozoRGht2f8g0PXiHnhSQPdgV+KKorSDzwLdPb18+qAKhcI9A8kMhMJepZfwOPeM7HrFEKlL12m05lWPRaddDn0jKh7ZcnWjQh/XsHYjWh8aiS4EA2gcP14cC54EunsCZpmksnbuO7MB1bY17BLVsPkuZaabXmAa1nK4FsOTX6eKBoSFNOVD1WnhcmPtrWq9yaVhY4MzspSIQMg1vLdwANO0688LX60yj/Tlfk6EXqB0v4lAFvoLyUuHAzC7ISZ7Mam73CGQmDt3zIE8YfMYZOVLuTMo87Oqbw7UxxsF/upjGot3T1TeucLhcx+5C2O0xvPj0CZzm3F9JCv7j6S4EOeNyOG3R77xGyTbQ6aImf8LhKihXOFw2NezuqMN1VmY10sFZtw2UDiCCGbKUTxtITGXi0uet8HrGJeYvm0OL4Q9XK29zLzfzHW+MkJLbOE47TnCNyPDpHJrWiY0vT/DrcRtHikNbfiLX6G7nRJ5QmCy+62qNnAx+5GSeFPCOym53/3Fb6bRauBj5npmuAfi+tJFjUQlpIhc8PfKsH4AU2+JmeSN2pKux+Z2gH+VT44Vn95Zysm9aDebh5iu7o+BwvWO2aImBqGxXQPGlVMlK1dlxSxb58PU1Udd05XuKolX+svccrCHhhHQrNQWCk8Myp1xN9KAdfcgnvpdZQAa+UGLJJ3GnEAAYTcvS+J7iUfV44nKrJR91PEjPX3R/5dMNA9pqjEfTSBrrZL53O5rjhQZxGDVI5vxTUPuT+d55KyNkZo0+NFHP94B3g5w4heG8/3zveW/6vgmP4W4X1ST8nt3sc8IztRdt/eQosBvneuL5yv6+hxsFpByL77XvluWNWHHTk2a2I4Zn3exzRKemR63ijnwNhFFr8FVhza6HjVwKY5TGXDTY3BPl2hyDmSPidq0pfsqB364uqir/XeVLkTtXrSaeL/Bqlh88/H5WYlVmzmpZOz8jVvI1I1iPXGaXNLnOFcwtahI48jURwd+XqmWaUSVF9A+r3/+N9r9a/Mn7vRpcn7jetFkEzcWgTdcP29ta7WJubP/ZBbPfY/93A6zaZ+S2N2o0Pu+q1QQwc0dN/n1wPVgjDzMZVbvNiP2NamWpzKTgNPiZO/nnhf/GvSPiD2Rcz8WySYXblrrmJAoyG5Zm1HEIsy15TfQwO71l6Suun00oLnkhbq2xkqyG/tgmfksij+NJli9kvn+j+uNLMUs0Eni0V7tTLok8nXfFqIM6nhfF7vIazF9tdykNZlqcducPMp1ly+1MZu4YVgTIjbVd45ENANELdw2YIzcdZbuZJrLLlI2tcylQDJ8tpo0JN2U2PpHIVv2RcHhSwD7ZYm4Hl/94N/FSoDzk7lcWR4vv+tiUbkkVsF/ZWoIiszhlox2KhTtxg33WAwl/0NM+Fsya790SVAGpqI3W/EG68U5BV2vBiGkZIGk0XwrIQdAuvhLV2iQ7oyI3HSUDUSMzZqxDUrFyhvFS0TKsyIyTG5YyvJ82UMoWCFXmpE3aLB8rljvsSEPWUuOXtpv8IjcdpWDBIjOtR0M7lwIVPkbL4UXuUopDSytPQzJ+l8jVz3sA9g4HyhkNuRqz9VVbS41Jx6ttIO4AjYZCxcYEecbovPNfxOSTtewkchPePqBsHpDA3m5ijUxEEs11i8yK/HAUnhUoh3exWLEmxFwTfgOrwYoN65f6hQEg563pZbhH+Wx7jQyMY0XcJX+1rGkvF+XuiFwLUtT3X8YAbx6y+1oHzpf7SAOD66z0D5FvUrWbkzbxMXlIaq5TYKoSxcYeRJ/v5AVLYLDdcoMp8bUyatsT0+ZmNVqHZJljJ/VAKy+5msRFAcmwIg4ejSNrszXheLT2gy+lNVr8NBF8SFrIkbnw1XNfEfuE0gVtLp0Z1i+8aaPJu9bc1IE22hgAcmJH9oLmmM6LZDSpXJBhFAaZk33mMWYG09IFDTrLBx8/0phqbpPf17DGw/eMmrs+zFe0ursTjbjsr8N6O8uv//j9h28///mPn3759dc/vn398s/Pz///py9fP//j65d//fbjx5/++PmH3z+vf/0v);lineShape=1;strokeColor=#00CCCC;" vertex="1" parent="1">
          <mxGeometry x="72.88934212405252" y="669.6785723864491" width="354.44084879478146" height="286.6545834998409" as="geometry" />
        </mxCell>
        <mxCell id="j0sixRuL5LnDlVz1Tf_z-152" value="" style="shape=stencil(lVjZTiMxEPyavLbs9v3Msv+BRFiiZQkKsMffb40iD+OemUK8QeKK+6yu9iHcvD7evRwP6l7fLuefxz+n+7fHQ/h2UD09Px4vpzf8dQi3h3DzcL4cf1zO78/31/9f7qaT01+/zr+nX/h7xTkpbgKp+3f9oBZp10++X88/nZ4X56Mkcz5IDfvnq8Q8nC9Nit8/71VCHQFJNBNAluhHgBMlHsDl1AZAjhIaAQRpow+piicmaRE/mpS8JOK0NslhAMQojZgUEKUREKokYlJA3uIICOKISSFLGvMAryoDzAbMAO1x2wY0mwdfJbPSc1LH2vNRlJgUVXwZS0NCJOeDxPEClZz2z6dks+DEEQdSkzqGCFkm9mftdTk7jAsqAYSNCHliUU62UqcckKTlbE1Cd0QlgCJ5LDxQQiJJyFWa2kpN5Iap3U1poz1J8xTfy2xOg0opBBAkGMDc4duA2Dl0QQCRhBWkaCoVFMO6DayrY+kh95n4ULMtjcz7uTbRMdNFJZEbmhNvmLuIksQ1L3V0uuITUhoNpZZGQJZMfGit80MH4Ccc6WgA2mhSA3FygPGhZfHMaZT3WK2tdB7cBiCIo9P4iUp6uqVOQjNgHi/bAO0d/EEznMhQG6XYKyqp7zoT7wKgTDYkKwPgtWf1PRPdIhEsTOigPHrduNDADTauoYunPR/UALQTyV6U3NhyaBE24JCHaKLkKFfCAK8WEBggSlkBaDHBB7U+sAGBvJZqo0QbonXeWvSoI7SxqOZFqpnSwBW2XAvvanCpyRyELwtTsnSMOyOjstUMmriK3eDs4J0ArL6r1QKTSSQRqG9LllyEooPiKqxK9MyXAaV2fbQoV2WjPdtJXecNZxsAxTSahNnNaAMAN05qqAM2tDBmo9lPUI5Mk6GDjBaItEfxtSH8NKu0PSHqzEITOlVtA5xdE2Ptg3JbGlfLxtiAPPEBFpvRPu0TDJCkjOIbO1EhPqTYK2dWro0qpgQVOU5q6HsK8KsbXK+u7QVltUD4RIccdKpRTK2vLNvncw/Jx4bCRhyCasR6pCw2xXQ8X/vKtRdS0zxwmPFqcr0IZgDED2EM1KVZ7qcnDlKpCFE2G1CjUx2FHFaFF4mmjH61AYG5CQBfB5OF3EXj3nJvxtXUzySsWMGaAXxi0mr6YHOsZIJqtowBHmRPINjNzQYE8g8k076sqJ477UOvnMXbmGMqoD/yLIYPnbiWkSCV2GpcVprB0xBla/8n+hOtVez5yOjILt7TefL7CHe259mirivZ5mkN+ZW49VTcupW/jrKdW8lzR9/QVrJz2qlJhTo70iDJGBV99e328/P44+Oh+OH09HR9Z15+bx+W8dH1UTrc/gc=);lineShape=1;strokeColor=#00CCCC;" vertex="1" parent="1">
          <mxGeometry x="114.5592533321535" y="867.7595639364952" width="24.858376329664303" height="42.105245468790535" as="geometry" />
        </mxCell>
        <mxCell id="j0sixRuL5LnDlVz1Tf_z-153" value="" style="shape=stencil(lVbLctswDPwaXXdIgs9zmv5HZuLUmjh2xnHz+PtC1cg1KHsnvUkklgQWwBKD3L1tH143Q3Bvp+PhefMxPp62g/wYQhj3281xPOnXIPeD3D0djptfx8Pv/eP8//owWU5fL4f36YTPGecTkptQwX3NK8Ejxb8rP2fAbtxfACQiigU4FH8bkAQxGYAPSPk2oAZ465KDc8S+IDV7AVK5bd9Cb18QA7HPSNWen9GEABp8tBTpCqHIu3OECyIG5EavcMUAUkZgPuU+C7lCGCAgestSQSE0aRrE0lRlOeI6wKN2gIhKAEVjsInTIwrJdDlvn2OIyOQG5SQEy1KEqwSgrFuWkkdggIRma0O0fBMBaHFmW0wRQhq0uFU7CByjNS3b5+KjrFaHYD1yiMw+obTOnvV/83A2Ceogq9SE6PqAaUPXxd8LSiuhVLutWYakLhp1C9BJhpZFZS6VXoa18FhZNEHtRCyiMVVVCbK6rc3TWNoEpQNwlq4DSOJSRbGFNKWSuDS9PbZ5LpTzurKunrdJnMkV3q98qnAsagTrUotUJhO81WFNDFNJfQc6+7CU+1V7h2YD1rrwxJ/Vy5N5t63sU0ImhK78iXnRp+/Fq60mbLzo+RQPYdMCgrXXExrxx6/ekMlFVkH/O1F9A6Af/wa4p3G3m+e/y/1+4NOleViU+z8=);lineShape=1;strokeColor=#00CCCC;" vertex="1" parent="1">
          <mxGeometry x="120.57347302757034" y="892.7803051191574" width="9.425450665114804" height="3.7919989366529427" as="geometry" />
        </mxCell>
        <mxCell id="j0sixRuL5LnDlVz1Tf_z-154" value="" style="shape=stencil(rVjZbhsxDPwavxKSSF3PafofAeI0RtM4cNLr78uFs2uT2p20QN8ch2ORw+Eh7fjm9fHuZb9L4fXtdPy6/3m4f3vc8addSofnx/3p8Kafdny745uH42n/5XT8/nx//vvlbrKcPn07/ph+4dcZVyvFMKFS+P3+DbXzF5/P9k+H5yv70qh2b1+27XOnaO0bFd62l0axGPsYiNs2gAtJtoBEDDxSh2u1AKYetwGxUbAhxEytAkCnYF1KkQIIOg4kpUIJuJQCRTEAjpRA2vT32J7AQgUAOFNoFtAoC0gce2FIpAYSl9XjZAH6EwBQNK8OUKiCTNdI2WpJOjEIuoWZxBmgThZwQqtUrJayEAOWOs+cLIBGHQTdVd5sAIUpZgBQLTlAxy51ahZQhTKSdwgULE0TcQDRlSZbEEpcRD4lipamHuEJbVBf1yAATRojRwuocxGuq69QtKnujRi4lAt1y5IyjSooMxVb1FdMryOU9u6PQJ1Jqm80k1yAwEW8wJWmjgBplvMCKLB/y1DVU+YwoFqaVC0VBS1zL70SU0QzqPi+0ZYaWQf0FQBMXKLmpmKbo9oSk+tM0wkfzF3xgA4KokSSgSXULLUd1+Lz0EEetHEFpyWZq3brBC/vJTPrgEDZlZyuE2CO5rpSo6jPaHv3QXe4POgAkeEE1PCnBah6gKCKyyTJBy3AJR2zIp7WjuSdhhMy7JUTwDUBhr1SXSqD+ApQqwZdHa0BbkxKa7YnaD287x//B1AqBctS0/UEuFTLvBQuAJm3tHVA92rVucvohGUaXI121L1ro2ZjKHhmaQzFulQEJk53MrE1rY0nIlq1VVq16saE1kQdo64Za/NEjUzbfRiWuARY0k3Yu5RgHvTK0e3+o+rqgFa9cvjdOEOW9M4TrFq1BuF8mKW5rPfqI9CezgKrVWaopGFFvHCwYe+ufSlRAf4EL6NYKQFGk8/xdEtEwp73/su1FfKvt1q3189NdksRblLJ3Pa3brluKjBMry56bP1Z6m5rEEarhwD9H58B8KY6PjME6P/UiLw/iB9thOLtM7rpRX/pwTf0tqw2F/uK7Nk/MiS4uWjndxcehkN/tJd5z/hLfzK+CQ/xFrgyj3wWuDGP+arw0WbUQ4Xt4V+ftT621w+XN7SHw9PT+Qnu+v/+zU2/Or/X8e0f);lineShape=1;strokeColor=#00CCCC;" vertex="1" parent="1">
          <mxGeometry x="141.350333469195" y="862.4817444576543" width="21.459938303966958" height="39.51136106065766" as="geometry" />
        </mxCell>
        <mxCell id="j0sixRuL5LnDlVz1Tf_z-155" value="" style="shape=stencil(7VjLctswDPwaXzEkwOc5Tf8jM3EaT9M447ivvy9UDxUBstfppafcbAkrAuBiAXIjN6+Pdy/bDYfX42H/dftzd3983MinDfPu+XF72B3110ZuN3LzsD9svxz235/vT/9f7ibL6de3/Y/pC79OOKHYJhCH36cHnKjK3yefT/ZPu+eFfQwUuwUwcQOASlkMILbx5CxAXWrJAoQkAECnagGdUrpsL5myjTkTV2BffchCqQP7RinaFFHKl+1TIKk2YMoM7Jm6jTdQBTuQMvXm7LkA+z7S/WYfQP4zD8a8075QyN4f4H/uFKqzb+D7JVJhn0+Q/yLj9WK/gD9FK8TaCyR0yRStfaKC/NHvW/8zVbBfpRFbvsVIDRC6KuGsQ7FTiwDAqwxV6oCitVKyFNKiExBD4/F6zpGyHCSpCRVLilRHGs4DEmWbpZwGry4Bmo2hhLGR5wGZgl2h4I1TANuN1p1pgEkKSA6gWoZiaF7em2oFqJ0eh1TNgAzFtFcqdoXOY+/PA7pX366CD8pNAU7ueob12ZvXI3UyoBiKFxj9hKAVtOU5lzoENM3SCoAKSOuhlhUAkK/qTgcPSEgEkleljvtyjSSrtDKIoajHDpAHWS7pUrCNtmuJIkAcsrUgH6oHDbq7LM1RnQf0wZwZECD5VJdq94AI6kFLtGQPYMRWHdnEAxqYR5Tefj6K1EGWlDnRpVXGiHJhKJw7/mLnEF37asZQLzPWGc/vioMQPwXomgGkqXVi8QA0Z2iDEKtkizxcYlPufokCfKrZt0UtUrTX2qkj+zTBmjsLACvotOR6UMN51XFMbNCauAq2Otcxzi6aVgBCowBXEVfaogKclF1pvHl1iLnS2vOcxOXwALI0BW1lQMcTJAMKYLtCahRQDDKGwhkQYVvU77lOLQJdSsnX6HSYRCeN6FUgliHQl45WxdUDHKXPHd0y/v7H0e3j6Pb/jm7aVy0fKtRSzX9xBROxDilBXULn2493MlTPhoxuO3QYtxRiPLRx8VOeBo2KMmrRuxVwY1YRyVYlJMApL65mYQWgJqhZX6/QgDQ2PwqrfUVN0zdZtUdE1QCqt4eb4HWC8WkheFZwg9eE2uxsfqYLA3A6X82PjI9sYXg72xfYXlf7pYWZgD//ei163V5/vN3BPuyenk5XuMv3/s5WH53ue+X2Dw==);lineShape=1;strokeColor=#00CCCC;" vertex="1" parent="1">
          <mxGeometry x="169.50519490319425" y="858.8586725545063" width="13.708796921113516" height="41.75356967424893" as="geometry" />
        </mxCell>
        <mxCell id="j0sixRuL5LnDlVz1Tf_z-156" value="" style="shape=stencil(lVfLctswDPwaXTEgQfBxTtP/yEycWlPXzjhum/x9oWqkGrS1md4UBSsCWOwSHuThbf/0uhsiv13Op++73+PzZT/IlyHG8bjfnceLPQ3yOMjDy+m8+3Y+/Tw+z3+/Pk2R09OP06/pC+8zLlOLEyjyx/xCA9X6983XOf4wHq/ig5IEB0iVWLYBMRFnB5BG3LYBoqQeYEnGvA1IhWLyAKEGAGpFNw+IVNM2IGcq6gBBqPI2oGRScYBGBRxQhcRntLb5frx9v/qEiON2fGNi3yJ7UUC8UPL5R1IUn0mKi68UFcTX5XNr/lYRKsD611H2KaD5OZVCAYydpdQpweYqoRNyf4LNVQAkt0SBHSBHSgjAVDzLWSmDttbSi9MA6ISaFu2uAJM/UHMNJL4GVYpgUkuj1PlFhqNRbDS81swQGjqhLlJcR0OhX1Sm0KlZIdPVaPKOVJai7sfb5/x0R+h4tS6We6VO4C4tknjWjBVQcNM+/7zYwf34Qs27hdmdgqkwsakn2RyYQUaB1wpXloUyPqJzmJSw2gpl31SVhZatLoVOPEwZt/UOAI12WSZ/nSOFROdC6rtkcioAoKVv66RwUPTkcR3AmAP3v+TlIlsBgRQMt2mFvXO3QA10KZiJeSM2KgXUYOrxkzF5PyjBfLu7exjrzXjuEqqUgV/cXJ42KQ3Ex540EzhSD/c3lfl+BA3ifj8yyirwrxtt2jrDMD76fArDO4Gp+onICW5HoSdMG+zn7TKV4Yqqi0SunEKQLP9zZ/483h7+Legv4+Ew7/fX/+8Xens1/xiQxz8=);lineShape=1;strokeColor=#00CCCC;" vertex="1" parent="1">
          <mxGeometry x="171.58166130885252" y="894.5476299135594" width="18.83959206663882" height="6.136356964830627" as="geometry" />
        </mxCell>
        <mxCell id="j0sixRuL5LnDlVz1Tf_z-157" value="" style="shape=stencil(lVjLUhwxDPyavar8tnUmyX9QBYStEKCAvP4+PdnysNLMNpXbMrhtS2pJLR/y1ev99fPtIYXXt5enb7e/jjdv94f86ZDS8fH+9uX4hl+H/PmQr+6eXm6/vjz9eLw5/f18vaxcfn1/+rns8PuECxLDAkrhz+mDNtH278uX0/qH4+PZ+iip2/VJer+8Hv9Vs34MyWR9ER12fZJC7jMkNLO+V4mJ3D9KSAbQmoxCAEVSNYDapWYC6BKti8qQWglApTpAkBaJT5O3IWdJxAZ4NVgbUpPColalFAsIMojRqUvIBhCrdGI0Atct8RCZFi4DcpRomVHnDvvrs6g1IUolTs3qmRckkP1Lm/atLpJGiFeDqCOeKPFoBY9t5sQsjWRCxX7RApBqxALwWG3upCyFxKyqDzKiWAjvABg2BohKJ05qYJkNQkbukBNakmy9VNL08z6gSLRXKl2SEkCTar1U46w5u4CeZgE6KxgsFXqX7JhR6AkjeKq2IYMYPapkGzhcMhCjxybSHW4YlwHoAskClrpNjNbqG8lokogNqlIsvTXSzhDDmsBnvUpJQuCIYQOhhTYrhdst+2BWJ0mtCLUzgnefxU2Wrtjig0D4K3UZzIYgNXlAIye8N/AzQCBGI7Ctey8pY1+Vqj4OjdgAgOvRioZIij0AzWYQyMRyFDYMd0LgumTMFr7yW2nLxX7DshVb0MBl3yAA6JxLdXMlVgUWqhUPGIx86nWGrnLrYsa5SKeZ5pcA6riU5xaXAMlFutKuCKN1o4iZcFjIvMmHzLyEPr5NUealOG98BugflO/qAazJjY1mhdGs8iGBxianIysCuwDCVjS55OjdadVY2qg1eiBDWN+tU8evTW7MLN8HbCRoL5RLrUuxgWs6s3wfkL3+gRSgkmxs1EmnDQWysrhxBpKM0LuusnYVTErVCYSuG/lKoSoR+znBBC1eyQlQbE5K5yKVa3UnmJLOrrcP2PQHjFCs3Bf0GxuH2CQSwDJuWBtimE1s/4Tk86HSQOMApxw+OCCjLhZvAptQlqHTpjRGLEYljHDuhLTm7P6QCKa5+aHQlMZM5UfpSGsxwurnB51f9gHRsxspSGUobLBdF1VhEC/B6045dF6LI6YF92aClGZXihupofQRR+fsf9Z0lakl/z4BoRxYYfVvAVjPZuk+U2tdr/TRp/nXDKxnTzhb/an09QPqdLM/a1XrIP+emvyxIc28Or8Qo8QmYEofV6Jn0CKbCEeDV5IIGJvrgx+6sZ5Vx+3k1mlH+N9XzI/X48f7k+nd8eHh9OJ6/n//xIpPp+fZ/Pkv);lineShape=1;strokeColor=#009900;" vertex="1" parent="1">
          <mxGeometry x="49.91827484530859" y="255.11398869469963" width="26.64714189224971" height="43.1007717423701" as="geometry" />
        </mxCell>
        <mxCell id="j0sixRuL5LnDlVz1Tf_z-158" value="" style="shape=stencil(lVbLctswDPwaXXdIgs9zmv5HZuLUnrp2xnFff1+oGiWCGK2TmywvRAC7WHCQu5f9w/NuCO7lejl/3/0+PF73g3wZQjic9rvL4apPg9wPcvd0vuy+Xc4/T4/T7+eHETk+/Tj/Gr/wZ4rzDqmOUcH9nd40OPn/4uuEPx5OC3wQeDH4CknbeCmIzeAzfNjGp4Bm8YKYt/G5IHuD9whlG18LnMU7OLeNbx4+G3xAJvm3iGr7qR0O7ICCYgO0ghZJQEOKtkMZmVDm3WuJc4R2uXh6hFuRVpFYQEYLVhUBQmhoMifwKruASqquDdXW0Coqqbom5FVAo0VXv+5rS5C6HVAqnJVGzRBCdUlzE+eAouImKZUIXyxxeiZLqQuIKqZPpaTzmQhxfdFekBtva7Ip0QHqedP5Yd9XYawNwN9QnpVqmSd8U9rW8LxaDp9PbwsQbQHh4J35jAXC53Ml1SwQ0qTRZKwuRh5Zlzobe+vzB31Sz2QpjUZsi1704YPWfSuiXw5qGoWYRr99lP5EyO7Xm+qrkgnt96d2LpMF+s6Cdmhsw837e8FcIRmleXksXIxtUFk7RnXIZID8ej7V9Nj33ZqzHJEIZ/1yi3R/9sOWZkvbysf6hSREkn9Xrzoq01zXT98gTKNrvtSA2fc7PYwXEmLAn70R3sbrw9v18+lwPE631+X/6+uqvpquunL/Dw==);lineShape=1;strokeColor=#009900;" vertex="1" parent="1">
          <mxGeometry x="51.563882909130825" y="279.42537823652174" width="14.222414478313583" height="3.7009676648875907" as="geometry" />
        </mxCell>
        <mxCell id="j0sixRuL5LnDlVz1Tf_z-159" value="" style="shape=stencil(lVjZbhsxDPwavxKSqIN6TtP/CBCnMZrGQZJef9/ZGtpaXHvQvDm7OxGP4ZDUTm/eHu9e9rsU3t5fj1/3Pw/37487/bRL6fD8uH89vOPXTm93evNwfN1/eT1+f74//f1yt3y5/Pp2/LH8h18nXI2idUGl8Pv0JDax9vfJ5xPg6fB8BigmrcyALBoIIIm5E4IUckIukrsHWLwO0CK1zYBETUptY1KRYgSQZHl3DugS9DogmtTZh6RSiUkAxDgDTDqJUqzSdAJolkpMgg/VAZBK4rSGEcQByFkCy0OTNPuQG00cMm2zSSVKzoRLVfJ8QikSiA91TdMK6NKISQaq5QlQlfpg5rlUYSQxqTcJM1tblFBJpkOQMCeiNYkE0U3CXKOWKPu6SplPsEZrFK/DHKYepZDM2erjCsiSCV1bGuRcAW0U4eVUgwndAzqJEsjUnA9GuQG69pl9Z6m5XHOo6uZtaiSuqYyiXwFgEzsBUWw+rixz0CFH8J6G3l47Ic4l1MPoGdd80BmAGskkc5BjneNqdRTVZUAXc/wu48llZUpejq1Qp9FSSt6cQOgKLXXsW3wgTuewAZgoa4vRR6kH2uUAqNtMM5OiF8uFS0zwu5Q5D2Crsjw0P20s9UBkY+lprqiN6ozGodZngMq55J1G0bKKq76PwulOooQCMqdkhSoZSrS7xKlEVqIAOJN4S1lMcvTm8wycLrMP6ADKfMD04kq0SiQAJM7NM1Z4pkGN6AGVAdA/NiXK6uHDgIwoJQ9gw0NRacn7wGYyjOtu1LU8yHK5jQbpyQMYNTBaBJfpOMJwGdA30wmkkgCq+b6LXs+m75r87ACvWFPEUOjygDMT6+zZz2Q10yEODcVtQTVIY6qRvBhj/Ahsvi++sWM2boR8NoK+Dt+VpkHHILJ+n6gEbIZQrUP9r3zvenTi01XaLEBpUPdyzoacnC2uTCQ3rItROvkeC5ar/iaZaapuFjLphBGL4DmDREkl581mEmifyt13Qj6rYrFXc9+z+GDNSXNVFhof1Gzc3AOwCoAqZHfTgBCzE5LvORF9jrjcdETw7B6A5QwnuCID6VhQAXCzMBZ9VmXYBXP1gM4AYfThs6sJ1gYhhd1dTSAzDIBVUD1AmV5XvxwmvjFAbMvGJEYN7OTJvNNsWEALiebD2hi7P3ov9h8A/Ph3DfdweHo63eKdv/fXdnh0uvLT2z8=);lineShape=1;strokeColor=#009900;" vertex="1" parent="1">
          <mxGeometry x="75.43628679891776" y="254.0208906254718" width="24.293704490986283" height="32.79552575836016" as="geometry" />
        </mxCell>
        <mxCell id="j0sixRuL5LnDlVz1Tf_z-160" value="" style="shape=stencil(lVjZctswDPwav2JIgudzmv5HZuI0nrp2xkl6/H1X9VA1IWkzeZNlQLh2QYA7vXt9fnjZ74J7fbucv+9/HR7fnnf6ZRfC4fS8vxze8LTT+53ePZ0v+2+X8/vp8fr75WGSnJ5+nH9OX/h91VPxeVIK7s/1RZJc/r34ehU/Hk434lW0DOIqMWyL+yzZD/JenG7Lw3oLg7yTQNxRlaZG3rlt+aiS0iAfxJPvJ3xu9L9IbEReJY/++CiuEgWku40KTQKJIFWJcYyg0BDyIgTlLkEhjjmKQRq3EMcYkLbCstRsFRAVLUPpoOwKOUqKtA6hjnULEknQsUgZXSqwyRS8NDcoVE+Zo6kncVbIEgh3oBBGC6WJZqKAtDZrQUkMsJBGtrVA6QzkJBM03niapao2Sy0RhbpIa5BKLIBA0SioVIbW+Xs3MXhiofgVhUQoWp2lKOrgSOGaXylcIPBuUcJCIZMYWpZisgR4kzq0KsmgtXVKrSs0KWOWEJWSLHk3t+pZQymYYMKUus3dc12hSBu7AN4kppCkjnmFTXZewWNNVqGyyjnJwSo0gg3UqS1cUlK5mqSM6EMtPYMrjgNjAW2DdAEQLIyknvBICjcpGJd8r8yWS37MEtDHSD0FPVa6Vkpq/O3GwoFBlXHU9ePglqOMEJiMvFWIpA4AXzMuFd4FEEOwQbMzayKQAZ+jfFjjaJBCCgETZp4BNlipp0ZjsFHoCAdwZkO5yntfXMC18d6HdmyGOMfHykkjfkoDlNBonWqk0xS16EDYjbA0Y3zINrGVWEh54RLOCEKJCMCalv/BvNHEm36c+ti1ruB7I7rt+IQSIVpaA6/MJewvzgwoiU5lASEagDsKP2w82VkLrHBwycwbGEVpWt1idvX0TNHc6zqP05W2JiwAfnQpK9+zom1+ac7bFpYMWrFDVDYoJvFmS1G6KsKlMlpAGtgRMe2KY+GQ6MD44O3yBziyPQh8MEH7QrEEj00D9xhOGbyrFLUKjqQVaDWLk3d9Il8/IrQTclYI/VjaukEwNwLgLKlbsScQ5COJINkBC/KJVc3OJtP3ScChU2uWV3rALTYgyLPpytkbDeQzEv/dIp+e5mdxoqPASlqqsw2y0VnP2fZY+yi3kR03ZrOIZ/dD1vncF6F1vnzucutDcTz8v0d7OhyP12u42//tvRteXe/s9P4v);lineShape=1;strokeColor=#009900;" vertex="1" parent="1">
          <mxGeometry x="102.59427291159591" y="254.63930401483776" width="26.323071824624627" height="32.306147445816386" as="geometry" />
        </mxCell>
        <mxCell id="j0sixRuL5LnDlVz1Tf_z-161" value="" style="shape=stencil(lZ3b0hw3coSfhrcTjTNwvfa+hyJELRUriwqK68PbGzCje/7J7Plg3emAnL8bDaCqsrIKn9Lf/vzy0x+fP8Xjz+/fvv7z83/9+vP3L5/Sv32K8dffv3z+9uv3+U+f0r9/Sn/75eu3z//49vVfv//849//+GmNXP/0H1//c/3Cf//AhfZoZaHi8T8//kuZ/6X933/5+w/Ab7/+/groTQEpMCC9AuqjVASUooCD/8IhgPIoHQD1EYYCIr10OV/xAuTHKADIj1wUUA8AJPsO+ZEYcPRXQHoMeun4SFUBld4hPGpUQKJZOmxpXA/5DhDzKyA+en4PGPZEEWe1P7qNj7CS+rkKrvHh0WCpzpWadHyK78fX8wtd44/zs78ZX2x8gAmd6/r1+fN45PF+fHm0132Q54zB/JRHjjo+JBovGzPPGYP5yY92vI6v5+HxZnyS5y+4LfPjsPG0HuamfP2+OeP3TY/8up7z3DHwPOn869f4uZ7hfeNjyO+Hx4Dnj+cG/zA+w36Jtn7mlqaj+tGijo+wf6/dcY5P4zzrb8cf+r5prk9Y/8dpWD6Mj/C+x/l1rvHtUeH5D7Ubae5oWA/H40g6PsB8zvGv6z/NHQffd46X+cm4fo7zr38Yf+DzJPn9dJ4A7+b/9bxKcwWCxTjO0/4aH84T+836Ca/7JR2b8bLepgXpZFQf+fX5lwUhE3m+3TW+PQact+H8tQ/jab/M/fi6HuYJn+D3p3WT5y/ozM3xQ8cfMJ/xkV/XzzxRIz5Pef1e88SrsN7uxh94Xun4iOfzHC/zGdAFmqtXfv9ycd6Mb13HB/z98bp+wjj9xnfjX38/9EfD838MHX/gemuv7ztd64TfS+zd9Kwzjhc3ejrW5F/N9Vl1PK/P+Lq/lh/OzyO/n9C++Pyk84R8Y9/FvoRrhbwZL6HSctph/efTul3jA/qTWf3hOT7Aei56Hk6PvcJ6q+fX+TA+or9aX39/YAjTdLkNPE366Ss/h1OQ1/Vw7vgw03PJMpweZs5ETjIew+Zpu17Ht114F7KMrzx+HDKeTPtc6bnJ+ECmztZmxaU/x7cq4zO4Misk198P5HpWtaXz6OHxshwKmt7FWryutvwY9Pxdnz8zK9JPT/M5HimLuTfEV8XnufH1zh+4Hx/Mtz2N67vxXXy3R6TniWfk+hx/0Pik6y2ewe39+MvzfY4v9PtZ9wsfzXO5yPxH5EKey/06O9kUNY1lwxms3o/vGosH3F/rOBTfBPfXOotf1z+7StNzF9/twPNzRgbCCl4/cD8+npHTc3wi0zvXT5TxSA0kXQ8Hrs9k3MaBru2M/MrQ56H5MU7zQOpnRa5N55PGN+WKDgyVZ+SdbT3Q+w6N7Q6kouZ44QZ4fD78+Sm0W0yJ+IboOudpf8X3OV/ofvx1/D3HJ6K63Nc7J/h+fFHvJyDVMsd3PU9oPy5mTp+H7Gluak8Dhqa5KyG+GT/8exF1VczeRUwyFGPDI1KxxWNlDE1Lslgc/bGSdb+w/ZrjJbaI6MoXWw8R538ldXQ+yX6VZlwanp+lq727Dux345v6G5S8KEP924Q5pOrcIVJRNeh6y3g+1Oj+IYWaNWnsm88Pcj8+qz+cTzL33Xjx3zKen7XofBa0d7VaegqppdqU+ywY78zxwoXX88C+H9/1+Sv6G3Vo/FXR/6lmvy6DfB/7Hvr8V9bzfnw4meDn+Ejjo/pXDf2lZv5SQ+qqTX9b40ei3uZ4sdcN/YdWzkzgM76m86RV5YY7z09VLq2j/9zMX+roL7WLPvhAP8B6a0O/18Dn74eu54HneQ+am1pcDv2Byz5/AJBH2aN+gZVAhiU3AeqicLq1J83nhoBO4gQowReRAO1ZM9iLV2GApAwWsULTWtTOL2aF3qEYKZvPeXsHENY6FMzS9qpbeZEr9EhV87QTQLzvBEiwtIho2G29KRsRODM9Acmo90BSgma5ngNzZ73pgRE3y7ubBxiQMutmojY+3QRoPiMhP7sA8hcynqoT0CxDRGZ5ApRWKejH9qF2f7HItIGGEUMNk5IToJFBR1ewm+s4z1ZK+0+A2KoN8T0BYkzSgdM6DmV7Emf+x6HuY4qnw/0OoPwcL74JUEKSk8kTIEtjZavpHYK9dEYOcwLEPqSCpPwElKgASvhOgH64iofAiCYBaOhnDIsTNpqHCdAk/UBmY1yB3AcAhQojWehynDbpHUBOjczkycgqZJgASoQO0+PliCffsHRE5tTdKPrhNtqfCZDk5gQMmiXLxmUO8SZAvJlckEOcANlxixUiQD3T2xegogBlAsTG5c3yrvbhOvLuEyB+cR6ouZkAcbwnAL90VdXT4pLAoCyAyQQpF3ALIBfuBhCRvVsAiZ45k30DyJiKXwATtBJBOAEq1izoGQ9XU1Y++ZpStIXlhaOpUSwN9aYLICTGZrWaGzoBuOOapk3K4B1necnFXPEjyZeulyF+CxCmJGAq8AYQMbd0CyCy7QaQMBtyA8iojJgApW8yG/Z+0ssXoPAsXQHMBah8anRdfLUiRTe6phxrQ0d3AsT9qRtf4w6Aa8lY/zr41Oj64dqBeZEx1E43JhEW4PUdWsTAbwJE5TQBlf+CyNJaQtZhmPakcXJ/AmRa25WOfAuQaS3swg2Tk7DUdQw9vRfDxo8k8XTbrFYH9E39gulv20CS9R5BafgbxGLmyHW1mV3U3OZjNwVgVcVQP7FzLmmtv9ct0RPqHBcgKIDY3LWHRC2VMX25dunrcuoF6crhcq+C3ODoakh75ZC6a0ZgsVQb2x4VgFF+UxPRO3+HqkmBzgLSUYz1HnxaFo3MJgCPJgvlFrNAs5RuAFT0MaJmblfczwCRBq24n5yBYMLEwGfZob7u4Gyy0zMTgLSxyb8mgA4mp/pWGM9korAtg8Xdvam7MZjPWSxwUwCy8abxG0wAdQupVxhPL5311JgAiptWgqAqAOnKpFt0cE3TBOh3qGgfuqm2V8wMe7qbdG+wYzkBkttfgRFN62HJrIZqyGllRb20HHJKDw5N1y93mfJrXaP8cdHt7wBy3A8+W5ud3k8jdg+oakUHH8bTZ5N6qDEwfp1eYWkKwAJIU8FNAIXUE6Ci7IHURjMd32CDshLfwwCcKT/spTepeLUPTN/PGEbrGA5W/80wKflLwFvXponIwYHTjA2LrT6KUma42uxTU6S1AmKbV5JQ17vFRCfZBBy2NihpsXgG+XId07Wu2hlcIVutRHB0zDYt3dFhABJmdTMQnJ4qVuK/ALD4ittd1joUqyNeAFhL5dLG/3//gqmVFgCWdzE51ALAKeB6vQUgAWFQAeTGQEyAnvcdY5pyu5ZIw2lB0AKQSNREdQsAGygbX7mMHFUoVTNBbBVXBbebUVhLOd8B6KWzKls2ezqnmy1KAXWOmt8dXEeag8UDm78QbpwNAiR3mPiRlh7bNhAK+k2NsPsLpsgbHZ2NVDXlvDYQadZvzyV6pHLz0pGqBrJZ0Y6ywmQlfhvHNXm423iWrKhxME+2lAHmfJOdTlbmPTZlzMN86cbFMN1Wa0UfbhXTWRBEfmhsdghUrv+pqsMaLHpaOhYLFWk/RF9LBRdf9FAxo6/xlHB/CNkp5bw060kBlEdZRQMyS6wKmYBoPAUujaB0/Iac8aYE4+Ci70MfqQ8Ueawi76QAbLNxGFnJ4tBoEcdiX/ilxV/qLKB7Vhd9ZDf5kSRp8SRT3gHEX1qULlcMivuzuBF6JFPn9IRszioRkQ8XuZ9BtC8duGDfuJbOZUfPqsUPAKrzjK7DHnjcr6Y2ktph1yGav/SkOt4BsmVqyDNepQSWPMJixmKPVPgdyk0CDO1D1S3auPVPNI1r44KQpd+Xl45IOyyBvQGIe4xXM5sLwILSJbHvCsB+EZajblzwv+z062qtA4m+2NU5qdwCaGk1kwJI9LQAkslnfegtgFiHm0diwvXmpQsXb3dlfyaAqvPXl35drTUj2//sDnABWN4WTf9TNwXWJj6rm9VaVM5TNyXKWT2yyjXHT7HzB8CmCF2WRhls48wjK6xWi8Zglc7OSVBKd1XGsTej/Ro7ygyfPW4+ACgLGUwgsWRV3CtBastXz0nYQKErpTsBpFYLzarVKh4Codq0VkwqToBEKIUL0G6bVGJHCYtQSkGq5RZAdvq+b+Zfe+mCKfCbad200XDVYEaaIjTrm8nCrdDUZK1H4r8gbmgp/KWNCJkAXN5NBRulIJMYmm2ggofAegdb3pSwCE3dn1JRQDcBepBVdB1CVftQKs9StWnd/gWxcbt3qNa/dDNLVf2l3XfwrjWbL11tWjdryRTZu9VqLNxuP7g4ebPjrNRyv6f1O2xOjb8McIPCef9g5eelILMeLEe4W0tDmydulvdqCGIbCN0fS1gUrjn2eHoCkC6KN4YdG8IlzcdNABKDydZS575D2U5vJplXYyB5B07jx6LMSRnskdUbNxQ5AevNsSTc7N1LIdRKfJLfatXNldtzeGvlygU4sVu9/qah01BOYEYolNaJQ+nTmlGUuIr0TMKNVLxpPXeBn0lWd6GlqWhX8LoBiEi8c4vHoYqnOpj3tkZQdWCGI1r5ZNuEZfal26atcdcUYYscHluh7OJm6MM5EZK4k7M5WC1jyvyGLiqoZo6mFlotDxggcdxSKBGgqAVqnMvyk2+prDZN14SQGrvDODt9yiG+EuUH6pEWfSqMLjdiWiZLyH7Wek6AdOGeAOrq6W3Be+LTO5oMOHFfW2sU3PMuD6S6YW7nEoPWW/bKOUXjNXpjrjLY0mg8rUHPpd55Tztg7N5BlMl9cHYg6Om9cll0akQNaVa2jDN+mnnlDhgxWRY/YfwQsz1SYsNetIB/IwOOFmUN7oARXYnJ3v3qLWO6YZLBTJOlssfCZL+1B9qkm6evobldJqRSsOa7bB+S6+i5JVKy6xAGBxzJlTmVmwBaU85RkQ1NZoFWDQXNklUHj4a+Rmrag30B6KWtEezgItMbZU7DxXej/WmswXKl2hagCnF+pGzdpgaXumTrKTD4qobsikGWlOdiQmMuTc9VQ5rN0sjWsnUBaFqN5xvcpDn3m2lFgFUSbt6hWNuPwVT8uhHHZikSwBppLgA9UrSaDK42WPceuX6JAPnm1MB3KHcvTfrWqimRwe3aSlOvcn0HmqV+80io0R13G4gBw95h00LRAXgdkvUAHo2bEFqLscEXdFTzvZeej4T6+UZyS2tpAsQzHtwIvhZNyg8uY62Wed0omWu/EVeTQmoVcbtykwsgXOpJ4ohm6qKNvnVVfbgglspErG/OAlBtjNdZsTB5CUb+klC/WUeYjci9eb1bx4BjyWpM+oxdJF2j2zBib13bGq9DYFOYZRaIUrXtzjPGfl5eXMaJI299ODjz2oOqKUZBX2OV4Fk4QGzoErI1BWDtZDK/NaMLtwoViwLIOenZzqWMmsRerHwtcUlqNU+AO4bdFIwm5AS8C+CqkuUugFq4smkQaR0wRkALtPrbWfEx1rAajb3KkbkRm+TjBt/yNoIdlQd6AsPuuRp8b+GwIr8+uGWB0RR98CMlK/cfuFpH1sKVznmgVfmeFYDl/sXYn8b9vKqpgBvqW71TVa+YOPIOSZ2zlqNpsUEv3IGg6bUGqyMqfbimAo/O95w+6yk+sqHc2EHSaz1yr4muAXgPWEX4dAk/ALBjmJV/TiOGXZ66aUPH7pEcQBboBtC5F5YD2q5DkipoOaQZVvSxkQ0Pc06eHtTbL/26+NqmJ5kDMncVaXqtzwRQamoBJK2TsFpnNFNjR27faEZxNTziU0MBfLfMaBplNb4cZAGCAvCRTEJSB3cVqVqsXLkScgFMBYytQKse95Uvzr4B1N0jqUa37mZJTu/VtZ+bK4oAsPItAMOo+F1fNQdsOrc5YNMb7g6A3eccEJD3djtd+S6kYSH+KiOndzDA8/qKt76GyWDwwxWNp58XcLwFuPZn087U9EvYjbEo5bUETzxLLlfF3nBW/rnrWWndjnZdMR2w6btZ9KjcdfZ0wKZ36B1g86UVcPBxX5Qjy2PXrVfSnHnwtFoeKPNtDisYlkfatNrK1iW2setg1ZyZC0yH0UWZU4Src5YB0KBYf42cMYeyGjq9GpTVoph7c+mF7JvlnfSozKx1WPF5VgA1+p8AydLkwEelKRHyptf63a3meNwH6/E9OFI8NGGROqopxqFHZWrcwezQHPu6H454DdORJdZrdKsBTxuObOgGSpveXEPdn8SSqqc64wIkZB0mQLz7dWsgAboSgyuJTp2zujXJ59CyWzFaYuVm75qfTnxR4GopKFc68PLu3W5o4JqmbjHQ5m7cbt1612VFNK3WBDmyOKJbOUPk1undFLSRr57uTet2n4W57wDinCyhGH24pt2RnneqvqNPRTYcuav+KhG3O1HwipOqHFngVlurJ2dUAN66UrR0MrDeu5vPt4pl/lILwFD58g67eyBwn/Ke1cEKzMJ1M+wTgJfZJG1QEzKGNKu/qwD4pvQeNXEUEt4n1qOeS88bqu8BwS6o5Rt5u9HYIfBBdqjPFzjw64fdQsSN/tu4uQKLeL7WlZUO3M292VEZuIS1WVf9gQTWHK/JMuRzm90LyE3h/B64gamEdc+c3otGibKWlLza5o1VqIreYbuuIX2OxySwtYbtSMnM8UKNcceiakuOW7hXp3Fx49dmonAk06vVAbLofHFgUoTB0gNTtbPKcXXlFyKQWwpmTWgUNOM16bFVuO1i8nsuiYGu0SrVeD3YPe5sOlYFvN5jive8DotSMcO6CsAkMmdBmpWFMn/+LNN+jsd7f+0e7sT3Cmfz4Pl9k8oZuMlNMYVSwjCqmF1NaMNK0C7NiTszHhqQ8z272dLVCR3r3JXJT7g+s3UYSciBZ9PrJjTZufr8k4JmXbkkPjK23MpZU+GRWwcmTe9ErEnL1h4uYhovW1FD5HvHzWnilkp+j3tEfz1Zj8vN+K6sQER9Xmp2fSYryqu50hjRpKIKksBdEouW3gRWh9v5EzA0TtbjJCBjl5IqVfmyn2S1RgHDqxRu7n2n73v4vfJYQjMsyOVqXbNfmxZhXdcPB93RmQbuelPVPm4qE+2y1k15TtHvy+e510tvCh+tfm7bgnCoP4AFfeZv8wWk8dD4goV13lmPiaFV16+/T/s32Pqpu841Tf1h8pdCtVwjrrdg8R33AAjF4wUiYYPRKQ3VCSGp9rhzj45kN8mgOi5YlRPHd8G1bty2wfztgbxI8Js/sFpu3BAEFC/fEQqU8mza4iHwVZ3NGL+A71v1OJnjsY+9kpyBq2utK2tg/8dyyGHjf9r8JMy8ZA2nQkay3PoHB77ixMLNUND/zzd3e6M/b1escwWe9WALLCi38HodkPz7QiMO5Deytn1fvVZxfsQ8Rr7l3upDVpUwnG8+Pm7Wm3yvjf+QNeG64juKF/S42sTXSc3psqfkT6q7Fws+f9L1s04MHC+kb2xor5Om+GLjzqKaB42bVr7mfg7cj+Y+r+7b5F9Z+B42z6OJX76sMKjwenOLt92SkDL621YSn7hRazB6hiVsQcO1VFH9dXuBN/k/Ks/c3N/t89/R34tKTya+gMF6Q8wAmgoWktYgLTED7i9J62cWA2XdX3M82wtZz5kbDWWTrETMJWelq+d4eh5rOpoTrgcrOM8Z/VtT9mWWSViNTGZRXNX9krltRtX9ntk/b1rOlTvnd+yOcr5y08QFma+06kqnrVtVSLJh/cIOLsq4uaobz5NDZS2FO3I8/eUPAOyGF9XlLhFdyumhih6pMGcRzGivGmx6ByM1nzT2uyhS3JTCbkoo2oFgAjZxrTboyxjIrJaY1sYQLY01ZS7chuSmzS3rVYP1tVo9A7nzrk5rxdM0dHVvSkN3N3T7Dh3Pl2A3Pu+6B9tFlYW1nhPgHZDpLoRg7bcXgL+DtojlpO0EqDJ5C9APt7nLuClNUlhTFZryGGtaybGzRF3hq2+CXSxfOoZaoalvURpvILvprDRe3nvA/Ic/fvr+5ce//PLrb7/9+f3b139+/vj/f/n67fM/vn391+8/X//pzy8//fF5/tv/Ag==);lineShape=1;strokeColor=#9999FF;" vertex="1" parent="1">
          <mxGeometry x="399.84677730770113" y="504.2133774587087" width="276.12781748121114" height="305.76777821212687" as="geometry" />
        </mxCell>
        <mxCell id="j0sixRuL5LnDlVz1Tf_z-162" value="" style="shape=stencil(lVjLctswDPwaXzF8gzyn6X9kJk7jqWtnnKSPv++qLlURsraTmy0BJLFYAEvt4t3r88PLfhfc69vl/HX/4/D49ryLn3YhHE7P+8vhDb928X4X757Ol/2Xy/n99Hj9//IwWU6/vp2/Tyv8vPo5yXVyCu7X9UGLksufJ5+v9sfDaWGfpLbBvhZxbdu+iRvX1yYxbtv7IMWPDkE82cAX8WVwKEmS33aYQg6DQ870SIg5jjGnLMp2qDboWCS5bYfopaTBIagUcqSII40oIaqQiEOR6AYHn8SxPDtx4w5ZAgkhFZs3LEDsc+qYzxFIImnOtbNg5oWEum1fvOgIqY9SmAOYbSD1ksmJiq4iaB3kmw4K4uUVLQiPNFtMU5IWth2q6+vNSUMtkKArMBlpUXjaKkLU0aH0crpd/37VAIJUJQ5VwggrDunYDk3SCGsFSoTa3s0xzh5Kewy2MNwADgxXBNFGh8bJ1LQ3iEUfZmRqWdLYxVrqT247RFtAcKgEpuakJeuQSY+p66Aj5QZQN00JKFWCUl11MeShsiNlaWZcKR1v2MHAiiVYHqb1RpQqTxxObPmNVsUKwks0R3K8gqKd6XBgrQ9c0maPxKYJ2KomD4HXQxNvYkgSWAxNmtkBmSETcXIYZQDoqLxtBFMPjjZXBG12aEGUBV1s0Cggz0t0XXHKuobveV06EJRAPsPWaU/moD3ERdBsTn/cAULAtG+lUxFk9qaAMFEIrKpWsyoyQ8iHuevHGAraPakHRbmMmS6RKsS1doAGZYkrQcKIEgRXJuTLaukdtY/uLUGWR4cwd6rbDsjrKAUC794JJTrC6rNUpimrRMNWWqFQR9mIXOUiN/TXcwiRqsqI64yRcI52mZgljzMRS/zl+9ZVwHQZoFBIDLhshBEkSOVGYsB1xrIb2pocCUo+GQlXOhu3rmTJzMREd/ArdqMXs6ahXbnM9tq1x4a9wQgCjZablZSt8eKxV8pJMTJmW/uFJr1NC8vsad6xnEmO1r6wDPS3C3tPAJpH5QJQdsN1Es1U0H7CDXs39hYM00zOv1L0LVPp6foAWGpbev6PfSb5vz1+/Psm83Q4Hq+fdJbv7TccPLp+/4n3vwE=);lineShape=1;strokeColor=#9999FF;" vertex="1" parent="1">
          <mxGeometry x="504.2310019117185" y="824.2667627200251" width="29.637560478574006" height="29.293829001623855" as="geometry" />
        </mxCell>
        <mxCell id="j0sixRuL5LnDlVz1Tf_z-163" value="" style="shape=stencil(lVbJbhsxDP2auRLiou2cpv8RIE49qGsHjtPl78vpQFNTthjkJo/5xOWRfJr44W3/9LqbKLxdzqfvu1/z82U/8ZeJaD7ud+f5oqeJHyd+eDmdd9/Op/fj8/r79WmxXE4/Tj+XG36vOIFUFhCFP+uHlCGnf1++rvaH+XhljwxiAbFADmMARcjVAEQg0xjACZgNgBmC40ESSDQAzUp4DNCIEQ1As6o4BmhNUGzSwGVsXyqEbOyDm0EliDYDBPTsIyR7vwA7pNWbhKtboFohBRuPsugkjGFLcOOAIEfXBSULUKcOBzWDWABrFbwkpIW8FSkAeVVFiGQBBMXxUEqftDCQOADp6yoI4oRUsB9P1jLUMSBXiN3wIFRn2nIBtuOpvU2eBwXY3sMClN2Quo2B6DK9JG2rlCB49gLRdjdBcFqvZKj2/tDGe9QXQp29x8HSePZ+duPRzu4oyBCdgi6jY+PR9RW98a9QO441A2/WapusDZDdhbcsGNsUurM9GdENlu3G4wLF80CQLECHEx0WdAdjN/7sLslPA1LtdUd0Npyyxtxo2mQkQ/GUTXXM6s6iRE5ILH0OObVmv6/O2BZWA5TqblWkXp2Ve3KSxtB3t3ZX9IgDthFdict9HoBD78BTN2mtvNkrC05AKmSdeEaITjx4cz+1lXnXPvRtVPwX1Y3UFvnIvqM4tAU7sI92lrWH3Ja4sefmcVDPaqcga4SORH32ifqxvR7+v4df5sNhfU5f/9+/n/XT+vbmx78=);lineShape=1;strokeColor=#9999FF;" vertex="1" parent="1">
          <mxGeometry x="509.4763198744017" y="838.637617615399" width="17.914610725647435" height="8.997033317465798" as="geometry" />
        </mxCell>
        <mxCell id="j0sixRuL5LnDlVz1Tf_z-164" value="" style="shape=stencil(lVjZUhtBDPwav6pmRnM+k+Q/qMIEVwimgFx/n964xlhab1N5Wxa1R0erpdmd3rw+3D7vdym8vr0cv+1/He7eHnb6aZfS4elh/3J4w9NOP+/05v74sv/6cvzxdHf6+/l2sVyevh9/Lr/w+4QrWUZZUCn8Ob0Zkuu/F19O9o+Hpwv7XKV1Yx+D5LEN0CaxWYBKidsAONCzBTTpnQCStGgACSck4lKQYk/AmZpJ0FnCMADNknUbUKpEe4IirWUbUKtkm6WcZLRtQCsziWdAlUAAHTEkCxgySFpHkGgrDa5oIIAiaqlUxnxzHdClWkDNtNIxBAnBIFqcbLl+BOiqFgCfCPsQdbd57VU6CaKXybVzA6Xp5Fblgs3raKKk5WqSWi1gSCNBlzA9fu/RQH3S7vmKIyphUyzSLF+R6UDSFJMUB8iUfpCVaEs9lLIJZHJ1iLSpuyRbhj5mEq4zQ6L9fRBjEOGLUYItG6gSiSxBF7vzSKUxQJv9eAZANEgIKXixB4CRO+WpWhcuZabFTbIlEnSnsRPAs1W/fSDezdUBlSdaDIBvH/QHASwT0DUD0somVvNKCW5XnlbHJWgnrQMmljsBA4O4FOskwgUgsf7UVX8WyUQy0J/dxaCTXRv9NobPauD96dpn0OHQV7xoUll/hlX3QNRYxOgV51HmDV1XkqEcMPy0WvqTuIRFR3V1Agl6AaxdIoAMyXBBc6HH8HFDHQA2cSu4HVYANg/HZPKl7JEYlolrmwFvGJUauGddwpmFn+BcqiqVFK5WP6JLowtiOefkDFC+qJ/b92Lfq0xYdbWCZrpmpOg1BmRhMSwT0Wo9LgdsZ41Tp8/2kdZttR1CaFlHZx8xGjBwyXAyjD0oMslokqzoLbclUjWomGsGPj6z+utYoKOqQHPV2bMKgGSuxnyRLMWvz2G20nX7JqU4e7Z34kbhlioseYQREJfkrnpz7btuH31+zgq7Za82/5nWF/bJUq7M/WfLf3e3rfPFVn78fYcOwdJFLUE7vZxDhppbpiQy+//8vPCxPR7ev2XcHx4fT59CLv/vv33g1em7iX7+Cw==);lineShape=1;strokeColor=#9999FF;" vertex="1" parent="1">
          <mxGeometry x="539.2897276920321" y="821.1307828972892" width="19.313637061760065" height="31.984407313040784" as="geometry" />
        </mxCell>
        <mxCell id="j0sixRuL5LnDlVz1Tf_z-165" value="" style="shape=stencil(7VnLUhtBDPwaX1XzntGZkP+gCgiuEEwBef19emNm8Wi8neKYKm72WvLo1VJrdhcvnu+uHm92wT2/PB2+3vzcX7/c7eKnXQj7h7ubp/0LPu3i5S5e3B6ebr48Hb4/XB+/P14tksunb4cfyz/8Ouo5cW5RCu738UHI0tLfJ5+P8vf7h0E+GnknOWzLRwltkPdBatmWV4k6yFcpxBy/WtvlkyS/LQ97irFHtBHzg4Q4yMNdYk/Cz8XIvwb4vHwVtfJet+VztfGHQyScJYurg3yTWrflqxdv4hMlkQNqljIGyKt4EqFaJY8nIGWNpAwn6KgQvcRMfG6SRpNilUBqNKuk8YTkxbEseFtFKUkmJuFnzaNClUbyAIvzmLfspBCTUKhtLIwceirPKzhp2SoUUqqonBYnBeJ0KGdOYIlD63FhVPBSOZpTsVFi3SUAzqZdaAfseQUvySSuiSeJg4Ifo5QKTRwUDKJTlsDygI5lfIgU04iSCWsKkllY0xk8JHZCmcKKPLCpgLY9moSCZ6UBAKVxLrz9xRZEX11cFdBmSB4KLG72BCUmoVW6yelEEFd1SlwRJT60Im40CQByJHGKvjQ6nYtkUktardMlUDx4NxGGUmmYVKWNR9RIq0+ztQmByyRzTW31tSQuEgVnh25rEtkICp2EdAVEupFUl9Sn8qqQaK9EnuqYOcUTBohqmysCTZmGsyPoJJdb7biYI1pnc1vdVUeQor4YOwHZqcl6nUjm3rjFSVwr44ett5VVIdC4QsGMFOWDFyaZCYFiYiegf4ex97UqninEXv6rAhoDC2uxI6XlTrrOK6htNFBgIwUMrARrUiEIihPvRpRYK4sTFwDMWcOHQh4VFoySKEHBG8hFUYIH+GAhl2mmESWrUCm7X7YfU96NElFk2tBEbZxiRbsvwSQlAFoI0MhnAFEWJa+2WhGlyCFqExd5E4CLU6YjqVaY5EYfUEtMYVnyDKb5GhrWpnKCh8ggiphMiCvMJNDOMimQKL1bIarlM3CaRQk8tfnJacbJkl39MKgZ1cUYtX3Jd9BucbI4mlR5edfWAbkqwCTidAt2soP/sB2lFks2SqC1VJ0lTFj6KXNNfUCd0EQlJuVml3xsQY44nVd8nayvjFcu+8J0AptxH+vrUeFjff0f1tdQJ5Nc3083yYlZX1f+fh5A4cz6ypZLlFozJ/CbxOLtTetCG9ml14rgVcH3y9Gtdh9GH3yVQE5IE/f2sVfXVpsx64D3tHuDkflqFdg93DLY1ZqUGTlBEM19KFYaUkvLfXiwYXWML01X0kvi2EoDxI1Oo36pSVO7D40zMmcTBybLMq12TOOJsmtpO0NR3MyDMqHHUe6TLfWBfGZ1ZC+9IR/YaOhk8MTfQtA80RgkgE309aXESYbZaw20BvMWByyFxOf9b4n+JY8Pb6+kbvf398c3Wqe/21dYeHR8/RUv/wA=);lineShape=1;strokeColor=#9999FF;" vertex="1" parent="1">
          <mxGeometry x="561.2006203751926" y="820.78807163285" width="24.91893657970336" height="33.585123053558945" as="geometry" />
        </mxCell>
        <mxCell id="j0sixRuL5LnDlVz1Tf_z-166" value="" style="shape=stencil(nVhbctswDDyNfzEAXyC/0/QemYnTeJrGGcd93b5QPVRNSF7H/ZMtrIjnAuAm3r0/P7xtN4Hfj4f91+3P3ePxeRM/bULYvT5vD7ujPW3i/SbePe0P2y+H/ffXx9Pvt4dJcnr6tv8xfeHXCdcahTyhAv8+/RMp6t8/Pp/kX3av5/KBtA7yhZpclq+Vpndn8o0qkg+U2yAviVK+DFCl5gCVGrBAzcA4AMzkFi4DSiPhEVCoJAAQquMJUYiB0blQlhGQqDQAsCikEaBUgUqpUhxtSEKlAkAhLiMgUUYAez0mUlJSBoBAacykzDCVEhM7QKIAjI4WuDE1cu1nrgOUePTSFEpgQ8zehpJgHAwQR7cWiwxSKfbs7wCVHsp1gHgbNFFEKjFVHQGKVeJeXx1QmTRilRwgEYP0NoCMRlelVCDAs4xZBWp6AoyBa4USsoG7AjNAKQOaCbWbOANqp7Z1gPGcs6FRBABpnmYMUEHgjEnVUSVzz5Z1tqea/QkKyDh7HjN5AXELvX7PfBSAU7n3prMgBKA/L2JgtAb0F19sLVEDWWH8475vrQREwGo9ePmAIhZJnEMD5EjrfaK3ACwErpivqBQWHHnF5imJ0i1Onar/pqhNhOTcitPCVOJl3iEbMqmr/iuJLZ1NPlg5UnwnuVabskzW1pl8fSyhurAB8UtchAET2My4H2RIXiQSpuD/kHdBFmqgEbKvNZtd0cTD3j81UwClxr7lVIGzgnWcUR+16QX6UxeNv4EclV6Fs3zoffoCuTtqscEYJWjx41rJ0F7tRT7L24QIm1N0013rY8OlggmjAdlMQuxru8iYQdl8hkqy+H5jc3dGIdC+DM2A3PexdV6xII822ByPTrAWVcaqjJUKHnTcKGW7CNrYbKR1Rk98jDYFW17GEyxVFNiQF5VsXUvRPpX9tmOOVjAO2pjvTrDYIxtsavdk0ZfES0unX0V6dazLN98/LMzAAJvAixvtYG3amu2aB0OutoG9iJNHeVoXxcx9n1yXbz5NrwymwZMRw43CRo5cnHwEGWStpXj9C9DfWmMU539B32/e/wKvFM6GgbkGYLOxAxy7B7jJ3nwPdFXeHv5dOj3tXl5Od1bn7/0llf11uuCK938A);lineShape=1;strokeColor=#FF8000;" vertex="1" parent="1">
          <mxGeometry x="288.11480781649743" y="179.77309515919" width="14.036867545362462" height="61.46123036408787" as="geometry" />
        </mxCell>
        <mxCell id="j0sixRuL5LnDlVz1Tf_z-167" value="" style="shape=stencil(lZ3ZsuRGckS/hq9lyD3zeaT5D5qxZ0ibEZvW5Gj5e0WKQtW97qgD8o28nV4AcomMxSPiu/KXX3/8/pcv3+Xj19++ff3Hl//66Yfffvyu/Nt3Of/0849fvv30W/zXd+Xfvyt/+dvXb1/+/u3rv37+4ff//+X7PXL/1398/c/9C//9Oy4/WtugfPzP73+ojzX+7w9//X34P3/6+cPw8jimDG+Jhtckw1Oh4evzyzzxl8Pro/ZPw/NjHjR8Thle4FPbo9RPw9OjTxo+P7/Mcf7hcnh/7H/6NLzCu/dHWzL8gJcZj0N//f//8GZ4O3Q4vMx8pPQnfn36uyeYmfVI+jKl0fDeZHiDX0/Ph7/GD/j5GN/1dSZ8bIxfU8fT76dHKzp+wfisS5seB5yRGD90GyfYOano/KRHhlMS42V+0qPQ/NfzdV/jG+y1GC+7h49hao+k8zNB5MT49nl+8rm7r8f3x1FkfKX36To/+RRD1+OHvn95FJqfcW731/hB+3OeR/uPieQYL0K2nhv23fhZZfyk/bNOIXyOb/y96zx+r/G0vnGc8ufv7Y8K87Pl8Of9Ns574N34/vl75yPD/onxa8j4QeOTXkPrfMF342V+tgSjD852YPjE7w2fFED37lYa5AkhlBjQ5AkF74CtOFQFDNoV9dwET0DIJfroUIuSAnAdmn0DH4QArM+CZYsy2nmxkQ1AoigAKysAz87QsxnSjIRFAOahAFJrtm6QFIBbY6nelAYqHwFoUwF0AZYQGAZAHdckQAA66dBxYzcFLPjoAFR5pVDB4DwEQPfSU4xfA+JMVwXQmQ6AqDkhmEnuFdcT1vmXa0B95M+C+EYrLXZEt+ZIrxTHZSigwV4KwDoUQMpI6bpwN9pgAGZTwAIxU4bNUuh3tPmGbo19w5BNNvUCCgBZZQEYwwC0+exM54Q6RgC6fQPtpWpK/40WGQCRS1sNZsCy3UqGdE3njfZxa9AT0mP4XqKPDvM2/0mAGsgH3g81zHP/BljpGpeszxJZ+PVUZj8C4FKsTa+s/DTIrgGhz9v2JoMqAMO2xkGzNFRf2gCaJbOvN4C+IU6cbW8ErNNG+wig3brUu7EBsA4tblGfVth8ARi+NegJyZ7AlnkAVGo8b+5rQD714A8A0vlaUdtqA2ClA9D9CfRK9VFslipsvgCoML55Qjuv8Y8AuLICMGxaSQ1t/eIbGj1hqAm3F44+eqpJc7fSS92amY2mACxXHeAA9avtTVplT+qTu9l8Pavf7GbhAtB9pemVirputoJFH13Ud5OfYuEaUC/WgYRxt/tha5WwcL3pE7YDgmbJ7biForKbkhiq9IDz0LsZHBPVnwCIME4TfVbd7Ti2UPq8sFDIZxsA0QTCjiNtJgBqofTTULsGLLNQOu+lpRrZtnYBMNyOa+gqGkl17zDxSdcIgBpNFZ3VI45oV0CG3TrKIwugoIIVgGmuFjpAo148geyHAIiDPhU806PptZsyuogD0KcCMDrSzced0PALQMsKIAN8jFPD++iFo8031O0YAPI7BkCU9R3ZoGmdunDrjAy8Gz+LjCe/yTCdcvJxWyoBJl5X81BH9DwvvHfjpzpyJ8zPTOoNCKkJ3xvjxVQPEQn388xq8I3TGHo3XuZn4LGZ5XScvRzd5G+cVa//jrJoNh9PV8Lsj/55/tupil6PH2rfNp7/qRpVQzNsLtW1K+7/deh6VVRr16G+z3q6Na7HmwOgoBMwxovdWc7L4Xp8ViuyoKUQ4+X6e94l1+PLeRN9GE9x2qKBiZv3qep3Krif19O9/mG94HwtU+wauqpXU3nY0DO3+ikuX+eFAs0xXhT+gVpgjJf9Nnm/DbUPJjqoYnzR+6LT9w4L1LI5sezA70uVvti10nyaku8A2cJC5CcMQBXdnTW6ADTTewutwjRdZaDeu6aFVCavwzT740mRuAasC7OOdJUAJHH7JRaly5zUmffe0nWIw0xRngBoFL+hf2rZbRDHk8y6tfQ6i/NJYdIAiLyIA0eKcgCE/bSDXbQ1lpoThVXAZSZRSadr5Y8CMppE6TjUBVbKqVf9YURFxH4puRgaM4SWagqlnxvy7VrLK4273SSu9jJRuVvmcCoLfcIuBurB3zBVnX0FEN4KS6H2ZVQIQ34vYYawrbkF/udZqvWMSL+9UoQ+2FhHGmfA7wnoqPQvY9vUwR9tAbo60fG3r/XPYqAu9AkHoIiecbAY6CqOG1O8AiB8jO3ppldqShxohQVNUxJQY3pFAES5bTcXbztn/Qlo5yl/BxB1pvXTwHoHSPIN41YBFcBEH1gAROPbbmXa3lVVuO1WpicUDQz1hEbVsoheACiit4paGT3zlZJVAQoA6rlGeAwASo2kDqde0FOwkkq+AGR6pUPdcgG4sQ2VhMbG2zSWWwDIephLvSPbl07ukaU8xgAQcTPsbf1odl4GQD+aLe45bGtUPNMByFkBdIDm0wR7AhoKsgCI0ywAFD6bTe+HAOBHW8C6d36lpup672hIz6oklD54axQNbgUAXXNF3aN9oGwNQPqskXXmJ81s52GhrRgAPQ8Lo8PTaJDj4PNgfIwAoMMtKV9vMJFmJqUmDL6np0UwAkA+igBIsHcUDkiYXBqVXe3LvBoVzdcAJHHDNhSV208tgI57KQBdvmHgSo+pGtn+C6x0/J5YKGPdAYSkuFeGgirmnJlMQhlDmTcz4REdXd3J+wzSLHWluWyxQB/95JI+ARUt6tgIcuImu3wDoCGDhuzSYTpfXABkWsZmllDsZNkaAF3pp9/sHUCiYZO5nzuiVxRALK4A6F5aHPfMag4EgDSykZXxsZ3rHCiVld7edQpuJV24lTA6PA5VdLd/nYLuS1WHUEwzfPS+oLoCiOYSV6CcuJXxyurm3tzaOIXEh+YCLdZb+9B7elsURELpqnuHzUKekwCINrP9/rQOTVlcASCNLAAa96xM1amqwgUA2RJVL/ZtCtLCFXXchbFJ7s1e1JmzrVNaB2OibfuX2UPNntBoWo1ivhonPCYlcKyOjPGwbacByHsfAJ2ljpIvAKJgvYIkl4Cwz3WWWHVo5irfPi1KOp0mZgbmczUXAoN5k0Md2WuixR6AcigAOYfdFm7iHbcZgVMBJIxbUwVr+0fpCU3V0MXRrwBIrGkt5NW3qrr3dgrD9m7GddtBDFrpok7m7aemJ2T1Ga/Fmy+fSucffSVztezIDT0hqbtoLaajHrZbbwHJZonuuLqU17A/mvjc62KWMPvAmTQLs0ACoPrSMzZ0DRhqlq3F2QdDXV53AOMcvqJP7wAaSj04f6cacXJPE72Tqfd3S91M3i+8d6tp61uSUfqBH2qWxrWoMbqvIFrqYruv45HzrI59UYOs3GGfpACS9wFQTbdx+kFS0uGqGHEOgKRrBoDU+3rYBVHQDVcP3a6b30JZTkujX4urTwRA+BGLHd8BUEmWOXNxakx72zSwvXdqV1IAcXjKUE7djV1WjNa4mMVehimuB6c6dlXJJkuNAKgnZKF2UizBYXJcvlgKRVjgZB+XquJ7O9s51VF06QAQ7aRY4lUAyC4r5cpPQdNaVA+dg2fJClNMDsgFQIzRAJAwLkl1hwCQel+SOvomO+/LobJ1sl1WDuULzYr0n52NLICCF0o2uRQAWoedIC0ArouTzUM7E67DJgLLN3AWrFeMmU+t7h1ANt92I/MriZi5cenmoXbZYLpvNjrcuEmFN1G5ifD00UOFwKi4vV+E5g/efrL8stEpdgCCFm5YPCEhSyUbT34wrWXXMJDoF5tZm3UpwSwWlQFQnjMTwb0OQ+dUll37SQKjTGvJxr/YTi2qw2BFbfpttQoN4xe8srKZu53zRrJpxgHAwipFiTPbqUXfUCyinTED4VW55wMAF84o/wHAzZdUVG63GX2D5Z33hOTNtOyV0l39nGxPoGl9JaM9AZyzncwY3SwVWIddwWMqgNZh11SqCqBI6i5bYgA6QMmSHRqbuwEQBatxvDlVIzAtjE154azGfopUVC4FgHzAKauN3xYK402/NgITXbspGYd+nX62dwAx/Bqr0inphdI4+zKZ4RcAZACq2tomyrFlZDvWvKcq3m2cJK4345X9x2QNI9m0gcxTu9JbR4lkaQmto/7ZVYt5OXevHXzqJXplrL8Zr+esop1uN2GruL7V9gMr6NX2W2Hfh/qsth8YS26KuG4Z36copzDG40WuNLB2oxOqv6olFox6oW2fMRUUNBIlexiScsbqwvmxeo6VmdrHBUGY1HjjEtaB+/nQm6l23A9Wv7I2ZFn4eGZl+PjyJ8dnlA8+nivxHMa35jIIh8qfslD+HxdUfypGceh+KwOt5UPleekofw69X0q72Z+ebkGBLR/PuTuHauGF5cmh8qdkVGCNshbj+Xs1zTKh+moaeIwnf6Kd3/37uN80GSUjk9HSmHcKDs6P1lDOGEs91F9UCjrvD7VFC+dxHqryFS5Qeliaa0G34GH1TyuqlKbv3Y7PNj/8PulPfq/c77fz6QlWvF6HnRfeD8fQ8bzfko3n/Sw2w+15qXa+bs6jnV8+78POy8393nU8yyvNVruTh3oe7+Ttnx4v61XZnLdMtYYhn2T1izsSfk0fi/uR5sd89K96g2/GixVcFheEVtdZ5TpkVr879JM/N571cx/P9oWPryivfHy72Q8ib2u/mX+R56Hfkr5kLoLKqQFZnamhn6Nj3vRJ9uxkPb+NK/UXq2fNVReL2cucBV812N4SR+fNHkzoT7AyCmHfkX+wmQ8oo37bLuxlJK2aPc6O5q4kwLDfkUpv9nVFeoRFXbb/Af0tErBoDff/VH11+0MorUTjG61zMqf5izpWV1q2fzqyYXcZoqUAdJ0eVtGdM+tfxZo+ANBfnFSHboM90tmSRQeSWwOgXqnBH22M3u0WvOmbMBWAvtaqROlNFSVfazPJwp7NAEg+d2NR/arY9gGAd4Hl6734sdeAYbuVeZ7Jj+fifhrzIjJA9nNaGkTdbniaVitNEQCS8G7i7lACiMhXhdsT8GJCvwNo7idXJ8tZP7pzfcx9zdoTyE24qwdZajNGv61HQE/8DdWCqAk9Q9kO0E3y9G5d8fkA9Yxcvtx1pXu5C2bLbdsrEyOG8p5vUmo3R0C+oaE9582GOrP081BB1gdGILIVFuqTXdomBDpnQOV5RVsgJdIq0g4uIHjBaMncoGLqOmxyB+nBRjJ+lXZ8B5BY3ODkaW/uMDq6KrJlQA2ueZetiujgezovVU7GxKSsrf7INzDDPVuxmXmg/lwO3Us7jZeYdl4IMeE3BEAJjJm5rUkF2WQdvVhuTwCwMULSFJFZMcpTsnEqK390Vrtzsh1cjFg9OVCyO1osBZCnYzva5ZU66nylqiYwO1OGrbrxZOO8NNutHH0q3dZh8DpY57rJdTiL9a6bEx20xS6UyVy+XZvJ+LlEvShW3XguFGQBkAtlV5+kA7Qsx+qG9rx0e6+D0wDMr7u48Z23wFh8ZVXzRC7Wl6q58gJA5I6a1OBYGdPvalbn4ibpc+6D5uBy+bJaLMGvIMOrFvWfrYpZXNWaYi6WS7XatDaUfLvJhqx0xxB6bVraMgCYPeRJuwOzuKqVqFqDu6NYutFiqXGR0DS5BYanTE3OcvGkrBuAp3JyFbkAaM7hDcBTSm6m1ZPjWMG6SL8b6E6+SPC7yV/1FMKBBsdFkuJAMdNcatx8dNZbdCftcqOQ7AB6JRcC7PLapCXLVL5pFKKpPeyFa55XP9Bxvf2elqlM6k+z1jw3YqZZrb2dAE7T2i1NrKNjsA1L9ecclGam5epIwmzm/13c52D7qw4FUFLjiwX64X4gjaxZJdNdG4Dz6qVmyeJUhm5ByVVRb/XuKIuLhvas/NxdTI+7o2gxAS6o1o09uyteU0GEYitdUBPoVtllKyf0StZC765ASNV6gYtr7e3yaUUBFO3qVh/tJguyW1nsxcbrLm7mWiWtg1UZ3WmT9A1mPyyuqriLm00FkOTb3VFkljjPsi8Niayb9kLW0GsdHMbyzDV2Mg8jCu2yQlzDp5lZRgs3snlOODt7WJGTyUGXYcHfycHrUSyDcOCJG9a14SapcXgmJxc+DYBkfU0mTO8CbTKtlVvCNLPYC2pkASjmLsLNZ6rD5CDzsIypyayh0S3PMnE7FZNLk3NQhrnix8IjuhMMxfU4+QmeEDjwQol/FsNvvyTV5RoqlwZ3EB7TEgJvSraZqNz7l7bGtDKMhafVCwxmFmRLJd/gFvHDmsMN7me6d87n3TpY3M/D9tLB5TCTVQ7mNuLeDadPtONmshxF5r1Pa0/aBxIRAiCWYr/pcOO1ibni1CwW5mx4gGZV70/nnt3baS2vVDm7x+g4O5OTy8OKIOuV+ww1rUCy9Uz6hq4GR+dCj9NE5a6vTFvDJN9Nyed9K3cFkCCbU72hPXOZXiunf5MrOi3pvXNa/S4qURWAC7fsoxMK49DwNLabuDr+YXV9E6o/y8ow9sStGazQY+c6ptvha7midES3PWLpq2RPbxNJiDZMGN1GmKV+Zi6yrpS/mx4Czv1hd9GuoWhJe9iawWpEB4AqLixnFzVufFOtvRcH8Fa9aDqAiZlN5VLL3CGrWepbwroULy/GE3Dc9RDQZL8DXcDbsSLs2oXs8mU1cevkUvRd91K9aUDU9Z6u3NpzWUWezSjmjhf6DZzCtIYa4JVzOLYr01qVoJgZtg7sE7jobXKgDbSGtSs7uGuHJfoWjlquqQWZC4dql1HbSr97grAeC9fqXsuSS+otQLKfCl9ZDsjcF8QBiXuELUtYO5hA682lmc+3jNWyqTfc60fqqe2s7RvA5926adYMEDdFbqjNLCvhk+vdR8sNlLk+yJoa4XilGr8DCMEjJ1TW94kTAFtZO/r2GZC4vMErEPUEcPBrSw2pqsgBi2WaceK2mlvyyStV7vVjVYXSrWwVAzxxBtgriPMEPJME395A1ooQ16Gbo5zV1qZ90Sa32Gtqug7uf2c8nps2Vt5JiHtTelEBbtVohnFDXt6rduLzcuP3t6ZAlXtlWoT25vc9qYj1tqSEn8b7x+rAsYt1HXo13/S6Xcrga7jftvGp64U5JMOMVe594kW12F9l7b24NuA0RsrAqNIsRmPj3y/GAEN61u4mI/5nDO1N61m1uOOO7TeWP/OwUrk8P4eGrRPbIbvPizdzJb+tdUBMzN8fRpFLNw73qbTXxPSyACR7AnYkH0q3TJwKPIaq5Cmzs7rrPg0AcX13WEJeiXuZjaa64840onVo6thKBT2Sw4qVJi4gsR34SwHYoKeYVlS5bYvlXO62vfRKWeXX1opo81l3qMQSeLd2kt3aORBoWXCJ8+yG9ZQL3ZGqOfalQbQ0kK/8arH1BEzcfN0KECfuFNBd/+V0rV2KUb6BMzW63VSJ67L1ruZdPnham+ou+Sb03pRIuGsQEBugqnaREzdVqbo1dtY8TWtRb15O/A12ge48e+4v0h1AH51tHTjPuRt9ICfeGodZzfxKzbohZ76BmrkKdiIdd/9Qi5Ob9rZxsdLYCKOrMA7ATSMMUT3DzKbN16z6debMpVb1iG7ADbfR2oljinqxZt83T7D2OXffYJUQ756QLqaVEmCakeUzNwNsVmgoc6G2dmgAKnO9+Wocog0gVvfStOrMkfQ6lY+WM95A1XS+O8BQSyxnDHzsahcOYKL54dPKZPkLxxbNUr3YS9gdwfoIZ67BVq0t8E7wpSdktR9yRgu3Zr3Yc+YMAasTmDNeWdVy1HLmxAur3BMArJxhFLnMyvr2+CcF0DoU6z+VbxLzlgYzd5VkSjmz/lO5oOlarG185vpDZVxIDbqydg8JA5BLv1iN8JutsSvs2YnDThtN3bA3125p6iTdmgA9oV4pJ5QQVtWrur3b9EpWgSIfmOldLMvhVZvxHUCibq9iatcAuxQT1+bZDRuyAsgzXKyaXuKWQa/YzgcAHlGr/xYAzJJeKpcSVyzOFk961aS4Bkzz0E9M7chGcL4x/PJQDlHiBtDZGkumgedhFzKwJ5DLOhuhMzETdxcmEkC/q8pfLBZD9nQ2RkPiPLtcNQqduLbPLhZs0R4Sldnox6lhMDMXZZbssjFc2GOab4akRjZVOhV0buZknsSbygdWwixllBo5qWacWG/dBr18Q8Jb1KsiJmYpJW8/xVWZlhpZHLFK1q1qIDUmLY2gDa41bzFuTu1KU9eMq5AnK7jBJycZFbohtzQZo6Shupq63ucVI3QxvmjEippUJdNIKtoMyYQXH7Jkja65c3AyQhkXqokjK4eYVecYL8V58l29LTV5uMqhRSS5l0iydrgZ77NkEZ+McjdZcn3mjhdWFpftr2TlATLT+fznkT9i7kKmtporD8PN1puJXVpWsYiHd4213aSTKX+Cr4puHj92KVq1adRGmxXn5Y6aOpEVedpVTb/K7QaVBMGkA9M0OEvVrBMui59Vn+SId7aOMzfDxU7vXKbLCPJ4+Vs0uiMtKau7lMkhXvuQy3NZ8TkuzuW/TvfIxbvzqmrLG1ZOjbmNNI+s/h2OMt4Oj//45fvffvz9f/720z//+etv377+48vHf//b129f/v7t679+/uH5p19//P6XL/F//ws=);lineShape=1;strokeColor=#FF8000;" vertex="1" parent="1">
          <mxGeometry x="287.3486008324667" y="169.57194168768" width="472.0140013323535" height="207.51856427547725" as="geometry" />
        </mxCell>
        <mxCell id="j0sixRuL5LnDlVz1Tf_z-168" value="" style="shape=stencil(lVjLctswDPwaXTEkSBDkOU3/IzNxak/TOOO4r78vVA9lE1I2k5ujcAVisViCmtLd2/7hdTdxeDufjt93vw+P5/2UvkzMh5f97nQ4268p3U/p7ul42n07HX++PF7+fn2YV86/fhx/zW/4c8FFCmkGcfh7edAS1fb/ydfL+ufDy836QrUM66tSy++vj5G4jgCmmABAKMkAUKFSAKBS0wFQKhUQgW0DPAKMBRCBhXIbAJKIUYRKdUw62ysASylRGAFJKQQAUJ8DN+L4PiBbimMOVnplAJDOSQdEgSzlSimPgEARSEly3/GSNImC9Y3KSFKAHJWVVm0/gCKN1EZOMwWwH9OljAkvStxeb7KMnlEGgBp8AKtZRgDuCS6MBkqgBDX3XlxSNgCKUEhHTrPpTgCgeaFKJQYyapbimIPVkYFQzbB07H/Fym4rw7DKBJBDa6Rj76g9AcqLYVHmIo1IArRnIcT5qlkMqJwlISOvVssKLKbpaksFtk8TiuIBBWjDChGLByjiNXbp3AA+EFNxSQvURq2U2dOqSN9K1bHEFACtM8BFCB9uaWTJ1IekUVe2pwp9yWhNY1Nrgc5thePRZ2Zrq1AanDygILUuO77ZUkIRaj8KbpIWlIM10KpH4Zyx0aOBGu5RZzSmDUUAM5qRJuvRhJKwHF1DCG458c5kHQR9Jq3kWvor3hNTVQ/IqHLBG/6cA24Id6QYS8j6Pg+IvtLKkFbrSB0boggeBYpvaindebYB2Q98WfsrtgHs/T4zBgQ/eCemBKRRVrTO8xiodNE+WyzzTO2z+zZA/NEeEyU0wRlLIwAf1DZapLHQdv1AYhX2ASyFAuzehlw3FTM+dnP2c7eVAd0dbABzp2hqfY7dvgqUXtZFGRU6n22gjcoQoQbKYFcLdSNZgv1jt8TsGi5CluxKlt0Z16C6o906V7NGBh4Q2V8GGndn2+4f7xnm5hW1Tx/ll/UNjt6rXrhOmdu66JP/9XaFrz/WvMEHaCAA+wn0et5tM+pFMScMShZ69BtCFa7P4tcHIOvg7z52mjLgZ3X8N2skYNmrc63hO33wBWsZnoOf/RLz8Xr7cf3s83R4fr58Nbr9v/9MZI8un5jS/T8=);lineShape=1;strokeColor=#FF8000;" vertex="1" parent="1">
          <mxGeometry x="471.15364153876953" y="163.6210318432759" width="30.52692320185276" height="33.355482208231194" as="geometry" />
        </mxCell>
        <mxCell id="j0sixRuL5LnDlVz1Tf_z-169" value="" style="shape=stencil(rVbbbtswDP0avx5IoiRKz133HwWaLsaypEjTXf5+9Ay5oWJzGbA3x+Exr+eQAz287Z9ed0Nwb5fz6evux/h82Q/0aQhhPO535/EiTwM9DvTwcjrvvpxP78fn+ffr02Q5PX07fZ++8HPGeYeUJlRwv+Y3FBHrnzefZ8BhPF4BgkNhDSBw2AZQgqsa4OANQKyoXgFCQE7bgByRigL4DG8ASkbUOTg4t21fpUhBO4Bjwz4iZGWf4aJhzwg6Hh9BloPaOwgJ3uiad0uGSxcYVEwXkRRA+pKzmUTWHrIDk1kl7gDi02hb9a2KDcAR1ehbYTg9SZyRLADdAGKb3lUAS8R69DKjGklLAKwBqZhl5aWxSx9kWoxhkoiL9kDLmy0PRXsQvhUrpAKvG+cDogEoHqHLAWykUFITiA9+Jsu+9jVyjVDrg0SNvkuJUC0u5MbGJWFvOyhNEpeS+r+xrXb0JASLCxWsFSAmZEtjCkiTJ3ETkXVAAuukc27Svw4IIJ00k7lKSunLKuyI/j8CJOJOxETKrVWSCKTLKiplCauoaDd6k3AaId3uzytt3tDufkVP8m8s0NKLmPQ+GMMng9PZp7bv1nNuGrrYizAb3/co2l74bSmY6+MRwSFDU29WG7tGjvvsc0A17bt4UjLJfJNvLO3euK+eUe4dI9+bfpH019pq/TzISRaN7//zTXgHQB4+TtCX8XCYL9jr//uTVV7N5y49/gY=);lineShape=1;strokeColor=#FF8000;" vertex="1" parent="1">
          <mxGeometry x="480.5131423147459" y="177.4204380382605" width="14.416804977612754" height="4.7350583137084215" as="geometry" />
        </mxCell>
        <mxCell id="j0sixRuL5LnDlVz1Tf_z-170" value="" style="shape=stencil(lVjbUhsxDP2avGps+SL7mdL/YIbQZEoJE+jt76ttxmYtZw/wtgSfXV2OpCPvws3L4e55v2P38no+fd//Pt6/Hnbhy475+HTYn4+v+rQLt7tw83A677+dTz+f7i9/P98tJ5enH6dfyxv+XHBSid2CYvf38kulFP7/8PVy/vH4tD7vqRZzPvP2+dRf93a++O3zMVOw769p+3yI5Hg47x0FAOBI2Y8AT0m2AV6IDSBScRDgRpfZEUdgkqOSR0AiB0ziTGK+oGHOIEqeRAZACJRAGoJQHU0KhQT4EBNJHQAxYGKwJUYUCsCH7MmNTNVXoExnpXYaAUIehFU0rCNAvxnqNqAEiqNJWdkFqFE9+TFKWagUACjkRpOEW2auk885GyYplJBNhcqYCHUrA6+reh1HQCUHnCjS2NxrOpAHAG1KJkw1U0RdicmNNVoF+qB5CsakQhV8IQUS8wVtTKggIvHowyo112suNXaunCioDWhiTa9MVIHX2lZStgDU7VnJZqZDhIlYWpnJHONmWVtb6QAHB4Sv1odSKIOKUJNMqkumhKLE5EenC274OlLSWKRaQajkWCiOiSs4SsG1EbUCCPAhdANWJkXAJSVfFeu0IIDYgljCCgpCB4iNUmmjeAtguqtSQ9CU00lt6M0YkIhNxcX2zesApmzUjBYQmHKLOvIWAEu0B3EFQD5wsFpAfYBdw1vyaTdGU04LyEgsHWOI3kuJGmrUpuo2v2DY2lO56YOZWQmrPh1pht4BRym3cllVHBq8iwKLFiCYGp8DLPrIRCnDJpBym1ArQAYlmvPU+XQmobmb2tBc+wDCWqYC0lkPJ3tu06AD1Ejgg8z6h1tr29KV1WgyVURIuerKMYZ1UROA3qqNeaw43YoiapXSmkoHaB6ASarvDVuTxyOrl3xX3xmKE1/Ij3mIqo1B4nSrMmNXu62AEk12a9Khx8AiZzcUHcMeFOjEC/+ObpjWPg9nQ7azJEMW+b68dH+xZtB4GnvguqQKwHRt10T1BxdvrFbnxd7hVjFdHDjIn/liwlEE8SzOrriu6Y2tTmS2Qwf1/CLpkok/WrlL3wQ7P/EumVo43viA8qvnjf7Cynw+j5XLbA9WzbO/guMzxbPg+Ez5qm3n+yAfKizfT1+EvXteH95u3R6Oj4+XS7v1/+0tnf50ueELt/8A);lineShape=1;strokeColor=#FF8000;" vertex="1" parent="1">
          <mxGeometry x="507.7047892498731" y="160.9871165586096" width="23.316258454010026" height="33.532829830335" as="geometry" />
        </mxCell>
        <mxCell id="j0sixRuL5LnDlVz1Tf_z-171" value="" style="shape=stencil(lVjJctswDP0aXTEkwfWcpv+RmTi1p26ccZwuf1+wGskmEL00N1viE7aHjRPfve4fXnZTcK+X8+n77tfh8bKf+MsUwuF5vzsfLvJr4vuJ755O59238+nt+XH+//LQT/ZfP04/+xd+z7jA1LijgvszP6mU3b8HX+fzx8Pz7XlPOQ/nfaOatgHX1wtAJNQKAKsCC4AzllDIjybERB7Y4JOWkAJVBAjU/ADIiUoGAE9hNLpk8sgGRzmMYYjkAnSrVwAmB1QKkWrUgFC2AeyoFQ2IQAIXClkDMm8DIhMbG0oEgLZofAOofhuQhAjVAIAN2VGxEoCXiqOUjA1AQimUjNEJeKkmTW8B+LYNaIFYGe2oAgktarYKIALytWzIJ2RBgGLcGhayvA9o5JRKkRhEWgBVqYSrhgBaGwFtycEtgIp0dzRyazWASBkFrpAbVRJHR2RD0gkkn4gggZpkMGtAQgAp916rVJBKbqlCKyDBylcrNePWBiItAB65JDIRlwQQx3JfxUugAwkRnCqVEVaNrsDoJaF3BhLErUWRz0MvSeB0f3CwGIvXk9eAjCQUUwRESUzvbGprwjmtbUhLi9loikImFbmKM6gttXflhscZJOwbQy2ebsiIoo0QTzeUQUkPWN3TYNj4NMA2iBvH/WcP6rFBTct0OQFEQA7bRwXAoLraTv0BwM4CHQByrk8b3tgAIscmI3oLAEb3iYmNWwHBZSYrUQPgIMrvBQ4ZbfIhw3HGJtw6XG+cVz4VaqGuG8iNQcsF1j3Rf2RF5wnQvy5D87oKeGJUMCiN32fxMCpJXk8+oiKsYdLMRgk+U0DrTzImwPoi5+PIIYazm4j3Y8jC8mDrfFMLH9wzZBtTa4NwBOnf9MCAa5e89vr7DjHOrGLSOAEjxB0hKHsZ6SNrFyt/osoY1p3oGi+U8n1BH0cFGfqQvVEPkXlh4Ob3P3UB8OF5+XG9bXg6HI/zZcXte307IY/mmw2+/ws=);lineShape=1;strokeColor=#FF8000;" vertex="1" parent="1">
          <mxGeometry x="536.4421712750373" y="161.16877455572603" width="32.26311868093097" height="21.952392059853427" as="geometry" />
        </mxCell>
        <mxCell id="j0sixRuL5LnDlVz1Tf_z-172" value="" style="shape=stencil(lVdJcttADHyNrihgMOvZcf7hKsuRKorlkuUsvw8YZWQNSHbiG0WhOVgaDcxG7153Dy/bTeDX8+n4dftj/3jebfTTJoT982572p/taaP3G717Op62X07Ht+fHy++Xh8lyevp2/D594ecFJ8zEPMEC/7q8isThz4vPF8Bh/3wDaJWCDPaVqgB7paaDvRRSXQfUSi0NgJApRABIlMIAUKGAThBqY8iaSfM6oCTKY8wxwBhypZhHQCVNAMDUxhhS7GcuApL2EDsgCzFwyRwIY1pzpsgAkCi2AVCYKjqBvUulUGrrAMt6HU+ogQJwSQvxmNaaqQCyxuLJ3WL/xBqgjFlqxi4EyL7SreA6aCfzFWDUADGoccm51EgBNTT0rN8Aal0HTP2VPaAhAJOoB6BKS6Q6C7qAtAp7EbC0pgJ6mmoZ7TMJaDiznxEjA3tzqLgcWSFB2Szk5CIIxKBs0mYnCAnIUUhU3QnmJBBKI4Y0D6io3yoJe5eQjJks/uXNTdCIq9Y+yj6tiElTgzrqJWLkUiEZtduYkRDACucApYvzmu75tDY4QtWoFjwAFc7YqiO7b8b2MiLMorYjQP+I6ViZBQE0QILXYmtp5JKJVvR1yCDoj9pr764bcgcQ8WzvsT0CzfRAeUxQZbw0dL26TsNEDfhvghHHgPM/RLXOVoAIVzFLUR5LlhpUGGVPimRZQBN91mwRb1Y2DV2VrZsi6v9KaVQYxf1vHrtZZcxqoM4p+RNsI26ASKn2zroCuEvI8rInfqJb96GtJM/WmAp3DCOOO0D7hF+mqnWKCxmuhkX8dJauaMv2sZOg21/H+7J98XrHvTeWhzl33r/bC/CnWqtVZ4+ky64k4v1nQFKbkjk5e0X20Q81hgubDSTX+UIJ8GGS8pE/oY/dNfs2dqWSIOn66CXyPwD28H5nfdofDpcr7+3//o5rry73Y73/DQ==);lineShape=1;strokeColor=#FF8000;" vertex="1" parent="1">
          <mxGeometry x="552.0457576872536" y="161.21973297072668" width="9.347492544265434" height="39.425089329354485" as="geometry" />
        </mxCell>
        <mxCell id="j0sixRuL5LnDlVz1Tf_z-173" value="" style="shape=stencil(lZ3b0hw3coSfhrcTjTNwvbbfQxGiVoqVRQXFtb1vvwUr5p+ZzJ6vxTseUNONBlCHrKzCp/K3P37+4ffPn/Lxx7evX/7x+X9/+fHbz5/Kf3zK+Zfffv789Zdv8adP5T8/lb/99OXr579//fLP33788++//7BH7j/995f/2b/wf3/K5VtJWygf//rzH0a9pfH///Jff47/9Zffnsan25qv48utZho/5PfzbXQa3w4dnw4aX8rr+HSrk8Yf7XX8cSsw3+M2X9+nL/z949Zev0+ft1ZofHl9nz5uA+Z73FJ/Hd9vC8cfQ8cfFcfL+7Rbwvker9+/11vl98mv48ut4/c5XvdPz7cJ++ds/MHvL+ub7ifi3feX73PcasP1ff3+bd0GnJfYP+t1/LwtHD+rjj8W7f/0+n3auBU+j6/r1TquV+iH1/3Z2l1jnI7P9n3areD4Ie9T8fuU29F1fIXzHtps6fgD9nO5rdf90Motw/evtyLrle8a5s34UXR8gfPbblnWN6E+abch3/+4LXj/fstdx9N57/r7NfY/rO/Q/RDjE8x36P6v89bh/M5blvHjtmA/TD2PMZ70Q5xW+f04L7A/Y3ZLx5N+Xrf2ur613S3mm/H6fdpdY5+f30MdghpblhTKoTu0fpyJc4FQQSbQ6Amhg6oKZPIJ0m2+HsoaaoNeKdsqxCmjJ2R7pXgmzSHfrfSTQKV1+FAjHwLHfVbvBPpUAdJEqaopKLFZYGuHQCsqUMj3q7oOZd7VwblAU+0SAgdZp3Z3Jj8EBh6H1G3Sg/3Lfmsyh343Ee8E5lSBgxZuqEkoDVVYCMylAomeEErvVamWMCs0h3nXWU8CpOXTUreolNuklV63vlSggt4LR0e3RrnrkXMB8/RLvuvCdwJ1qsDgJ6ykAp2eEP9tr4STLmoNQyDDZ93uyDIB2Ev5wxt6FoCVDofhsK9EAUII9GICNIeuLszVHPrdgj8JoA851IncK02Tnnc997T5yErnqW5PCJCqDDtdbHs3ONPFAql94shRPWzSFXVrSeoqhUCGOYTAmCpAsUUx8GGrGVi4/dUPFSB1v7+JzYHC8fhv3a0V451QvdWeQABHWINkX4nMbunqOlwJjFv/PoF5d3b+qsDSqGoL0NYwN/RCIHwXVcb8SuFOHW7jWEAi2701YPOFS3jY1qDQPwTUdaioBOqHUnkSIN26HWf5SgWjt/Dlk5ld/Er17jj/RTsd4UUxdY+v1O6OwrMVpUn3u+P8bEXps44zk0ULZ0FlqDYM0t1fYu8+glr1+RLCDCEguEro8waTjrBcIpQQSCwgkWvYJNoaLalXmRd+1hDor3PY0TWoypbVxm3LDXspBCRoCgE6QCHQXy1QOBOkBEJAfI3wbwh/2nBQU4FCX6lolBU+WmcB8TW2F0ivVNVZzwU3XwgICJIZVN2YnAgkRHE26CfrcKCqDAHRfBFREK63YcjXJ0SQQ7hGMzu94y440yEgqnKHgnSAhjpYEc4uesLQ+CEECOzdWPDrXoqQPNM6TA04UrkDTu8ExMZtpIMWbqobGgLkVYbAfNUaKbHmW4ovpQtVue5m/C6weM5LlcbEWHcj/kvG46ot3aoDId9+3H/uPr7fg+t34+WwdQwEupmS8Hl5/BSAD9G3nvT9OTDZGRqxheiSxHjxhxkIiPFLx5PG7vmOjXxsOEzxxHjJoaY7tnE+3izCwe9f1d85MEiK8eOQ8Yn2T1Ml8RGLno/vasYPNDcxXvyEi/HDvw8F533e8Yen8TTfjwzc0/eh/bDuoc1jfAa1Pg41HAzcjtjP+v6kH0a+e1lP40FfjaI56YvxVa3MgWF/jO/6ffD9m+qHA89jjB/6+xQfjK6O7IGOb4zven5pf46hGFtCaGcM9TETprzH1JwQI3LDoveMrtMwe5dvA9Zrmj3K9+Dl3XjhWBSE72a6OwyP8WRfYrz4ihXP48z3QOkxnrCKGC+clYZ45SzKUWgY1cR4QSo6Bpez6vcfd9LIu/Gynwfmsma7I8QPf4YyIjFesP6F+nZ2hXIWp3S7Oa0HpgZCQDZ0CHRKAg9dse2D0icdCl8lRphDQBJZ4XhTxmWeuvY0h6nATLrYpgZqpI56ZZqdjIiJcglzaWy8M1X0SuGYy0qvKwF5pW274Sutw0ANjlyXEb52bAy7OwQE79ruKOzWZZSdzPnyEFAUhKO+EFAF3zA2XkljslBJZMJX1phsxzQ0aUsNhADFxiGgRnBiMi4EhJkYaobU2Mq6lwpjFKtYrjlhqBsCmg/JGAktsww7xwmmMASErFGYfreM33SR01kGLl0kp0NAAeN2z6C/E5CVLh39qRDQXPO4eiWFpAd6PMtYV2WiyxACmnZdCHqHgLM7yAkIASEJVCY2rq4LVzOG+SEgWaNa0M8IAZl0ZaByWSBYK6tK417Uhq78GnpEa0fsZw3drZXBmRBQwtbAfEgI6EpPdE5CYMoTFh/RqVnUdiDCHAJKGk3I41nGsmuZ1yE8SHlCQX9pTY1pW0VeYQiIum8XW2MqitU6woghoFTQgXHnWoqLPODXdwJJFm4hchQC+fUJPfwb+kpL1+EBnr0T0NiE+anLgsle0KtcxhTqFRlbISD5kN6YUmnJ6Y1Y8RNEt24SPp3ppbm1PljzWbqvXxiUpZhBvzAoJjAOdn+WVX4k9L3TYdz6kTFhvh8hgeuFd7LuPuGHQGWnz6C50fhQL6tf6QiW7O0qT2CC/T5B8pXm1RkVuzsW+9JL8eB54Mqtqf7PZFJ4CAhrZmY+QVMh/FkwO71NkDyhsrMxVBvPxmpjqNrYOAR91qGqb3akkoeAhLs76ucnCBASITZlOsL/0UzT4sjPuBRzIVYXAoItrQu10RSc3/EsrbShvSGAkzY4eSW27FXxzxBY9AQrClmZ55B18+149rvC3R3P0hMsB7AyJp1imUR975ekr3Sopxuf4SCAaSnsHgK0+eayleZE3mP3Pwlc4HbD5kCT3kCfzKHiSm/sMakAae9pdNgQIC9xGpdiB8AM50o6clXGHot6uou5dtNqE0KAihDDGohu3QIE2WcNILZaoCeke4D+LEBbI6kyDgEC+sIE6hwu8NNDScOrobceZnzaK9EBCgFd6YaAa3gWywTIKIaA8NT2wlFuaRjWX5E6F+7UsgPUaNJWwbFPHH3WppDuVgKcz1Q+SEE7PYop44LaexiUuKE/moMVKC2OmsI3V7NbsAolvP9pNo48gXGYEsioBCIg0SOaEejrS1G1LcCJekmiXL3S0DBrZdwa3Vy4B8h7LtA1Y/EAec8F2onJooBj12fb1iCKe6+asVgFOY+9aKi4zS4TVvzEIQMoK+YVApTyDgEpg19MfN4whixcZdJHUpLIVjO0cMfJE6iGsB8a0mwBYlUu5TEtJqA3C/y2bgW91KZpDebEt2EGpaJH5pzH7ZyQQFfu6bZAxM5r5ug2PKIhIJhXCCD3tJp33zAB0aqG+CFA56EVZUTsuIvmUMyV7sghcqb0BtuJGZoUZd5gO5GGk7KIFofHzWiDG52ndXAHa3DtvaE/i6tFQ0C/EnfnqNNsHHMpQiDLK3HFa/WQZmJGu7qDxShz7cos2GA7FWQ0TXFsPIirUJY9AesrqkJeG2ynshXLc24QjJ5gNP0NtsPmq0aqe+By7wSEQ7LBdqoRSff027MALdxh8QNntKtboIWGfScpqwqQ9g4BddYX+nxlKiC1Fq70IzP7LACKrHSLpxny2gV7wwRoDk310hMUfi5hVbiXEsXM4sVLZc2lPjIA5wLJIrmL73RYFLQwyM9nu4mWLk/NHe3dBK+UrRJy71d6pX5yqolrk9vJOlQuuPbPSnpjF/PYHIi+GAJ5mgCospwtbGLUOGfNQ64PJte5gHX12uqYBNwXmFyh7WjlxHVIS3Mc66JxkqVGt2mnFgdWA769DWpNNo33ODjDZizD7WLBwoXAYX4lIRupa45jMfc0NUM2OvfXaBbJsW+czpxpMoup2qQZuEtWb3ERciQj9F7EWbt9jD2BUtTJ+HMXyPeDn/qM/7CAWrl8hy7OBazz2EVSJAQUvU+8cIepmYSFJp6AODh9bMgJF4JMtSabj0qQsZZzz4nHc6gBnUystlh65zsIyLGU6EA9bzTpB3H6zXgxPJN5FF2PzeTCsqZ1MrNiIVRT9Tgrl61afpZB1qZ5xJkR27N2SDOhjbLE5jywPcZHIuk+fizU7lVjz7HwfFlzmUd64M14yUY/sgNvxgtWGuPJSyj3hM3H+M5OglEzOlLm0wm7hMLUpLZvcCrDeiUOzh1m3W+DCyWz1mmMgmBEVlLG4JYy1gTtcrxyabhJVFaW+aPS7M34k++J+1P0z8784P708dTqxVgAg5OYWS3qYEfFUPPBrQWMIj8axyrWW5fLArK6EPv9cfxh8yWkNtn3rAgmWH+uR+Xhu/FVx1NWztpT7N7JuD+FYR37H+Nd681ckASY1d6NgoVlBgmMwh3SFAIenEjNJ/qTOFvW3WmfR8J+vnt8tvdBbMn0FScGrPRhtAv7K9jBYP+q2vcfnKiw78PUc0uUh30nf7IpLWowWGI1DNufoayGnseZ8Dx2DSU3jQTHC7lhFm48oOdlsj0ypHEyR31oi8PJ+22Yf94QcBv2PTsziRR1nxf1fNpHYF6Uzdh6cfmfEbtjPKIX1lx9XjQsPRRMntytO6JmzbBy74RkTSbXRVvXZLyMhEFSOqMSYg/VbEhYZjNZDIFhol8qNoeCGy9Vyx0WtvRVQ43N26NX+vBkngSww2kzuKMyPtJPiH7YF9n6wG5gi9bBaoZ3lRhNetqkWWEk6xSwi77olYwuv7hd/KM1xl+EMPNhn3Vw0JTUKq+B1U7ZqmHXwMSH+71rIts3Ox1yIqqanXA5EQnIRVX9mkhR8D7zO4dLAs3oLpODIUOTdg6XJj1spRfCN4+C3ycBUsanCSjKY5ymuFDgLIlGyZvTNF2GE1esBeTFpHeu0Z5A1bCl2eZbCOnvhKltPvI7iwGTmw9AyUxnmbKnWlzzMUUhBJTzxvcKFCvj2UeUU+PKU5oYvVcH3CeGU5tAYJ8VqSIWAG8Bbomq2fqJEXwtlscYmLYOAT2inHXzDqePwp53AkpsGmiy6scFJU8CSLNolsEdVwwcNezcxrJaJLAG8sXq1OboqzOhxvr8rY7qvnpxBwcb1dmNnRtlHqZmOhP9DtOtF/0W3XVoHBAnM1kNy2d3h1MrKsAUiPUa2slMeiXn4rYrKqEqAY5am7sODHs3y7Ns4iszNJW3V3mlrdPARfzQhq0015+HgL5SwXCgzZNXuiLvJhW4oAc75Z+c9W53fa2C3sxuBGlJZdJLu7OjC1BG8DRtTQKGIS/uPxoC6i9lBEl3ebrVOVyw36c9gdgA3e5V2eWA3IBRGpQtTjz2ZlY0c+a3m+vAyf0+LAZKV5UUShThG3S602kuBKz5wUq8NQxfWonxtMMidi57DgGvC8X6q2S1rXwXxshG/uK7MIaB6Cujnd45BauZIYzskQT9i0d0ODbDRTY7jWt1oQicjhPNhwVbZ+qe4odxVqpKrWvGsnUo6JyMZWqG2Q27gNFqNWjzzWSar2I+PgS0jIcvz5tnZW0XdaHK9i1ceWo5n8U58Onbm5Nu07nphdtjVgsHCuKts9kBKtxw0W7Q2eeBXqmfALQUKc5xYkUJtpt2BdXiWx68meDiWx68N+DiNqi71Z/Ry7DLxWFKIGGd9HKwPyEDdFnn0XXRtCvbmU5I81seDhw8ByPxPDoengtUU8bcDnhVXem58Iju8izL0mCjpaao9JzIG1/OTJvoGS87cXFCsBFN19Lt3XqAW5uJC7dbD9BX6sqeebQeOBcYRlfkG3Q28C7NQwpiAssaIYc+v2htJozOmbC2dVnr5LB62M9t6sINLoHxTmVh6nG3TlWVY3I7KutUNi7aFVqnsl0jz6/kxKTMvZ+0ozBf1LURYqOiECawrNb7uleUkjm4HdWjpuFDgNvi+xN2gPB9AhdqZqkFCgHCZtZSyCvCKGw2u06u/8a2SYZ7d+agLbueI8JZ3EtTWbydb5BfltbpHIAv64feOfDbSkD6uR18ae/U7d24mGoLSOc+poI/qkCfBMi7d83XBpusoWzk1tlOW7q5tStlLGho48412z7IE9jRXUMr7Ro7icso8y1h2n8D7yJwcMvFbhdAc6nTo4z6Q4CTwcsSqfWCZtPVZO2aYNpLlsALASI2rnbSdzWzR+adXQns37C4dKdlCsmyrGXlW19WU/enJvZmqmq+erAnYKV/uwCXnyCTLotbA3rz5YmMrWWtPfb9yTQH60zwSN6+E9ALNTsfoGKTvlAzxW4GZpr+OrtmET2yrIFfYaB82bVyJfOZzgp5lYTphGXc/nJwL8FkF9ctRE5WUnWfF6JwK2mKcN8LwU+QexvyhSKzm+Nzx1rB3fTudeEyFxcuI3jsIhyaw6EFkpk50cuaVuTC5+HQ3XpxXctc6mDli8sqlm6+TbLiexv0OoyLGzqm3ZjDzfmnUU/T4CcMu1OLiWc7PpcLN9rVDR16fwZ3rtkBfVcBREO73p+cuFfU7EqTTJwd2Pxgu0uPFNn0axb57qXZVBlzhf504iZGDzFea/QQh59mfiaWuG0G+Ovx5O6902pqOt/lY11AuE/PtEtWuV/xBvn1Lj3Exw9l8FRswTmWOT1oOndrYnEwEG4c00wt35Vl/XMKlvQNO/YXXe6GmRykRe4KDjEgfLeZNdtJ6KWOpiwZvmh4V5yJiuDvYzWnjKr43W8JoSe/Wy5hosHvrktXfQ/l+1+8v929xwrR7/ZjgN7vDkyc2re7CZnt73cfJr7r0RrcMqDau1k9PI+7fWHV8fT+Zi8Sl5hXs5GYnetmL/jq717099nZ8laH3FW5Z9XPTOrp2S6KwTRyP7m7jly5ngwF4rtmk+Yiub1HjM9TxuPdqMlqQpFK3+02rcG0k8NSQcz+OSyFhzmRfb+GnC/2pZtdDZE48mvGUkmZGYDGC0uFL+NeumYhQEayGXch8TUMze4LSBe0R0vTJC5EadYmLw0Ms9qwJzC7urm3zkDfJiWKajmwMCsEJMbPfA3D5kla5Efe3259abHlhYAGo1wy7OTQzDXY3iszX3bj1NvsO2JerSjhO3cmhxbN1T76ir0TEKdol1ISXzVrnjNzxUQzvGjXshCVOesRLVyo6FTmcnCj1mR3oCVeB6NjF75rqNm9siVjMLfvwWoqQN5LnVqxvu/T436fUsK6kUESGIrFF77McdcCVBVApr5REUrlqg8jh5bKXVH9truKNay12hMav9LZJYLkBlTrwH4BGlfjhZWGgV21I1q4FqA6QttQt1arFSudt3eyOXQ07PWw2x87pml2fmKaAFdBKXh/ITBt4fiVit3rcy2Qv++Vurq4VwJNkfLCFiiOy7InELu6WFHTxdYIHaFqhltx7bpDy+vgEwzIunpCsms7G4ZuIXD4EaWKusNipYbpY28oUBr3sTT+RQhgRyK7Q7nwXeLZcOxdr8lVsnriLprQmN9aLrowdYXAChNcs11xUwoGTbtRib0SNvKq6koXpmNvlDJ/l4DfrFswcM3WRaFwyVG20q9SEZrYyNGhApRfy+5gcXP+bKmm0rh1xNKU38WJS+vEsFP8kKyheunoSqd5ou6xSYjRWi5uB/Y+DYXb2iXrA1O4rDYZ17NM9IxTVxSqcKn87mZxqADRsZNdkhC+AQFXqan2vmBHJKuC2vXLcOKSGcXK2PluQ2I3HOMcrNHJBYckFT3T4WdSpW8yr7IW9CqT9WSrFT3jZFe1V77cKwRke1cmh+5GsH7pMh0gawRbO8/BChVrZ6aN2vXKFdp2j1blQvmpRrpOLltRXltEpkQtMh+3MYV+aOPPGE+1Q3YlRGPMseuCNUbRrXFXy7jnmr0/30jU7OJkLkyq6tw2RsWrsTUbGp2i9IZ9tzR5qpbU7ReNPwWWaFx8b0npfRM1Np4Uq9y4403SThSNu7Pb5UttIYsg6X7ojJQmRWFiPL+/MDN2GoQUkOqfntkeqx/VL8yA2sp+0b1K93+/aFBupIPG1t7epyPdPxmPnXsyJbtlfLLLpSyUvpAnn6wggm/T8Ma66aKxrjbKzdxoSOmAI1808tRGpMyCyHY1d8H19caZzMo4G8+NS/V9KlalnTYKxe+pST+uObCk62VjV63A4caivr58p2vW4HJcRHJqfwezpX1/VmR9eKNZhoyvx8cffv/h289//uWnX3799Y9vX7/84/Pz///05evnv3/98s/ffvz4pz9+/uH3z/G3fwM=);lineShape=1;strokeColor=#FF0080;" vertex="1" parent="1">
          <mxGeometry x="584.071066595191" y="268.1734628737397" width="395.3766438904708" height="267.9782434358822" as="geometry" />
        </mxCell>
        <mxCell id="j0sixRuL5LnDlVz1Tf_z-174" value="" style="shape=stencil(lVjJUltBDPwaX1WzaLYzSf6DKkxwhWAKyPb36RfXmCc9u1PcjFF7pG4to9nlm9eH2+f9LoXXt5fjt/2vw93bwy5/2qV0eHrYvxze8GmXP+/yzf3xZf/15fjj6e709/PtYrl8+n78ufzC7xMuSBoLKIU/py9GlRb+ffPlZP94eFrZZ+nOPkoi9k1SNva9SC7X7WOUGgygNRmZAKrEYgC1S0vXAens8ASULpWckMr89wQoTmCAIUENIA/JjZCaNoAogbCUVVI1gKSSmWxVSjOA2KkOuU/Wz4AsidCqYZMZEknMqhKtfRZVYj+k2wiCBBIxRC3JUkR/vyapltJO463qMzsmSeyAIiNaQKMi1ybVRZCkRwIYMmwaIYZBXGqI2dZOLqLEpVZ8u9BIq3MpXhs0aieQtOhoSFbmgrwgOnTIal2C8koSo6tnCdJ3wlJvUqzStUolgJEk26BbnERfBuD3HABdjZ3QZgM6J2uQQoIeSA3LEvowCxoAV86gIRIdAIg2ho4OwwDbGMbk7TKgbFxCVJ0AMKxspx/n7LoMiL4HABBJesOBFr1LlSVfn7quWGLT6p31lQ5lEADmt+tjleqwnGBZQmqwvgSPg9Mhzyq/xlJVDwhM6SilWwCqnAmXJ4krAE0+5NIGwGhFtvrxgHnIahqXAAdQOlDGZsBBByUsxXCegCup2eUNR6gTotEBMfocaav8psrhnrEBdOaSSrEVtNQoownCbmqUAsLMhLVLrCC678ZL0KwgmuRNrxy8RvtWOHbChwEq6ioo8BhAqxUOs561Pkx2tTrUzq8CmLsOoLN7XrudFDfZB+0zLWwASgHwOFuWcMtkXQB3ONeYNE8art4qrXC5UVoRoqu4HOaZlwG4KViXsApE4hI4cQsTVoFCmmuJ/oQY6M6HG5tjqdB9CaRr9Acw3bTKsKxGpVMUy0Zw68+Y68FlQPRNAzGwmLEvubGLFW4wQPHtHhsUGyhYEl1rVd7HlgXGCo3k6iQzlg3M1s+yUZDMAInJ3VshJVvWy9xSV50yEJeW5wCrA0Y9bUv+qoERVqh9tCosc5vY1824GnRjKnMgr+wbCRh5PLz9YFkxb/HvpcP34rRZ03lTTf6OAftKWmT0azHs2UND2AjcqT/Bv97APhN/Nnck3ORY1YQp/8qeleVHH9D+b48P769194fHx9Nj3/r//nUPX51eBvPnvw==);lineShape=1;strokeColor=#FF0080;" vertex="1" parent="1">
          <mxGeometry x="834.1001240801734" y="531.7828307755938" width="26.16067440822227" height="43.637814312392194" as="geometry" />
        </mxCell>
        <mxCell id="j0sixRuL5LnDlVz1Tf_z-175" value="" style="shape=stencil(lVbLbttADPwaXYndJfd1TtP/CBCnNurageO+/r4UhFVMxpoiN1nieLmcGZITP7ztn153Uwpv18v5++734fm6n/jLlNLhtN9dDld9mvhx4oeX82X37XL+eXpefr8+zZHz04/zr/kf/iw4oVpnUAp/lxeFiZc3X5f44+F0Ex+FejKAHKnnbYCeEC1AEpW0DWCmZgGcScI2QDrlbgB6ZgGAIiOBAYiZArhDK8TNAkhAkZpmlE18oAAS6smzEKgVEJ+pBlsi6iCf3iiwiW/UO4jX/KMvEKIghvWCKweJMmBZjxCxgA5l0Ss1y4HKAglPi5RtSqJVRQDN2KYkTBWUSWlmWyYREgQoFK0u1AsopaZmtNLmTgEoo0ViZx4eXN4HBIrF8lCoNggIzjyqFgzoVnxRGwC6QxoJrD2JqoD47IuUSFBR2zDvu9sSA11EqsnFM1Kq+PzTsOuWstnqrlIE91XruI4aeehqC9Ct7PQGEZuzOnPWIfWtBuO8prLrQBS9jClzI2xBJ6iMLUDNiXr2pwHlw6Vzgbxl8V2y5OGN+5OtU3JE66wDfXsWjiVOO0hF0zn5waPi6sBrMfgqzb0fmKGNBrdqL+DZVgatNwcwoEE7aPE3KEAYWiIXL9RAD45jkK3xcdjvbnzw+TR1J6DgwyBseN3ReKcJzFgYzfZGQ4IY9suR6hwteOzbu4q6g/p8doH8f7w+vG+rL4fjcVl2b7/77VZfLZsxP/4D);lineShape=1;strokeColor=#FF0080;" vertex="1" parent="1">
          <mxGeometry x="838.4474466390102" y="550.0824785437858" width="17.536240718753984" height="7.891362757389226" as="geometry" />
        </mxCell>
        <mxCell id="j0sixRuL5LnDlVz1Tf_z-176" value="" style="shape=stencil(lVhbctswDDyNfzEkwQf4nab3yEycxtM0zjhOH7cvVJeOAEmbyZ8sYwVg8SR3fPP6ePey36Xwej4dv+9/He7Pjzv+skvp8Py4Px3O+rTj2x3fPBxP+2+n49vz/eX3y90kOT39OP6cvvD7guNGnCZUCn8ubxq18O/F14v80+F5Lp8oFSMvxHFbPlUq2cjHQAEBAkWrICbqfRsQC/VoAXXYuA5gkmoAKY5PrAM6sfVBvQqApFSInYZOEWjgTNUCmKnLNiAHHwZWohFAWXIA9QoAShl5MACZiQGtVWntFtAoApZapGZTrwQqvA2QQE0sII/IrAM6VetDEeoA0JUlGwf16r+R6wAl0TpdO2UAiCGM1LkWXKaCVTivWydBgEqZbYlWaJMIZauhR1hyTShar5W4BHitxed3b1QbyD4ZyXkFCFWQfZo6YmlV3jIqCPZxUICA7NMCcz7MYrkea/GRUxUowbVxdfaAUGHvW9IUESBTcpGrozFsNUvvQxkdfbO7Og2ZAgiEmlSd0wnW3LLha7pWBGhUnEmaLSD7tOGX4AEF0KoDJBcPaCDSiSkl7wPqrmmNJQY+pOIHb+eRwFsAcYACh9akwcVBZxD2wcehwZJTlqJrG4IBcXAy7wIoW7vvlVOJom2jjWY9AyRcolK8DwV1jTWW0KSeKk58HAKqB63pRYmi9FaT3JKouRRR1ygLWiNuM3UMnBkgoBKVBa2BKt4rJS4AgKVPAziMkTbzIYFI5zT2o5mGDuKQdaAsTEK5VBbJJ3g9qYmyNUmXgwSSr+pYtsmnywZaplujbGtaMmz3otPA+ZBgpNWA5BYmGaHcAriKa/jIIYt6UBoYBE4NyDZwNcNNQLdIt67XMAbAOiD6VlkqzKXCvkT1DVqm9QQRrIbc4YzTA4YzSQ8EGdS0nnmqO0GoTmCSnlXd9q0llUHgdD6IdVqNROesqbfaSOsaGFAcfC/mOHa6dYsouqOlwHGyOD3oF+CiMSbBdWlt0P7F9qanb9T0+likZtcHeBpWa0/GS4nyY+UTvG7QHuwCHGC/48WxGN9OcBsdfSaPrktkqH+XT+j73W9tWvaoKMPI92u84N1HjkP9O5/IX5V3My2NBNmS9wUGW6/K+1sGashftd/aU2B6Kj/Fytcx4Lb4r5b/D8pFfLw+aHGfvW77UF4f3u/2Hg5PT5erwfn//i5QX13uEfn2Lw==);lineShape=1;strokeColor=#FF0080;" vertex="1" parent="1">
          <mxGeometry x="867.2097728974436" y="530.8039462195682" width="29.16914856561938" height="39.048791834990475" as="geometry" />
        </mxCell>
        <mxCell id="j0sixRuL5LnDlVz1Tf_z-178" value="" style="shape=stencil(fZbdcgIhDIWfZm8zQAg/17Z9j85U606tdqz9e/tmZ0c0uJ47xP0I5JwEBl59bp8/1kNwn6fj4W39M76ctgM/DCGM++36OJ50NPDjwKvN4bh+PR6+9i/z74/n6ctp9H74nlb4nbmSKZeJCu5vngmZ6jzzNAO7cX8FVKEsBuBKrgKg9oAE8gkCbLeUhEoEQKSUDZDLeWYRKIl8MEDRmHwfyBrBG6Amyu4+kDxxMoB3jhwgYu7TVAsVkFcWCs4CTBEoF4RctKeOxHIf8IXYpikHikAIf+MNUW94AGSSaoAoFIE3AlOyeWU+p2E5S9yfQZcQILVuQOwZdJNoS9Ls3wA5u2XZTIHECqeJ9kDpSaauRiNVcAY1QhdBzeLBli5WazpkSsBLV25uRaqWRyFawTQzRRIQYirJzq5atkBqLfouwqUxLBepthWb10vrWZY6UOAeyKCCtDV625mm9gmUC4Wc3VLJMMIE1BsA2FW9JraVlQB7n3c9oMKhCLEvIM1zBPZ25/umNQ1tVEC2G+fFCC8g398O2hNQuQlVu752DBfA+q0ptnqO5JFmeuIuo9DY7KjY71UxdJV4EntifPWorW++R/dC4t7V3DlIB5cHx2bc7eb3yvX//QNFp+bHDT/+Aw==);lineShape=1;strokeColor=#FF0080;" vertex="1" parent="1">
          <mxGeometry x="917.1158350637766" y="530.8450430748412" width="3.2224412221481105" height="3.217404287142613" as="geometry" />
        </mxCell>
        <mxCell id="j0sixRuL5LnDlVz1Tf_z-179" value="" style="shape=stencil(lVnbchshDP0av2oAgYDnNP2PzMRpPE3jTJLe/r7aeiCL8B47b75wFnQ7Omh3fPP2ePey3wX39v56/L7/fbh/f9zxl10Ih+fH/evhXT/t+HbHNw/H1/231+PP5/vT95e7ZeXy6cfx1/KEPydcqsR5QQX39/RLpST/f/h6Wv90eF6vT+SdWS95e33sj/tYXypYH6jysN478mkbwEIpWgADC1ifVywggR0CU/EWkN02wGeKYgGFAcBRNYAAbdC/Qx0AmQSt16jVaQMPTchjmL20wJx3kqM45lEI5MCRgqdiAJk8AjDxaAOrFxAgkRS7QwwgMzy5MAIS3EFzzxsbmAJwa2TKMnkJHEnLR7wFZBAHrU+TGSHCAhVPnKyXCjBaNDWmOKAdspo4xkH9hryUhWQsaa7tkGcBRRNhzFZ1dAQ7lGxZLGaY3tWRjIDkIU9WjfSYGhqZDI5UxUZalBWA0bU0r3eApiPIpVpt8mWtQQDwzpEbrc6FGG1RWoE1QGGqgCrVTSb7SoH9QSNn6L4GSgUAXMvmDkjkIsi+SNHsoNQHdpDa3N4BuXHbeQCTH0OtfqvArZo6ZawgjSVKV6UNwwKrWG71XdOzaqee89w3ldDiJuBXnjr7EnywgyoFs4MmE4qcAqIBeNiDVArEMRC5YsJXKjMADTVSJ5HcaLSSW8UtJWQLEFAQrCVX7JEcUmRq9FhyWtTIS9E3Hlp5CQkmzaUSbRwYiT62jbcwBgSrNkoiRgXhKRieybDxaseJYwUpMQXgVq0HI6QVACOdLG2U2rJrs4DE7nBBz3i2RgekdGvrByu3CthhKVFzJIZdTgHB7OChlua5BVWopdVo04LyhcBxa2mrAvKo4hIlQwICjdbUsI1XYIPgbuLqSPCW5acj4VzSAhITB73ToJru1NsBKkRBanwekNqVZ5WtGcRBFRhP6Q0BKv9nAJK62qiNDQJbVnZW9S28hMRG75mrAopI//BUcQ5qBz1xMg0lQqP1xCb5pPfVrSOZwKnf5IIkG7M1VUhkOVv2XsQ0citbJZACZD6ptrHHCsW0mmiOtOQv0nDSwtQBjgLwUtK4mnuWwEvNcoDRBlUf6EhKM4ktoCJeilYv6ZGQvF/6w3STi2iMwLZlLZ0bzVpkuvp5OEbw+jxzJL1SAC9Ve8dfVCPYYCL7kLDybh7sUl3ZH1k8zYr6heXs+rmBwkpgK7o7B26NrkzAuujYnI2N6/G9ZB6+Ofj8ebqHq2weH/ZB1pXzSQe5bp5/OnhLmuerOJ3n+a2Hakec1bVYmoufxqtQJ8ikzAPkIOkDs498Q5cRXZ9N+cIpiUSb/hG2y3l9ogpIdz6PtLv6lfbmJhmu9GdpUu/KeNU2fbsyHypkk0+/L7i4Xj98vJx4ODw9nd5trP+3LzP0p9OLEL79Bw==);lineShape=1;strokeColor=#FF0080;" vertex="1" parent="1">
          <mxGeometry x="899.2874597664645" y="531.016460713179" width="32.5048721443539" height="36.631926268209384" as="geometry" />
        </mxCell>
        <mxCell id="j0sixRuL5LnDlVz1Tf_z-180" value="" style="shape=stencil(lZ3JEhw3kkS/hteyxA6ce/kPmYlq0lojyih2z/TfNzC0rMU960G8cYnISiCBgIfHgg/pL398+un3jx/i8ce3r1/++fF/P//87dOH9NcPMX7+7dPHr5+/zT99SH/7kP7yy5evH//x9cu/fvv5+99//2lJrj/9z5d/ryf833e9eBt5KcXjP9//oedbi///L3//Lv/r59+e5NMt1lf5dBuJ5GtQ+ZBJfvRX+XhL8Px8S/L8cCvw/vlWZLzHrQ2SbyZ/NJLvr+/fxi3D+5fb8fr+rd96IPkQVT50ko/Hq3y7lYry7VW+3gbM55Qfr/Ll1mB+/PlzxgrKF5U/cD5jepVPuH6mvMx/xPXv8xlvx4HfS54fzhl4s36GzOdxrth38q/jrePWcb+MqPIR3n/Kv85/7bi/5noW+Xbr8P5zfl7XQ53rjdfPUPmE8vn1e9W5PnG/lNf9W/Npkd7It0PlD1zP+r3SOaJL+ar7vcZbhedX3S9T/oD9Xs/dcZcP54y9k5f5P24V5cvr+i/j1vB9yuvzSz93xBt5OV+mPO0vl2+793+dn1I37yPzM+Ujjje+ft8yVzjsl6rnRcnnE96st/66Pku6ZZTX+YnnE97Ip6bydL6X83/v8nO9ofwh73/geTF3q8nT/Nj5nsdpAd7hh9f9lfutwvfNt/CKl3K7NcRL43X+c0X7mW5N3md+cVj/6Tz97/IZz/d5er7aw5zQPqcTjdzlI55H6URTT/IR5CdelfcPp8V4Iy94LB+4f+OJXk75NHB+oq6f1PG8cPm2ex+Rr4i347ka7/LlnLE38oKHp/yB75Nf7VvKaG+nvMxnwv3u8vG0SO/kZbwBz3eXP04P6E/LB56f1/0Ypz0B+znlX9dn7Hge2feNbbMeBJ/ME2TgfPao8geuf7G360TA+RQ8OS1khvlMJ3q5y6dbh/WcFP8/LNIb+fxqbx8r8J39fN0vMZwW5p3/G1WezneXP84T58/Jh7E5L+R8n/IB7b/K93PG/qT8xFf4fevr+gmM/+d5F1Q+4PwI3g4F8W1WvB0y2p+sfEhIaP+z4uEpz/5Xl/fn9Wn+bAi4fibek+fP9YbPl/075Q/Eq+X1+47TQXkjLuann9/7UrwZG4Jgtamz03Dum67N6TzAUNsJTO/QE5Fq13cvCJz7SSPdgQyeK/1kte7nFtJKQ1+GV+VQVBJx0cw1IhPPTumU11XGzw9mBU/Yei0fb0mfH8EIzj0qKD4gCTVthqDaAw+taZOOLPKVxjttXhL5TM+v58d/yOP89PPMf8gTSTHlh46Xls88cwQ1TCNCoO3QrcVGZ36eqvOJICYqK3mcbva1fDo//5M8gbakXsjBIPtiPdD6XFa8qjw9v54Y+Wn90POb7veDQW0/z/wneXr+8PVTCZQc6vUeJ8y9lg9qyY/znLmWN9R/IGhOFhVhJzNZlCPgekjGgoTzmH8nX/X5icZblRUISDqnpix4OH/wWr7fksoP+l5Dxxsx6DLlFTUzqDoMxSOozUFZ5IhIIEdltadbRUGmqPZ5Hjj0/sbiJHS6cj6390Me3//uwz3kiUTI9fRpHuAkEghu6tVlJHFyUxYz83x2Y2HPMMy1/FDWvCBJMeUFphaEqeVQr6ji/i1B7UnloEWwqBGu55J0f3V0Sqd8aSKPQbKsLO/g8Wb16u4A81q+6HqbiBEHUBQOBz4BStW48sSYyJvXE+E9OWoYGGy6RgOD6KkwzHUkFF3MZZgKxLU8Qi3Pziz9wjDvPaN3Wu/k2ZMC/cJUUP+34CzVoAGbCX4TBXiifemGEbwVsIuqQOigZlutHXMOqgWxw0A8VKvutwXw6ReaHbDhdCneKcgOnQq0RWvXQO06k2kMXTHd5pCtQw+1dQrCh2uHfrh1TJH/f+iefoTDrxWC4q7FAcDybvH0857pWZillhS5x46uTctqNaZtJd+1VT2bEztDrSnllA6epW7oIvAsDSXJJ0CnIFo/lHWaiLvAGHrQMGbKSBv3qB7aVCCecyqIXUr31IdrhWTTWtHpXYlYrxsosSHr2QbdkHbod9R1V+hnuONaodiHG0g89KqORWZPs1c9siZWb/RKTaFbTnhO934RMaWIVx96xk04TYfiVBB2Y+JpcmfHcaLTuwKfQCOc9MpdYSDZOBUkbDQhLHmQIypi3cT1p4KY+xIxUW4YBzdRKWX+DAvVTJiJY0jKQpT7+r1WMDJ/oUB6pWLZHh2XxqhKxFUOPw5j+iYgonjQaDpLdTOt/XRN7wocIZkKYoxrwZSJqSDe3sQ3uJaGzVJDPmUqaNZZ4x03lDCecIVM5VSQuOKCK6wgLmJjDnUqdMmkDAh0p4KEwlpAlmopvO64BVdoAxmNN+EKmcqlIH5rRsc1HIcC11aQqrrSqHhCXGk09P3WMCTpt/MuHXqQTohDBNdUaEkVKMw4FSRPqXPe1Frhr3toYiLcpUNjECtTmwbdLdU88S69kwxPChjE6go3ekbYN7p6ZhOxkBs0mi7YXpD5HBZDnIiFfPCpIH5TbxigXxbfFPAQspTDCXEoZXtYjutELETvDUtSnwrk8I5sUWIOYAxzg6YCMWRTQRDQhDiUZzbxiYDjqVBJwSDTfAQ5WguUFVUg47dgnykg1h2arDUSJqM+FsKTAlnXudRcgdJ712IOqkChgF7tO2R0eNeGLKpAB+kqeDEFMmQ9afRyrV92FoeNgVZrj+qDj4xZXtNWC4E99yAdKPM0kIjGKMyFGD6ZCsi2dD2ypgIZ4+ZrqXC+RbUPV3DxNUt2mQrEAk80UqIpwIdrSTmpwemXzSLP0zxTqGJiNqXW71T1O5pMUNxUoIygRcR1VaBZWthZvkPjmgMLP69Tj0jdoiTWVCDPrBZNwFgHMQ0667E7FYiTml6SYI0JJnDQUbnBhT7olcK5mJ8UyA2qhwY5lutFYSNDlQtyUcyimxHYVKs1DRwtFAhrqVTFrcu5o1+w1IelQEGOfPrDTwpYsZDNGA9k7kpSZ3EMdAdK1HSJsYmXBSUelgKN4VB0vxSoDG0oMb1XEKdpMEhcMdr0QwrNDvaNQlWHY68QfVpJoSgRt1PItuO2CsePKSQNKy4Fzj1QM7NV0BNoIPGQg52iG4VDqY29wvFDg05DI2ybaU0Ws1gKlIfeDJENjH8lq/TbWI1kpZ9LgVKhLTd7bHK/o5JYS4HzrOIPGeNVTGFfGjPjLFNjvRKl6vWLLUoufmwG4QZXNFSlKRb5wtl93VYrpS1Hi+Etxgm+9Ipr2ixhlVGytPRjk9JohSW7nwjmNW0V3M6gwnHx5UghjAvTt1EQzms3TeFq+VF9Q2hX7wSbNFgEbDDZspKHTYFg4qqYsNVENRSrZKKrAiGmlS9tC5yc/OCnXMeMsBAvsDGRXiHYru64q1dCkf0CMf7B0hGmQiLG1UiyjvbeSgCWS0Osg1FkbVN8oZiy4Tqq5gtsstQ0LPrgRt/IB/cqsbWHRL4Gl4NYKdFyc+n4NFBSN6WMQhUPLm2KaoxG4X1srlVGQ3GYwU4YZT7M7YlouQ77XhEP2sOgMLfSOMyocAzbwj6LP4X5d/mOrVUOTRnpDSMsh55/veL+PawVTsX1bEnQnUvjzMD1jO8fLM6QcT0Hi95wawwrXe6cJW6l1D1sSme1FRGnKVleYN+Vhsqxut4Hn19tvFy6KXzqCtChfLeAHpeeSpi+R7QnycJICamdpBlTfVfKq+s/oddorQc6Z9FHmx9+frxqfcWl4x4fhe8VlUDp3KojahHG+r7YGkDs+aYVl5Wyb9an5T6u9Y/7V86j7f5S+7nbv8n2O7c2KzZeYoCT2Z+IBHCyWthdabrLE367eh9qhZC0Nc9azzw/PyTvregSpi5FLfqZ5wud1/Ei2E/zH7Ror3PwxwLAm1C/Zao/gqPvzseo8ujCqI+0wScuPzDeYPILX5FbaO55OFP6/tz8DM5XCpr6NriVm0f4E1YpWtHnihPz+jd52l/ZuLCCrUCsSHRwsnmxIpvCdQtGF3ICctP9NRh/NouKV/R/u9q3UXE9D4sXVGxFNB3ybA4qLtBgyQwNY7Eh2JA5jhmSZjYObqcxFXTQDYO3wRpYjMYEldWiLhqCzES5YFIIZ4Vq34F7DgYrR93EMYO1atjEMYPlsC4FWhrGFK7AJ5fEe7SXFC7Yzs6dfcLVK7GCEgAbBeeEN2NIlqDU8Yh9FOw8KxBmLGdY51mBXqla5gC3IPFa+rVaCYY4w9uxKMJbf4zOQNyDJB1zdS7CMB2TwC8CPRsFDyVtFDxYtRmDh8P6ruhdA26dY4Ae0uOy2YugYee6fQ9LciLxReCzI9N+EVrteMZdBG83v+Dh4a2C7wfy8y9C3BsFD6JvptXD9BsFTwTYKHiqwWYMnsywUfB0iY2CJ2RsFDzlYzNoTyphhYu0lY6Q8iIxpnN71B/Nyirpak9TNlC2NF82MytByaYVFYo62rtXqhe5a5hv1C4QGVE7pV98B6yGtw4eo2G9wmo7bECXzulVGG7hIawkt1aUo3FRdbJczsYlz/ki4oal59a9e1TOUizK8UwFqpyt1b4DO1m12eKriGZW4ZT9Ap0Pddh+4Ba3LZhdKhi6bfGMSzwpkCfaPMOv4Cm6ypqqKqAvXbTqdGxKz6vlNmdkz1qz75DRaWr9gs8goNusBm5kxHz9MAYho13qwcB6xkZiDwb4ifOhae3RnNfEqfsWpdmVUGQzM3xjQS+2+LiOqldb3hE3UK+WIhux2UNvZu4jV0R05doHV//2YcHciNi7W4ndCEiEDGd/AldqOfsTuFIrWEIGty0bFhHaRLCHpRz0wbVgyUrsOLVnZPWnOyd0LysUVAGLKc3yrTA5lUVZS/zVFIBKHa2kaAXKqXisWiS18Cu1i9A3baBFA1ZVoEPxQQPeFbjDxbDuQT3yfrA6786d/Yc1eethVxAqpNo8ADaF4YL52tiNQVzLxt3ZHzTgkwJW8lqS1a5W2BW4HPlCgSuevXx+U1R9MejE+8EqhBpnXqwP92rI2oGh1WFpk5XTJod1fKuc27x+QZoMMKn28KnuCpxeNqzB7wLXtLybHlmVge5yYOTyFr5MaVSNP9TEFf3W2G96RZQBPq23cJX14N4NWWFo4d5yw3qpTu8UXykpr1G4W9+wOyOmS06e4gI7MobNtEbrZRIZCQQ19yXsFPSeFb6nZyILgXB5oCFbyEL64rCp7EM548xX6fSuCZGZ7xabQEEvB+HWJN1aVz24xXfIWNifHNHx68WmlZtjdWuFmAa6+N16TaeOprJbXDoxqfZI27grNPSnu/X2SZwpuxJhvNcVjcHInFSQaunWUTxlbNwwFQTdTwVisFYHD3mlhK80gYKQOSlyRbVFmlLAhJdWdAMl7sPcrE9sHOziJz0fYkdwsoCC9K9r2Lp8kTnyC5UHbR8uclp0HYo1VndZory6JoZGTgSp/aJTIVKPVlEdObVvKkhNx6Ol+TueT4zAo2f6OyZRWxtyT+xqbRXiwTyf+aJhIF30uAnvrsB5AjVo/GFV25DCoVA6bG5/O9RpWt1H4RfKUNYhcA+D0hUkhsLRgW43lGS+odNafU4Fyuta+Ev6m6Zdc12pBAmc6T0VJIYSmJAqVrIUNtfS2T2Xge8VK2YqpwJ247WuIeumFfpwRjIHvjWgeI0Tbul1U5+QcFzXbrcqdP4Ih3EUHAM69GxofFXPUNKk8tWA5udWPHqyNXuqSC5n6+hckIGf8FdMasHDNlvdaOGSfL87EfPtszU6yMhM5GTNOvnqZcsB4X6MOdjdjJg/nA8NkfNVYVNeLGPCDk/JmgAmvgqrazoU0ypTXpE8X5VdNYst8i0VVdlhdjonpFbYwle1GdXLeDZZwnrkgnfrAMpcxILTKk8xt4Wm9RYMvMXDQtCbeiLr2BiwZnXdoqK3eFD+amwGbzCpMVqsN3C+dFGaI3A9o5Wt8y1O0QEg1jus5Wu3nGwq0E2e8u6CMn4B8Wi0CNLmFirLeQh8i5PR35tbsZo6ydzRMVR1hHi9hXKxv2i82W8BI/sfrMVS5DRgwz9s30Jw+4MpukEDHGzPw2HuN9K5wc4j7kNn/VwLwitbbdyObWg1HbcZM/Zjw/hYYAaPXo8UcR9DC1JyEzZrr4F20GJ163o7ykfR+GTgOHG1bR45K0i3YYiYRG3x0pA2dSbNHEj0ac2sZTxHy5ULjM/X6zTuZMYb+WBeP2a7XcjTuV7scsDOfpfJD8w2Kpq+sbktz65Yj8fmCnclzNj1tUTrZZfxilRZPwvX4hXuYjZ3ON5gasbe3NmOrYKMYlYYsLm9yeq4lgXguq+k8nRuZbu7peP6Two746axlN16MjZXuIsbslhmrINV+YDr3+U3foJmLyWuo76S5yuUVZ7bvybj+Tm7MGvN13TcyI/yABBT6lcBI/LrXJ4jg1ntSeZmzra/Mq+HrJH7zH5aVqo7x419E7ciJ+ZBNKie2f5Yn5q8q/MUe5W5gaslUGVOQy5qHzKfd0YjZK6QqvZ9B97pUo1GOziWoeMtAXkBC6MVzgys6jaWyCErtf+F696bpqMV7rPTNNN3kdfUlNguK9z0JLbxVsQPRluVhuvZ5Tvah67kf+HLEiwLoHC3vKbn3Wqky/d8v87nKi3AOmehNSr3Obq6kQVbQqt9eETS3q1PeR/Okmgaga0ccTJaslbujKwdfKc82x/NemqYkl3tKhYuPaxadFQZL5l8OzbjFfs25dl+SpFs49t5q9J0LXJFhjrXjfGSVQ9NeeKVqvrLjzSDd/KSLFj4Bkebz00FitL4reFFDXZ+NcbnVe1/4/peu+OpcfNDO6/bwN7mxcJwnEVu/vijzOKdPx5Unv017avCPJ014e/cpyMrvuqZmwHrfHa+OyFZRnvZ9KWSYtLVd4b7fJn8ps9INHl8f8HPSx7fX9m03fODzSf3HdM+XDw/8eIOHopbR+Ur1vfl58v35dKrK3nuW6R9jvKmT81Ofv7h95++ffr+l18+//rrH9++fvnnx+f//+XL14//+PrlX7/9fP+nPz799PvH+bf/Ag==);lineShape=1;strokeColor=#999999;" vertex="1" parent="1">
          <mxGeometry x="682.8463790158935" y="642.0172591406331" width="280.19413577484084" height="289.12826226181505" as="geometry" />
        </mxCell>
        <mxCell id="j0sixRuL5LnDlVz1Tf_z-181" value="" style="shape=stencil(lVjZbhsxDPwavxI6KEp6Ttv/CBCnMZrGgZNef18uXG1MyjtG33xwViSHx2h3+e7t6f51v0vh7f10/Lb/dXh4f9rlT7uUDi9P+9PhXT/t8uddvns8nvZfT8cfLw/n76/3i+Xy6fvx5/KE32dcoNgXUAp/zj/0QnL+5cvZ/vnwcmGfKQVj3zq1sm0vVJq1z9Tytn2MFNgAqpBUACjENgLpFEAEsVNJFqBnghM05mpdKpFaA4BKORoAJ6oRJDWQWJeynhkAQJNoAUlpYwAo1G2WNA0JuVSpWuIiUwJE5061WqYpAo84UrYeMaSNhXI29oECSFEplMUGQB0U3lIE2flfkH0msSTHRAKqQoSibZ1YR3NcBzRiG4FW4r/SvQqoYVTZClBSBAASNQtQ2iMgoTI16xIXCqCMqraCDbpkiqDZWvA0KzGMAJnYxqB5Qzw08cRpVAIqWydcsS7VBvu/r5W8lhKPqK4DtFVc7fUxBq/PsLAW/zq39QgURB2VsAL6SNxWmlxe1cuCiChU7JjsWt+gQxWQbNRdRrVsnmCnni6riADiZ8xCDSBiyZJzKcOGUJ7Y8ZDguuqREntAAVSrA6F4QANBa4jCPgYGY0OT2NhnKSOXxDeEPgL1qAK8SwJVhv4dXdB1TJ6tGOJUrQ25lCeXOglKq+58t0ED3kA9eClzC9EapT45BajTAm9z2Gj4Fb+ll8RiQHIAgVqmTXu3rwptK4Ywlx/gWpvUzw0tcNTVzaulWy006bFbTZr8qr41BngqcLwXF8DU1XCRNq+LtYKRelDiXJY00RGlVQWVAwTqIK21U7a1pNo+gbTq39ldBgKWG3ko+VUMYOWtdwW2gIJXtYgXNCpM0YZQncg2hqx7FJS3zJeBCPdoqdRtDHoZYHCCSmO2J+hloINaUs3mJ5k+AqiNEqbbQyQBaS1riCsPcFKyTkrXoVBLM/scaQQFXTfS2AZrUsOYhFv3H88C3nFZxoJaeWY4M/TSJ3ZmsN4S0ZUs+CGziG8wAtTjYGnT9kE8p+Rp+LiDXBeuzTdobXA7xDwNmQLlfQx+yCxzDw2ZMVEuNiJSoTLthjqW8Ia9128NXqSLn3mL7kalPYmxBpebVpFM9uhtxnjapT0oouj7QO2RhokjGxf2KP9h8h8rmDAJbuUX2vt6EBjvfBMTyO//vnG7ba8fPl7vPR6en89vBy//968D9afzq8T8+S8=);lineShape=1;strokeColor=#999999;" vertex="1" parent="1">
          <mxGeometry x="889.9884533124932" y="657.9730381776099" width="28.071491405262666" height="42.73111739601361" as="geometry" />
        </mxCell>
        <mxCell id="j0sixRuL5LnDlVz1Tf_z-182" value="" style="shape=stencil(lVbLctswDPwaXTEgwAd4zuM/MhOn1tSxM46Ttn9fuBqqJikh0U2WsQK4iwUx8N37/ultNxC+X86nn7tf4/NlP/D9QDQe97vzeNGngR8Gvns5nXc/zqeP4/P0++3pGnl9ej19Xr/we8IFIHcFEf6ZXkQPgf+9eZziD+PxJt4xOKkAIQHSOoAYElYAHyD4dQATJK4ArDnzOsATxPoMhBCNkgIB1gABL+vxkYHreAdkcJSUwvrICGTUIxk4N/GI6/FZGZK2HoPRHEColqC8WI6XVmOHwMkAZIi1ZC4Vypa7COcTzpp5yAZCU1Csu4KADdFyAl+TygLZUC0rKalmiUGsDA5iA4iQjDOIFJlmQAJnlCS+VHzjHTRKEip/zwCEZHhHOh3YF78u97aS2AinRMctAJdBLJa6khxBMDL0h46mnXtWqfT7N2VDcJbdur5ACGFL4/HGzhZgq57OOk4zGk2x5E41myFBPwAoQ7YA3YjhWPrkuzOMwFusdkNS3YmW2boprO4kY+ptBiTX0qolWSMpuvYi0QxsKBewDNH5draHnpKINa1RIBln4K651a9iANTtvgaoP7LVfa7cNTNAipTLSoOv7andmI3rLbXxN/2+zGrrN02AxgTrNp78xYrUekEngnUtuFazrAPG+L5uH/X3JZpd1LlfbMWw3SFTMgc2lmt1jrcH3px97tFcmnCFf1/PuxjN+K078Nfx+vB/4X4ZD4dpX7/9v13Q9dW03PPDXw==);lineShape=1;strokeColor=#999999;" vertex="1" parent="1">
          <mxGeometry x="896.3622505668704" y="676.5509026913312" width="18.505693144592254" height="8.320367187934608" as="geometry" />
        </mxCell>
        <mxCell id="j0sixRuL5LnDlVz1Tf_z-183" value="" style="shape=stencil(lVjbUuMwDP2avmrki2T7mWX/gxnK0lmWMoW9/f0qW5zGSnoY3kLxiXU5OpKySzevj3cv+13k17fT8fv+9+H+7XGXvuxiPDw/7k+HN3vapdtdunk4nvbfTsefz/fnv1/uppPT04/jr+kNf844SVTKhIr89/xLoZj///D1fP7p8Lw4nwsldecFnE+NYh3OV2oJnI/EYTgfmIpeB0QhTSNgdmkbwJTiCCikwIWg1MYQxUAR3GAGNBkBQpEBoFHLI6BQFej0+/s6IDFpAGENFBwgkUQAqBTGPCelCPKQlcQBLNPtOmBi3gjIgRRESTPxGFa7851c24DWXZwBFUapCKU2AMTiBqhRjXzjDSIUgNMtURrLQaxAQD20Qm0EaOpGbnOJmXhMtZZOr+0rLCij1yURg1RPToyJKJUYkKmaRowVVO0G4ERlrzK1EYNUl0xxTIQZWYFJxg0eS84izSARGnyUWoOpltwtXgCQSZO0igdArayerovkb+tG6zW8uCIBm0IlcTblbuU2oHQmLBLBWF3jqN8tkCCx1FVHsbgCbphJTspq7fS65rTriUZgRFdrKc3doFDwY6LsfBCqCKCeTAZoIHHWZv0N2lO5TSamnLzTijpEoJJ8HpAKWGuPruQ+bFptnAWavQIB2CfOyKdoFqi+Uxu9UY1aHpzgN+l9bxuQVzojVBCXgk+cATIS/OZnAfOhgChZPWTxURIEUMrs84C00gDB5cHYhWRGqTi2VqpINVbjibE146kvrOohoxEr+kxPJQpkZprJ1gDEpUIlepPQPGPqXbN3OqIbPgtI4k2yxAUQpZz6jLcAoBK1qS+uqIEAylRXMhNQo57LZRFWRlOfCZmLEvdevw2oXshs/GhAvY0IYQRoheSrwReQDb9o5bhMbDOAIVttJnQ1Ldb10PQdvGqIwkHUJmF2w3Tqi9Q2l6xcHIBh27X5x6lG/mAZ5b7ozYDcX3FNvd24niMWsnnBmLegBpeaEH1/SHh0UL8EWVvNSCkpjAZZz0PvX20PJoSIqslneRoZQZaVqtvvMykaxpIXbhzQuBoaBC4zNmS43ST2iF0jnXPAhg6kkNrdu5wPID6yCige6W3NyKvzwB4rS6enDDcAKZ6gDD+vmIyw+x6DZaL28C3iD/hs+3Lw+UKqMu3XrmDgZGHnXQFkqItmfx5bpsD1xeLpNirFa6T28r6cLyhf4iejAjfnz34A/Pi8PVy+Nj4cnp7OHyuX//dfJ+2n85fNdPsP);lineShape=1;strokeColor=#999999;" vertex="1" parent="1">
          <mxGeometry x="919.7329987105572" y="654.2308635625964" width="26.249171683542453" height="42.22361067068897" as="geometry" />
        </mxCell>
        <mxCell id="j0sixRuL5LnDlVz1Tf_z-184" value="" style="shape=stencil(lVnZThwxEPyafW35Pp4J+Q8klrAKYRGQ6+9TzsrDuD1TK9726BrbfVSXew7+5u3x7uV4cObt/fX8/fj7dP/+ePBfDs6dnh+Pr6d3fDr424O/eTi/Hr+9nn8+31++v9w1y/bpx/lXe8KfCy4lyamhnPl7+SWLj/9/+Hqxfzo9r+2t2DzY4wF13z4GKWGwrxLLvn3Ikkd76yUmAnCSxw3ZLO3rHsDHvoEOcFaKJwDTT7gAglRyZrgk2RFQJGUC8JLGLXkv1hKAFT96yScpxK22ihtXCEaK4QA/AkKPzB7Aj4cOeATJpAYYtxS9FHJoAEIcAUU8SQ0Aohlz1UklqdEA4wopS+BuTaOXshPHUsNJcCMgSbySGqNbCwJHDo3kq+OWSpBI3OpDz5wFUGgBBatLtFSpJNJIhHkFT7YUUw/TAkgSSLYm5KZaIYohZ8hBjAJ4CSRwuWqaQRwooEgdvYRIG+KlvJT8ArA0l1LRJYpfLClRlEtV3L34bRtgxKsCip149sjY5wnAuHWqhysA1INXJYrUYKwBL1ntpcRYI0oYO2JClTPWQMmrSBsxJHBFl0OzJ2eOut7SwoTbThU75QWrnqmZgPUMsTe9Ia9jRtJoIazF3ktmMZ4i5jghdY5e7A3tz3nKOSOW2FsIgBEQwWgMEHqlr1dgKZQ3AIW0hdYLJx8xdmlBKDoIkZRyy4qp9pmXsEJSaZR4P5/pqHDFkLQAQCEwsWpnsqg0M5Z/V5XJdFjaqMxMKsfrvoYTM/VstXhueoTYm776KmaVVNocstB14s5+kvKnu3Je/XxLFZvXcuqKPVIojQGDdGBUitrXAGQ129EmgImdPMlavgL+Dp/aEmJkrAYw/oWO0PwFgUVWyLNbK73AQJ5lFThPyaKaqfZTvwNtA3BrG8/Qmibhr1omae67ut9hedO73oLInQO3l8B1YXRT4SRcs74jQaZmwi/V92xeKWcWOahYJYSro8kEIRzHQGBNRkkf2mABQGqT3EDqKJKEG1jkotOsgVhmsgJupkoIIzKVXXmivuetgr93qypR74mKQsTJaL+yS5K1veEvAENrLuvAlUyVM5w0qrDC68H3qC7VUKjqhCpU9RYod0/V1nohVZFaIkH3kTRC5x6fHysdkZheJ2tWpb1TqX7clliWmv60ZT6SxHGVPT4f927W+63OabSuwKpGq3LcxZh/io4XfqGzEdOZajU2y6wCor6H4EyOjTqmI0NHs+tpm22OhA2lTru/0zL741TbTjW6Nyd6hDYaUeNOylxoq2q6w3kLelTxlqExgFTQB+ZzFKdno5YmBXqwokXXBzF77UkpEUfHljnqIYrvPXrXXlUZnSZgP2oMFGkRtzmTkl5UkMOfamqUKEkjXkqCZB6viUV502iTAzWUoqT76dcJV+3x4ePdxcPp6eny6mP9v37XgZ8u70n87T8=);lineShape=1;strokeColor=#999999;" vertex="1" parent="1">
          <mxGeometry x="952.9472353401889" y="651.1621077776663" width="22.390860484716104" height="45.40628943850575" as="geometry" />
        </mxCell>
        <mxCell id="j0sixRuL5LnDlVz1Tf_z-185" value="Router 2" style="text;html=1;align=center;verticalAlign=middle;resizable=0;points=[];autosize=1;strokeColor=none;fillColor=none;" vertex="1" parent="1">
          <mxGeometry x="270" y="435" width="70" height="30" as="geometry" />
        </mxCell>
      </root>
    </mxGraphModel>
  </diagram>
</mxfile>
